<svg width="77" height="42" viewBox="0 0 77 42" fill="none" xmlns="http://www.w3.org/2000/svg">
<path d="M7.34371 30.3719H10.3562L17.1033 41.5463H13.9052L8.87058 33.0206L6.18825 37.5318H10.5213L11.8212 39.6425H5.03275L3.81541 41.5256H0.617188L7.34371 30.3719ZM60.4131 41.567H63.6113L64.8287 39.6839H71.6171L70.3171 37.5732H65.9841L68.6664 33.062L73.701 41.5877H76.8992L70.1521 30.4132H67.1396L60.4131 41.567ZM16.9177 35.9798V37.4697C16.9796 40.4082 18.6303 41.6498 21.1888 41.5877H29.6073V39.2908H21.2094C19.8063 39.3321 19.7032 38.3596 19.6619 37.387V35.9798V34.5106C19.7031 33.6414 19.8063 32.6482 21.2094 32.6689H29.6072V30.3719H21.1888C18.6303 30.3098 17.0002 31.5721 16.9177 34.4899V35.9798ZM48.8789 32.7723H55.6467C56.5958 32.7723 57.0704 33.1862 57.0704 33.9932C57.0704 34.821 56.5958 35.2142 55.6467 35.2142H49.5804L50.1169 37.6146H55.2959C56.307 37.5939 56.8847 38.2975 56.9672 39.2701L57.0498 41.5671H59.7321C59.7321 41.5671 59.7114 39.4149 59.6496 38.9804C59.5877 38.5458 59.402 37.3456 58.3496 36.7662C60.8256 35.1314 59.9178 30.3926 56.3688 30.3926H46.1552V41.567H48.8788L48.8789 32.7723ZM37.7987 41.567H40.1716C43.1016 41.505 44.3396 39.8495 44.2777 37.2835V30.3719H41.5953V37.8422C41.6366 39.2494 40.6461 39.3528 39.697 39.3942H37.7987H35.7973C34.9307 39.3528 33.9403 39.2494 33.961 37.8422V30.3719H31.2167V37.3042C31.1548 39.8702 32.4134 41.505 35.3228 41.567H37.7987ZM50.5504 11.5822C50.3234 7.40212 48.8997 4.3395 46.9601 2.66335C44.8555 0.863014 40.9351 0.159425 37.902 0.18013C34.8689 0.159425 30.9485 0.863014 28.8438 2.66335C26.9043 4.33955 25.4806 7.40217 25.2536 11.5822C25.0472 15.514 25.8932 19.7975 28.1216 22.2187C30.2675 24.5984 34.5593 25.3434 37.8813 25.3434C41.2033 25.3641 45.495 24.5984 47.6409 22.2187C49.8694 19.7768 50.7359 15.4933 50.5504 11.5822ZM37.1797 1.23547C37.5924 1.21476 37.6955 1.21476 37.8813 1.21476C38.067 1.21476 38.1495 1.21476 38.5828 1.23547L38.6035 10.382C38.4796 10.382 37.2829 10.382 37.1591 10.382C37.1591 10.382 37.1591 1.23547 37.1797 1.23547ZM26.9249 15.4311C26.8011 13.8584 26.3266 8.12632 28.5962 4.85674C29.566 3.42891 30.9897 2.477 32.4341 1.98037C34.4355 1.27683 36.829 1.23542 36.829 1.23542C35.9005 3.53243 33.9816 8.45746 33.6102 9.55416C33.1563 10.8992 32.7642 11.6649 32.3722 14.086C32.1245 16.0726 31.6913 21.0183 31.5675 23.1705C28.8851 21.8875 27.2757 19.4457 26.9249 15.4311ZM37.8607 24.288C35.983 24.2673 33.6721 24.0811 31.8357 23.2947C32.4547 21.6392 35.4053 14.5207 37.0353 11.7477C37.1591 11.7477 38.5828 11.7477 38.7066 11.7477C40.3161 14.5207 43.2873 21.6392 43.9063 23.2947C42.0492 24.1017 39.7589 24.2673 37.8607 24.288ZM48.817 15.4106C48.4663 19.4458 46.8569 21.8669 44.1745 23.1706C44.0508 21.0185 43.6175 16.0728 43.3699 14.0862C42.9778 11.6443 42.5858 10.8994 42.1318 9.5543C41.7604 8.45751 39.8415 3.53248 38.913 1.23551C38.913 1.23551 41.3065 1.27688 43.3079 1.98046C44.7523 2.4771 46.176 3.44966 47.1458 4.85684C49.4154 8.12642 48.9408 13.8585 48.817 15.4106Z" fill="#949494"/>
</svg>
