<svg width="90" height="33" viewBox="0 0 90 33" fill="none" xmlns="http://www.w3.org/2000/svg">
<g clip-path="url(#clip0_485_475)">
<path d="M77.2729 5.66261H81.2356L79.2349 2.51948L77.2729 5.66261ZM70.73 10.5857V9.21967L72.1098 9.06238C72.5899 9.00167 72.7914 8.56566 72.8493 8.46632L76.2905 2.86443C76.5719 2.4229 76.296 2.03656 75.9373 1.99793L74.1297 1.78544V0.400146H81.9752C82.4167 0.400146 82.6954 0.700938 82.8775 0.960335L87.4584 7.96684C87.8171 8.52703 88.0986 8.96579 88.5594 9.0265L89.9999 9.18656V10.5884H81.1749V9.20588L82.2953 9.06514C82.8361 9.00443 83.2749 8.76435 82.8361 8.10481L82.4167 7.4646H76.1525L75.6723 8.24555C75.3715 8.72571 75.6723 9.00443 76.1332 9.06514L77.2536 9.20588V10.5884H70.73" fill="#DE1C21"/>
<path d="M63.3232 8.62636H60.7209V2.34286H63.3232C65.804 2.34286 66.8444 2.92236 66.8444 5.48323C66.8444 8.04409 65.804 8.62636 63.3232 8.62636ZM64.8851 0.402893H54.7934V1.78267L56.0546 1.91237C56.5292 1.98136 56.7196 2.32354 56.7196 2.78163V8.26485C56.7196 8.64567 56.5595 9.00441 56.1401 9.06512L54.7852 9.24174V10.5829L64.8851 10.5884C69.5294 10.5884 71.5301 8.32832 71.5301 5.34525C71.5301 2.66297 69.5294 0.402893 64.8851 0.402893Z" fill="#DE1C21"/>
<path d="M-0.000170136 10.5856H8.16534V9.22519L6.76625 9.06514C6.44614 9.0265 6.12603 8.82506 6.12603 8.14345V6.50151H12.4095V8.06342C12.4095 8.52426 12.3295 8.96303 11.7886 9.02374L10.3675 9.1838V10.5856H18.533V9.1838L17.0925 9.02374C16.8138 8.98511 16.4909 8.76435 16.4909 8.18208V2.88098C16.4909 2.34011 16.6924 1.98137 17.1118 1.93998L18.533 1.77992V0.400146H10.3675V1.76061L11.7886 1.93998C12.2688 2.00069 12.4095 2.3815 12.4095 2.88098V4.46221H6.12603V2.86167C6.12603 2.26008 6.36611 1.98137 6.78557 1.93998L8.16534 1.77992V0.400146H0.0191467V1.77992L1.37961 1.93998C1.92048 2.00069 2.05846 2.40082 2.03914 2.91962V8.08274C2.03914 8.66224 1.87908 9.00443 1.35753 9.06238L-0.00292969 9.22243V10.5829" fill="#DE1C21"/>
<path d="M27.2587 1.96204C24.9379 1.96204 23.6161 2.82302 23.6161 5.46391C23.6161 8.1048 24.9379 9.00442 27.2587 9.00442C29.5795 9.00442 30.9013 8.14344 30.9013 5.46391C30.9013 2.78439 29.5795 1.96204 27.2587 1.96204ZM18.9331 5.4446C18.9331 2.24352 21.5133 0 27.278 0C33.0427 0 35.5842 2.24352 35.5842 5.4446C35.5842 8.64568 33.0013 10.9471 27.278 10.9471C21.5547 10.9471 18.9331 8.7257 18.9331 5.4446Z" fill="#DE1C21"/>
<path d="M36.0368 10.5857H42.5603V9.2252L41.1585 9.06515C40.7584 9.02652 40.5183 8.68985 40.5183 8.22349V3.04381L45.9408 10.1883C46.1202 10.4284 46.4596 10.5884 46.7825 10.5884H51.9042V2.86168C51.9042 2.50018 52.0008 2.00346 52.5251 1.93999L53.9463 1.77994V0.400159H47.4227V1.76062L48.8438 1.93999C49.3461 2.0007 49.4647 2.42015 49.4647 2.90031V7.94201L44.0809 0.838928C43.8822 0.57953 43.62 0.3974 43.2392 0.3974H36.034V1.77718L37.3945 1.93723C37.8746 2.00898 38.054 2.25182 38.054 2.91687V8.07999C38.054 8.69261 37.8884 8.98512 37.3724 9.05963L36.0312 9.21969V10.5801" fill="#DE1C21"/>
<path d="M27.0186 28.5696H31.2793V29.5824H25.8789V21.4279H31.1083V22.4296H27.0186V24.8718H30.8654V25.8515H27.0186V28.5696Z" fill="black"/>
<path d="M33.3741 24.124C33.3906 24.262 33.4017 24.4165 33.4099 24.5904C33.4182 24.7614 33.421 24.9077 33.421 25.0208H33.4541C33.5231 24.8746 33.6169 24.7394 33.7356 24.6124C33.8542 24.4855 33.9894 24.3751 34.144 24.2785C34.2985 24.1819 34.4668 24.1074 34.6517 24.055C34.8366 23.9998 35.027 23.975 35.2285 23.975C35.5817 23.975 35.8853 24.0357 36.1391 24.1543C36.393 24.273 36.6027 24.4331 36.7711 24.6318C36.9394 24.8304 37.0636 25.065 37.1464 25.3327C37.2264 25.6031 37.2678 25.8901 37.2678 26.1964V29.5824H36.186V26.5524C36.186 26.3289 36.1695 26.1191 36.1336 25.9205C36.1005 25.7218 36.037 25.5452 35.9432 25.3906C35.8521 25.2361 35.7252 25.1147 35.5624 25.0236C35.4023 24.9325 35.1954 24.8856 34.9415 24.8856C34.511 24.8856 34.1605 25.0484 33.8873 25.3768C33.6141 25.7025 33.4789 26.1385 33.4789 26.6849V29.5879H32.3972V25.3051C32.3972 25.1588 32.3944 24.9712 32.3861 24.7394C32.3779 24.5103 32.3668 24.3061 32.353 24.1295H33.3768L33.3741 24.124Z" fill="black"/>
<path d="M39.1799 30.5151C39.4172 30.7828 39.7152 30.998 40.0712 31.1608C40.4272 31.3209 40.7942 31.4037 41.1695 31.4037C41.5448 31.4037 41.8346 31.3513 42.0802 31.2464C42.3258 31.1443 42.5245 31.0008 42.6735 30.8214C42.8225 30.6421 42.9301 30.4268 42.9963 30.1812C43.0626 29.9356 43.0957 29.6707 43.0957 29.3865V28.6855H43.0736C42.8749 28.9918 42.6017 29.2264 42.2568 29.3865C41.9118 29.5493 41.5421 29.6293 41.1502 29.6293C40.7363 29.6293 40.3582 29.5575 40.016 29.4113C39.6738 29.265 39.3841 29.0663 39.1468 28.8125C38.9094 28.5586 38.7246 28.2633 38.5949 27.9211C38.4652 27.579 38.3989 27.2119 38.3989 26.8201C38.3989 26.4282 38.4652 26.0584 38.5949 25.7135C38.7246 25.3685 38.9094 25.0678 39.1468 24.8084C39.3841 24.549 39.6738 24.3475 40.0105 24.1985C40.3472 24.0495 40.7252 23.975 41.1392 23.975C41.531 23.975 41.9063 24.0605 42.2623 24.2289C42.6183 24.3972 42.9025 24.6566 43.1095 25.0015H43.1316V24.1268H44.1802V29.3092C44.1802 29.7093 44.1305 30.0901 44.0312 30.4544C43.9318 30.8187 43.7635 31.1415 43.5234 31.4202C43.2833 31.699 42.9743 31.9252 42.5907 32.0936C42.2071 32.2619 41.7297 32.3475 41.164 32.3475C40.6866 32.3475 40.2092 32.2619 39.729 32.0881C39.2489 31.9142 38.8377 31.6714 38.49 31.3568L39.1799 30.5151ZM39.5027 26.7952C39.5027 27.0491 39.5441 27.292 39.6242 27.521C39.7042 27.7528 39.8256 27.9542 39.9829 28.1309C40.1402 28.3075 40.3306 28.4482 40.5541 28.5558C40.7777 28.6635 41.0315 28.7159 41.3158 28.7159C41.6 28.7159 41.8484 28.6662 42.0774 28.5669C42.3092 28.4675 42.5051 28.3295 42.668 28.1585C42.828 27.9846 42.9549 27.7832 43.0433 27.5486C43.1316 27.314 43.1757 27.0629 43.1757 26.7952C43.1757 26.5276 43.1316 26.2875 43.0433 26.0584C42.9549 25.8294 42.828 25.6252 42.6624 25.4486C42.4969 25.272 42.3009 25.1312 42.0746 25.0291C41.8484 24.927 41.5945 24.8746 41.3185 24.8746C41.0426 24.8746 40.7804 24.927 40.5569 25.0291C40.3334 25.134 40.143 25.272 39.9857 25.4431C39.8284 25.6141 39.7097 25.8184 39.6269 26.0529C39.5469 26.2875 39.5055 26.5358 39.5055 26.7952H39.5027Z" fill="black"/>
<path d="M46.9509 22.1537C46.9509 22.3524 46.8792 22.5179 46.7384 22.6504C46.5977 22.7829 46.4294 22.8463 46.2307 22.8463C46.032 22.8463 45.8664 22.7801 45.7285 22.6449C45.5905 22.5097 45.5215 22.3469 45.5215 22.1537C45.5215 21.9605 45.5905 21.7867 45.7285 21.6542C45.8664 21.5217 46.032 21.4528 46.2307 21.4528C46.4294 21.4528 46.5977 21.519 46.7384 21.6542C46.8792 21.7894 46.9509 21.955 46.9509 22.1537ZM46.7771 29.5824H45.6953V24.124H46.7771V29.5824Z" fill="black"/>
<path d="M49.3023 24.124C49.3188 24.262 49.3299 24.4165 49.3382 24.5904C49.3464 24.7614 49.3492 24.9077 49.3492 25.0208H49.3823C49.4513 24.8746 49.5451 24.7394 49.6638 24.6124C49.7824 24.4855 49.9177 24.3751 50.0722 24.2785C50.2267 24.1819 50.3951 24.1074 50.58 24.055C50.7648 23.9998 50.9553 23.975 51.1567 23.975C51.5099 23.975 51.8135 24.0357 52.0674 24.1543C52.3212 24.273 52.531 24.4331 52.6993 24.6318C52.8676 24.8304 52.9918 25.065 53.0746 25.3327C53.1546 25.6031 53.196 25.8901 53.196 26.1964V29.5824H52.1143V26.5524C52.1143 26.3289 52.0977 26.1191 52.0618 25.9205C52.0287 25.7218 51.9652 25.5452 51.8714 25.3906C51.7804 25.2361 51.6534 25.1147 51.4906 25.0236C51.3306 24.9325 51.1236 24.8856 50.8697 24.8856C50.4392 24.8856 50.0888 25.0484 49.8156 25.3768C49.5424 25.7025 49.4071 26.1385 49.4071 26.6849V29.5879H48.3254V25.3051C48.3254 25.1588 48.3226 24.9712 48.3144 24.7394C48.3061 24.5103 48.295 24.3061 48.2812 24.1295H49.305L49.3023 24.124Z" fill="black"/>
<path d="M59.7803 26.8063V26.9912C59.7803 27.0519 59.7776 27.1126 59.7693 27.1761H55.4285C55.4368 27.4051 55.4892 27.6204 55.583 27.8218C55.6796 28.0233 55.8066 28.1999 55.9694 28.3489C56.1294 28.4979 56.3171 28.6138 56.5268 28.6966C56.7393 28.7794 56.9628 28.8235 57.2001 28.8235C57.5699 28.8235 57.8873 28.7435 58.1549 28.5807C58.4226 28.4179 58.6351 28.2247 58.7869 27.9929L59.5458 28.6028C59.2532 28.9891 58.9111 29.2761 58.5137 29.4582C58.1163 29.6404 57.6803 29.7314 57.1946 29.7314C56.7807 29.7314 56.3971 29.6624 56.0439 29.5245C55.6907 29.3865 55.3871 29.1933 55.1332 28.9422C54.8794 28.6911 54.6807 28.3903 54.5344 28.0371C54.3882 27.6838 54.3164 27.292 54.3164 26.8615C54.3164 26.431 54.3882 26.0502 54.5289 25.6914C54.6696 25.3327 54.8683 25.0291 55.1222 24.7753C55.3761 24.5214 55.6769 24.3227 56.0218 24.182C56.3668 24.0412 56.7421 23.9695 57.1422 23.9695C57.5423 23.9695 57.9066 24.0357 58.2322 24.1654C58.5578 24.2951 58.8365 24.4828 59.0628 24.7284C59.2891 24.974 59.4657 25.272 59.5871 25.6197C59.7086 25.9674 59.772 26.362 59.772 26.8008L59.7803 26.8063ZM58.6737 26.3703C58.6655 26.155 58.6296 25.9536 58.5634 25.766C58.4971 25.5783 58.4033 25.4155 58.2764 25.2747C58.1494 25.1368 57.9921 25.0264 57.8045 24.9464C57.6168 24.8663 57.3961 24.8249 57.1422 24.8249C56.9104 24.8249 56.6951 24.8663 56.4909 24.9464C56.2867 25.0264 56.1101 25.1368 55.9611 25.2747C55.8121 25.4127 55.6879 25.5755 55.5913 25.766C55.4947 25.9536 55.4395 26.155 55.4257 26.3703H58.6737Z" fill="black"/>
<path d="M63.8811 25.5066C63.7569 25.3079 63.5858 25.1451 63.3623 25.0181C63.1387 24.8912 62.8904 24.8277 62.6144 24.8277C62.493 24.8277 62.3688 24.8415 62.2474 24.8691C62.1232 24.8967 62.0156 24.9381 61.919 24.996C61.8224 25.054 61.7452 25.1257 61.69 25.214C61.632 25.3023 61.6044 25.4127 61.6044 25.5424C61.6044 25.7742 61.7093 25.9426 61.9163 26.0557C62.1232 26.1661 62.4351 26.2682 62.849 26.362C63.1084 26.4227 63.3512 26.4972 63.5748 26.58C63.7983 26.6656 63.9914 26.7704 64.157 26.8974C64.3226 27.0243 64.4495 27.1761 64.5434 27.3527C64.6344 27.5293 64.6813 27.7363 64.6813 27.9736C64.6813 28.2965 64.6206 28.5697 64.4964 28.7904C64.3723 29.0112 64.2095 29.1961 64.008 29.3368C63.8038 29.4775 63.572 29.5796 63.3098 29.6431C63.0504 29.7038 62.78 29.7342 62.504 29.7342C62.0901 29.7342 61.6845 29.6542 61.2898 29.4913C60.8952 29.3313 60.5668 29.0857 60.3047 28.7545L61.0774 28.0978C61.2236 28.313 61.4251 28.4924 61.6817 28.6386C61.9383 28.7849 62.2198 28.8566 62.5289 28.8566C62.6669 28.8566 62.7993 28.8428 62.9263 28.8153C63.0532 28.7877 63.1691 28.7463 63.2712 28.6828C63.3761 28.6221 63.4561 28.5421 63.5196 28.44C63.583 28.3379 63.6106 28.2137 63.6106 28.0591C63.6106 27.8053 63.4892 27.6176 63.2491 27.4934C63.0063 27.372 62.6531 27.2561 62.1839 27.1485C61.9991 27.1016 61.8142 27.0464 61.6265 26.9802C61.4389 26.9167 61.2678 26.8256 61.1132 26.7097C60.9587 26.5938 60.8345 26.4503 60.7379 26.2792C60.6414 26.1054 60.5944 25.8929 60.5944 25.639C60.5944 25.3465 60.6551 25.0954 60.7738 24.8857C60.8925 24.6732 61.047 24.5021 61.2402 24.3669C61.4333 24.2316 61.6513 24.1323 61.8969 24.0661C62.1425 24.0026 62.3964 23.9695 62.6558 23.9695C63.0477 23.9695 63.4257 24.0467 63.79 24.2013C64.1543 24.3558 64.4357 24.5766 64.6372 24.8691L63.8893 25.501L63.8811 25.5066Z" fill="black"/>
</g>
<defs>
<clipPath id="clip0_485_475">
<rect width="90" height="32.3475" fill="white"/>
</clipPath>
</defs>
</svg>
