<svg width="91" height="34" viewBox="0 0 91 34" fill="none" xmlns="http://www.w3.org/2000/svg">
<g clip-path="url(#clip0_13821_23520)">
<path d="M77.9194 6.37379H81.8821L79.8814 3.23066L77.9194 6.37379ZM71.3765 11.2968V9.93085L72.7562 9.77356C73.2364 9.71285 73.4378 9.27684 73.4958 9.1775L76.937 3.57561C77.2184 3.13408 76.9425 2.74774 76.5837 2.70911L74.7762 2.49662V1.11133H82.6216C83.0632 1.11133 83.3419 1.41212 83.524 1.67152L88.1049 8.67802C88.4636 9.23821 88.7451 9.67698 89.2059 9.73769L90.6464 9.89774V11.2996H81.8214V9.91706L82.9417 9.77632C83.4826 9.71561 83.9214 9.47553 83.4826 8.816L83.0632 8.17578H76.799L76.3188 8.95673C76.018 9.4369 76.3188 9.71561 76.7797 9.77632L77.9 9.91706V11.2996H71.3765" fill="#949494"/>
<path d="M63.9699 9.33674H61.3677V3.05325H63.9699C66.4508 3.05325 67.4911 3.63275 67.4911 6.19361C67.4911 8.75448 66.4508 9.33674 63.9699 9.33674ZM65.5318 1.11328H55.4402V2.49306L56.7013 2.62276C57.1759 2.69174 57.3663 3.03393 57.3663 3.49201V8.97524C57.3663 9.35606 57.2063 9.7148 56.7868 9.77551L55.4319 9.95212V11.2933L65.5318 11.2988C70.1762 11.2988 72.1768 9.03871 72.1768 6.05564C72.1768 3.37335 70.1762 1.11328 65.5318 1.11328Z" fill="#949494"/>
<path d="M0.646558 11.2968H8.81207V9.93637L7.41298 9.77632C7.09287 9.73768 6.77276 9.53624 6.77276 8.85463V7.2127H13.0563V8.7746C13.0563 9.23545 12.9762 9.67422 12.4354 9.73493L11.0142 9.89498V11.2968H19.1797V9.89498L17.7392 9.73493C17.4605 9.69629 17.1376 9.47553 17.1376 8.89326V3.59216C17.1376 3.05129 17.3391 2.69255 17.7585 2.65116L19.1797 2.4911V1.11133H11.0142V2.47179L12.4354 2.65116C12.9155 2.71187 13.0563 3.09269 13.0563 3.59216V5.17339H6.77276V3.57285C6.77276 2.97127 7.01284 2.69255 7.43229 2.65116L8.81207 2.4911V1.11133H0.665875V2.4911L2.02633 2.65116C2.56721 2.71187 2.70518 3.112 2.68587 3.6308V8.79392C2.68587 9.37342 2.52581 9.71561 2.00426 9.77356L0.643799 9.93361V11.2941" fill="#949494"/>
<path d="M27.9054 2.67298C25.5846 2.67298 24.2628 3.53396 24.2628 6.17485C24.2628 8.81574 25.5846 9.71535 27.9054 9.71535C30.2262 9.71535 31.548 8.85437 31.548 6.17485C31.548 3.49532 30.2262 2.67298 27.9054 2.67298ZM19.5798 6.15553C19.5798 2.95445 22.16 0.710938 27.9247 0.710938C33.6894 0.710938 36.231 2.95445 36.231 6.15553C36.231 9.35661 33.648 11.6581 27.9247 11.6581C22.2014 11.6581 19.5798 9.43664 19.5798 6.15553Z" fill="#949494"/>
<path d="M36.6835 11.2957H43.2071V9.93523L41.8052 9.77517C41.4051 9.73654 41.165 9.39987 41.165 8.93351V3.75383L46.5875 10.8983C46.7669 11.1384 47.1063 11.2984 47.4292 11.2984H52.5509V3.5717C52.5509 3.2102 52.6475 2.71348 53.1718 2.65001L54.593 2.48996V1.11018H48.0694V2.47064L49.4906 2.65001C49.9928 2.71072 50.1115 3.13017 50.1115 3.61033V8.65204L44.7276 1.54895C44.5289 1.28955 44.2667 1.10742 43.8859 1.10742H36.6807V2.4872L38.0412 2.64725C38.5214 2.719 38.7007 2.96184 38.7007 3.62689V8.79001C38.7007 9.40263 38.5352 9.69515 38.0191 9.76965L36.678 9.92971V11.2902" fill="#949494"/>
<path d="M27.6653 29.2804H31.9261V30.2931H26.5256V22.1387H31.755V23.1404H27.6653V25.5826H31.5121V26.5622H27.6653V29.2804Z" fill="#949494"/>
<path d="M34.0205 24.8346C34.0371 24.9725 34.0481 25.1271 34.0564 25.3009C34.0647 25.472 34.0675 25.6183 34.0675 25.7314H34.1006C34.1696 25.5852 34.2634 25.4499 34.382 25.323C34.5007 25.1961 34.6359 25.0857 34.7905 24.9891C34.945 24.8925 35.1133 24.818 35.2982 24.7656C35.4831 24.7104 35.6735 24.6855 35.875 24.6855C36.2282 24.6855 36.5317 24.7463 36.7856 24.8649C37.0395 24.9836 37.2492 25.1436 37.4176 25.3423C37.5859 25.541 37.7101 25.7756 37.7929 26.0432C37.8729 26.3137 37.9143 26.6007 37.9143 26.907V30.293H36.8325V27.263C36.8325 27.0394 36.816 26.8297 36.7801 26.631C36.747 26.4323 36.6835 26.2557 36.5897 26.1012C36.4986 25.9467 36.3717 25.8252 36.2089 25.7342C36.0488 25.6431 35.8419 25.5962 35.588 25.5962C35.1575 25.5962 34.807 25.759 34.5338 26.0874C34.2606 26.413 34.1254 26.849 34.1254 27.3954V30.2985H33.0437V26.0157C33.0437 25.8694 33.0409 25.6817 33.0326 25.4499C33.0243 25.2209 33.0133 25.0167 32.9995 24.8401H34.0233L34.0205 24.8346Z" fill="#949494"/>
<path d="M39.8266 31.2257C40.0639 31.4934 40.362 31.7086 40.7179 31.8714C41.0739 32.0315 41.4409 32.1143 41.8162 32.1143C42.1915 32.1143 42.4813 32.0618 42.7269 31.957C42.9725 31.8549 43.1712 31.7114 43.3202 31.532C43.4692 31.3526 43.5768 31.1374 43.6431 30.8918C43.7093 30.6462 43.7424 30.3813 43.7424 30.097V29.3961H43.7203C43.5216 29.7024 43.2485 29.937 42.9035 30.097C42.5586 30.2598 42.1888 30.3399 41.7969 30.3399C41.383 30.3399 41.0049 30.2681 40.6628 30.1219C40.3206 29.9756 40.0308 29.7769 39.7935 29.523C39.5562 29.2692 39.3713 28.9739 39.2416 28.6317C39.1119 28.2895 39.0457 27.9225 39.0457 27.5306C39.0457 27.1388 39.1119 26.769 39.2416 26.4241C39.3713 26.0791 39.5562 25.7783 39.7935 25.5189C40.0308 25.2595 40.3206 25.0581 40.6572 24.9091C40.9939 24.7601 41.372 24.6855 41.7859 24.6855C42.1777 24.6855 42.553 24.7711 42.909 24.9394C43.265 25.1078 43.5492 25.3672 43.7562 25.7121H43.7783V24.8373H44.8269V30.0198C44.8269 30.4199 44.7772 30.8007 44.6779 31.165C44.5786 31.5292 44.4102 31.8521 44.1701 32.1308C43.9301 32.4095 43.621 32.6358 43.2374 32.8041C42.8538 32.9725 42.3764 33.058 41.8107 33.058C41.3333 33.058 40.8559 32.9725 40.3758 32.7986C39.8956 32.6248 39.4844 32.3819 39.1367 32.0673L39.8266 31.2257ZM40.1495 27.5058C40.1495 27.7597 40.1909 28.0025 40.2709 28.2316C40.3509 28.4634 40.4723 28.6648 40.6296 28.8414C40.7869 29.018 40.9773 29.1588 41.2009 29.2664C41.4244 29.374 41.6783 29.4265 41.9625 29.4265C42.2467 29.4265 42.4951 29.3768 42.7241 29.2774C42.9559 29.1781 43.1519 29.0401 43.3147 28.869C43.4747 28.6952 43.6017 28.4937 43.69 28.2592C43.7783 28.0246 43.8224 27.7735 43.8224 27.5058C43.8224 27.2381 43.7783 26.9981 43.69 26.769C43.6017 26.54 43.4747 26.3358 43.3092 26.1591C43.1436 25.9825 42.9477 25.8418 42.7214 25.7397C42.4951 25.6376 42.2412 25.5852 41.9653 25.5852C41.6893 25.5852 41.4271 25.6376 41.2036 25.7397C40.9801 25.8446 40.7897 25.9825 40.6324 26.1536C40.4751 26.3247 40.3564 26.5289 40.2737 26.7635C40.1936 26.9981 40.1522 27.2464 40.1522 27.5058H40.1495Z" fill="#949494"/>
<path d="M47.5974 22.865C47.5974 23.0637 47.5257 23.2293 47.3849 23.3617C47.2442 23.4942 47.0759 23.5576 46.8772 23.5576C46.6785 23.5576 46.5129 23.4914 46.3749 23.3562C46.237 23.221 46.168 23.0582 46.168 22.865C46.168 22.6718 46.237 22.498 46.3749 22.3655C46.5129 22.2331 46.6785 22.1641 46.8772 22.1641C47.0759 22.1641 47.2442 22.2303 47.3849 22.3655C47.5257 22.5007 47.5974 22.6663 47.5974 22.865ZM47.4236 30.2937H46.3418V24.8353H47.4236V30.2937Z" fill="#949494"/>
<path d="M49.9485 24.8346C49.9651 24.9725 49.9761 25.1271 49.9844 25.3009C49.9927 25.472 49.9954 25.6183 49.9954 25.7314H50.0285C50.0975 25.5852 50.1914 25.4499 50.31 25.323C50.4287 25.1961 50.5639 25.0857 50.7184 24.9891C50.873 24.8925 51.0413 24.818 51.2262 24.7656C51.4111 24.7104 51.6015 24.6855 51.8029 24.6855C52.1562 24.6855 52.4597 24.7463 52.7136 24.8649C52.9675 24.9836 53.1772 25.1436 53.3455 25.3423C53.5139 25.541 53.638 25.7756 53.7208 26.0432C53.8009 26.3137 53.8422 26.6007 53.8422 26.907V30.293H52.7605V27.263C52.7605 27.0394 52.7439 26.8297 52.7081 26.631C52.675 26.4323 52.6115 26.2557 52.5177 26.1012C52.4266 25.9467 52.2997 25.8252 52.1368 25.7342C51.9768 25.6431 51.7698 25.5962 51.5159 25.5962C51.0855 25.5962 50.735 25.759 50.4618 26.0874C50.1886 26.413 50.0534 26.849 50.0534 27.3954V30.2985H48.9716V26.0157C48.9716 25.8694 48.9689 25.6817 48.9606 25.4499C48.9523 25.2209 48.9413 25.0167 48.9275 24.8401H49.9513L49.9485 24.8346Z" fill="#949494"/>
<path d="M60.4266 27.5165V27.7014C60.4266 27.7621 60.4238 27.8228 60.4155 27.8863H56.0747C56.083 28.1153 56.1355 28.3306 56.2293 28.532C56.3259 28.7335 56.4528 28.9101 56.6156 29.0591C56.7757 29.2081 56.9633 29.324 57.173 29.4068C57.3855 29.4896 57.6091 29.5337 57.8464 29.5337C58.2162 29.5337 58.5335 29.4537 58.8012 29.2909C59.0689 29.1281 59.2813 28.9349 59.4331 28.7031L60.192 29.313C59.8995 29.6993 59.5573 29.9863 59.1599 30.1684C58.7625 30.3506 58.3265 30.4416 57.8409 30.4416C57.4269 30.4416 57.0433 30.3726 56.6901 30.2347C56.3369 30.0967 56.0333 29.9035 55.7795 29.6524C55.5256 29.4013 55.3269 29.1005 55.1806 28.7473C55.0344 28.394 54.9626 28.0022 54.9626 27.5717C54.9626 27.1412 55.0344 26.7604 55.1751 26.4016C55.3159 26.0429 55.5146 25.7394 55.7684 25.4855C56.0223 25.2316 56.3231 25.0329 56.668 24.8922C57.013 24.7514 57.3883 24.6797 57.7884 24.6797C58.1886 24.6797 58.5528 24.7459 58.8784 24.8756C59.2041 25.0053 59.4828 25.193 59.7091 25.4386C59.9354 25.6842 60.112 25.9822 60.2334 26.3299C60.3548 26.6776 60.4183 27.0722 60.4183 27.511L60.4266 27.5165ZM59.32 27.0805C59.3117 26.8653 59.2758 26.6638 59.2096 26.4762C59.1434 26.2885 59.0495 26.1257 58.9226 25.985C58.7957 25.847 58.6384 25.7366 58.4507 25.6566C58.2631 25.5765 58.0423 25.5351 57.7884 25.5351C57.5566 25.5351 57.3414 25.5765 57.1372 25.6566C56.933 25.7366 56.7564 25.847 56.6073 25.985C56.4583 26.1229 56.3341 26.2857 56.2376 26.4762C56.141 26.6638 56.0858 26.8653 56.072 27.0805H59.32Z" fill="#949494"/>
<path d="M64.5273 26.2168C64.4031 26.0181 64.232 25.8553 64.0085 25.7283C63.785 25.6014 63.5366 25.5379 63.2607 25.5379C63.1393 25.5379 63.0151 25.5517 62.8937 25.5793C62.7695 25.6069 62.6619 25.6483 62.5653 25.7062C62.4687 25.7642 62.3914 25.8359 62.3362 25.9242C62.2783 26.0126 62.2507 26.1229 62.2507 26.2526C62.2507 26.4844 62.3555 26.6528 62.5625 26.7659C62.7695 26.8763 63.0813 26.9784 63.4952 27.0722C63.7546 27.1329 63.9975 27.2074 64.221 27.2902C64.4445 27.3758 64.6377 27.4806 64.8033 27.6076C64.9688 27.7345 65.0958 27.8863 65.1896 28.0629C65.2807 28.2395 65.3276 28.4465 65.3276 28.6838C65.3276 29.0067 65.2669 29.2799 65.1427 29.5006C65.0185 29.7214 64.8557 29.9063 64.6542 30.047C64.45 30.1878 64.2182 30.2899 63.9561 30.3533C63.6967 30.414 63.4262 30.4444 63.1503 30.4444C62.7364 30.4444 62.3307 30.3644 61.9361 30.2016C61.5415 30.0415 61.2131 29.7959 60.9509 29.4647L61.7236 28.808C61.8699 29.0232 62.0713 29.2026 62.3279 29.3488C62.5846 29.4951 62.8661 29.5669 63.1751 29.5669C63.3131 29.5669 63.4456 29.5531 63.5725 29.5255C63.6994 29.4979 63.8153 29.4565 63.9174 29.393C64.0223 29.3323 64.1023 29.2523 64.1658 29.1502C64.2293 29.0481 64.2569 28.9239 64.2569 28.7693C64.2569 28.5155 64.1354 28.3278 63.8954 28.2036C63.6525 28.0822 63.2993 27.9663 62.8302 27.8587C62.6453 27.8118 62.4604 27.7566 62.2728 27.6904C62.0851 27.6269 61.914 27.5358 61.7595 27.4199C61.6049 27.304 61.4808 27.1605 61.3842 26.9894C61.2876 26.8156 61.2407 26.6031 61.2407 26.3492C61.2407 26.0567 61.3014 25.8056 61.4201 25.5959C61.5387 25.3834 61.6932 25.2123 61.8864 25.0771C62.0796 24.9418 62.2976 24.8425 62.5432 24.7763C62.7888 24.7128 63.0427 24.6797 63.3021 24.6797C63.6939 24.6797 64.072 24.757 64.4362 24.9115C64.8005 25.066 65.082 25.2868 65.2834 25.5793L64.5356 26.2112L64.5273 26.2168Z" fill="#949494"/>
</g>
<defs>
<clipPath id="clip0_13821_23520">
<rect width="90" height="32.3475" fill="white" transform="translate(0.646484 0.710938)"/>
</clipPath>
</defs>
</svg>
