<svg width="91" height="85" viewBox="0 0 91 85" fill="none" xmlns="http://www.w3.org/2000/svg">
<rect width="91" height="85" fill="#DE1C21"/>
<path d="M30.54 57.888L26.979 54.5481L44.97 52.4316L53.67 57.888H30.54Z" fill="white"/>
<path d="M60.859 43.5825L22.959 50.7766L26.254 53.8682L43.705 51.639C43.6042 51.5981 43.5184 51.5276 43.4592 51.4371C43.4001 51.3466 43.3703 51.2403 43.374 51.1326C43.3785 51.0143 43.4258 50.9015 43.5073 50.8147C43.5888 50.728 43.699 50.673 43.818 50.6599C44.009 50.6361 53.518 49.2199 54.168 49.1219C54.8466 49.0213 55.5054 48.8174 56.121 48.5177C56.7234 48.2246 57.2785 47.8446 57.768 47.3902C57.994 47.1825 58.761 46.3952 59.254 45.8394C59.603 45.4438 59.854 45.154 60.064 44.9058C60.291 44.6388 60.78 44.0414 60.975 43.7724C60.9906 43.7536 60.9999 43.7304 61.0016 43.7062C61.0034 43.6819 60.9975 43.6577 60.9848 43.6369C60.9721 43.6161 60.9532 43.5997 60.9306 43.5899C60.9081 43.5802 60.8831 43.5776 60.859 43.5825Z" fill="white"/>
<path d="M66.7919 35.1718L19.4729 47.5078L22.3209 50.1781L36.8819 47.3594C36.6239 47.2091 36.4979 47.0944 36.4979 46.8422C36.4976 46.728 36.5373 46.6173 36.6103 46.5288C36.6832 46.4402 36.7848 46.3794 36.8979 46.3566L60.5889 41.7082C61.282 41.5695 61.9441 41.3078 62.5429 40.9358C63.0792 40.5984 63.5581 40.1791 63.9619 39.6936C64.2749 39.3376 64.8309 38.6057 65.2429 38.0499C65.5519 37.6295 65.8089 37.224 66.0149 36.9234C66.2209 36.6227 66.7379 35.7662 66.9519 35.3805C66.9667 35.3567 66.974 35.3291 66.9727 35.3011C66.9714 35.2732 66.9617 35.2463 66.9448 35.2239C66.9278 35.2015 66.9045 35.1847 66.8778 35.1756C66.8511 35.1665 66.8222 35.1655 66.7949 35.1728" fill="white"/>
<path d="M68.581 17.6441C69.434 17.2544 71.925 16.0696 72.299 15.8886C74.049 15.0401 76.213 13.9947 76.655 13.7543C76.6866 13.739 76.7221 13.7332 76.757 13.7379C76.7919 13.7426 76.8246 13.7575 76.8509 13.7806C76.8772 13.8038 76.8959 13.8341 76.9046 13.8679C76.9134 13.9016 76.9118 13.9371 76.9 13.9699C76.5278 15.1722 76.0939 16.355 75.6 17.5136C75.2544 18.3602 74.8584 19.1858 74.414 19.9861C74.0203 20.6545 73.5294 21.2619 72.957 21.7891C72.2764 22.4416 71.4765 22.9602 70.6 23.3171C70.1 23.5149 69.119 23.9105 68.465 24.1617C68.305 24.224 65.665 25.2259 65.127 25.4019L18.436 42.0885C17.344 42.4713 16.069 43.212 16.069 44.6441C16.1475 45.4633 16.5439 46.2205 17.175 46.7566L28.964 57.889H23.5C23.3795 57.5035 23.2207 57.1308 23.026 56.7763C22.7893 56.3215 22.4793 55.908 22.108 55.5519C21.642 55.0782 21.169 54.5876 21.008 54.4215L14.781 48.1175C13.6884 47.053 13.0508 45.6142 13 44.0982C13 42.2013 14.037 40.3934 17.132 39.1086C17.132 39.1076 67.811 17.9952 68.581 17.6441Z" fill="white"/>
<path d="M70.93 25.3275C71.467 25.1445 71.73 25.0081 71.877 25.1079C72.024 25.2078 71.669 25.7538 71.184 26.6736C70.736 27.5854 67.965 33.0032 65.514 33.5966L30.114 43.196C30.197 43.1119 30.3 42.8379 30.114 43.196C30.1881 43.3263 30.227 43.4732 30.227 43.6227C30.227 43.7722 30.1881 43.9192 30.114 44.0495L18.867 47.0047C17.129 45.7011 16.968 44.8961 17.204 44.2997C17.44 43.7033 17.546 43.459 18.687 43.0911L70.93 25.3275Z" fill="white"/>
<path d="M33.1649 67.6595C31.4207 67.797 29.6821 67.3337 28.2439 66.3481C27.8436 66.0147 27.5239 65.5968 27.3084 65.1251C27.0929 64.6533 26.9872 64.1398 26.9989 63.6224C26.9873 63.105 27.0932 62.5917 27.3086 62.1202C27.5241 61.6487 27.8437 61.2309 28.2439 60.8976C29.6822 59.9121 31.4207 59.4488 33.1649 59.5862C34.9091 59.4488 36.6477 59.9121 38.0859 60.8976C38.4862 61.2309 38.8058 61.6487 39.0212 62.1202C39.2367 62.5917 39.3425 63.105 39.3309 63.6224C39.3425 64.1397 39.2367 64.653 39.0212 65.1245C38.8058 65.5961 38.4862 66.0138 38.0859 66.3471C36.6479 67.3331 34.9092 67.7967 33.1649 67.6595ZM33.1649 61.0252C31.2789 61.0252 30.4739 61.8016 30.4739 63.6224C30.4739 65.4431 31.2739 66.2195 33.1649 66.2195C35.0559 66.2195 35.8559 65.4431 35.8559 63.6224C35.8559 61.8016 35.0509 61.0252 33.1649 61.0252Z" fill="white"/>
<path d="M20.831 60.9712L21.861 61.0929C22.323 61.1463 22.373 61.533 22.373 61.7852V63.0086H17.626V61.7822C17.626 61.533 17.676 61.1453 18.138 61.0899L19.168 60.9682V59.9219H13V60.9712L14.031 61.0929C14.492 61.1463 14.543 61.533 14.543 61.7852V65.7996C14.543 66.0478 14.493 66.4375 14.031 66.4919L13 66.6096V67.6589H19.167V66.6096L18.137 66.4889C17.675 66.4365 17.625 66.0478 17.625 65.7966V64.5702H22.373V65.7966C22.373 66.0448 22.322 66.4345 21.861 66.4889L20.831 66.6096V67.6589H27V66.6096L25.969 66.4889C25.507 66.4365 25.457 66.0478 25.457 65.7966V61.7822C25.457 61.533 25.507 61.1453 25.969 61.0899L27 60.9712V59.9219H20.831V60.9712Z" fill="white"/>
<path d="M60.6641 67.6594H52.9971V66.61L54.0211 66.4894C54.3641 66.4508 54.5301 66.2253 54.5301 65.7971V61.7026C54.5301 61.2081 54.2591 61.1032 53.9941 61.0706L53.0941 60.9717V59.9223H60.6641C61.905 59.8665 63.1343 60.1811 64.1921 60.8253C64.6725 61.155 65.0597 61.6006 65.3172 62.1199C65.5746 62.6391 65.6937 63.2148 65.6631 63.7923C65.6937 64.3699 65.5746 64.9455 65.3172 65.4648C65.0597 65.984 64.6725 66.4297 64.1921 66.7594C63.1339 67.4025 61.9047 67.7161 60.6641 67.6594ZM57.5361 61.4059V66.1778H60.1061C61.5671 66.1778 62.1361 65.5093 62.1361 63.7923C62.1361 62.0754 61.5671 61.4059 60.1061 61.4059H57.5361Z" fill="white"/>
<path d="M69.8481 67.6589H64.9961V66.6106L66.0231 66.4919C66.1399 66.4707 66.2498 66.4215 66.3429 66.3486C66.436 66.2756 66.5095 66.1812 66.5571 66.0735L69.1391 61.7832C69.1842 61.7199 69.2117 61.646 69.2187 61.5689C69.2257 61.4918 69.2121 61.4143 69.1791 61.3441C69.1527 61.2892 69.1136 61.2413 69.0649 61.2042C69.0163 61.167 68.9595 61.1418 68.8991 61.1304L67.5261 60.9712V59.9219H73.2811C73.6501 59.9219 73.8311 60.0376 74.0871 60.4371L77.5871 65.8945L77.6281 65.9598C77.6948 66.1048 77.7977 66.2307 77.9272 66.3255C78.0566 66.4203 78.2084 66.481 78.3681 66.5018L79.3331 66.6106V67.6589H72.7641V66.6106L73.6221 66.5215C73.7186 66.5212 73.8135 66.4976 73.8987 66.4528C73.984 66.408 74.0568 66.3433 74.1111 66.2644C74.1376 66.1903 74.1441 66.1107 74.1301 66.0334C74.1161 65.956 74.082 65.8837 74.0311 65.8233L73.6861 65.2892H69.0291L68.6411 65.9341C68.6049 65.9863 68.5829 66.0468 68.5771 66.1098C68.5713 66.1728 68.582 66.2363 68.6081 66.2941C68.6503 66.3622 68.709 66.4189 68.7788 66.4591C68.8486 66.4993 68.9274 66.5218 69.0081 66.5245L69.8451 66.6115V67.6599L69.8481 67.6589ZM71.2871 61.5369L69.8531 63.9204H72.8131L71.2871 61.5369Z" fill="white"/>
<path d="M47.5951 60.972L48.5851 61.0937C49.0291 61.1471 49.0771 61.5338 49.0771 61.786V65.6589L45.1631 60.252C45.0851 60.1301 44.9724 60.0337 44.839 59.9751C44.7057 59.9164 44.5578 59.8982 44.4141 59.9227H39.3311V60.972L40.3211 61.0937C40.7641 61.1471 40.8131 61.5338 40.8131 61.786V65.8004C40.8131 66.0486 40.7651 66.4383 40.3211 66.4927L39.3311 66.6104V67.6597H44.0661V66.6104L43.0761 66.4897C42.6331 66.4373 42.5841 66.0486 42.5841 65.7974V61.9294L46.4961 67.3314C46.5745 67.4533 46.6876 67.5496 46.8213 67.608C46.9549 67.6664 47.1031 67.6844 47.2471 67.6597H50.8471V61.783C50.8471 61.5338 50.8951 61.1461 51.3391 61.0907L52.3311 60.972V59.9227H47.5951V60.972Z" fill="white"/>
</svg>
