<svg width="62" height="46" viewBox="0 0 62 46" fill="none" xmlns="http://www.w3.org/2000/svg">
<g clip-path="url(#clip0_13821_23497)">
<path d="M9.53337 39.4266C9.53337 39.4266 15.8405 29.1335 17.3565 28.6252L17.3642 28.5542C16.893 28.5201 16.2874 28.6447 15.5699 29.0634C14.3596 29.7663 12.4669 32.399 11.0863 34.4923H7.53549C7.84024 33.9899 10.0961 30.4245 10.0961 30.4245H5.36236L5.16861 30.737C5.16861 30.737 7.83148 30.738 7.90645 30.737C8.07878 30.7331 8.32413 30.8276 8.11675 31.1625C8.11675 31.1625 2.80562 39.6029 1.76092 40.5083C1.46202 40.7673 1.18259 40.9212 0.93042 40.9669V41.0652C1.46105 41.0721 1.96538 40.9854 2.67613 40.556C4.35758 39.5406 6.15976 36.7716 7.35927 34.7854H10.8955C10.4564 35.462 10.0387 36.1416 9.66774 36.7433C8.86839 38.0441 8.43513 38.7548 7.89574 39.2718C7.35537 39.7898 6.30191 39.8599 6.30191 39.8599L6.13153 40.1812H10.6521L10.8234 39.8599L10.3298 39.8326C9.37857 39.783 9.47301 39.56 9.53435 39.4276M61.6301 31.8109L61.6486 31.7467C60.1921 31.5685 58.5233 33.3512 57.6607 34.4037H56.3336L56.062 34.7893H57.317C56.9256 35.3462 56.5585 35.8388 56.2207 36.2877C55.7543 36.7784 55.027 37.5096 54.2384 38.1765C53.0574 39.1618 51.8734 39.71 50.9903 39.7275C49.8794 39.7499 49.7597 38.8434 49.7597 38.489C49.7597 38.4082 49.7646 38.3245 49.7762 38.2369C49.7947 38.0762 49.8385 37.9049 49.9135 37.7004C49.9505 37.6926 50.0411 37.6741 50.0411 37.6741C51.2951 37.4151 54.6278 36.7248 54.8099 35.2089C54.8148 35.1641 54.8177 35.1193 54.8177 35.0765C54.8177 34.8662 54.7515 34.6851 54.622 34.5381C54.3951 34.283 53.9833 34.1486 53.4293 34.1486C51.4256 34.1486 48.381 36.275 48.1298 38.3683C48.0588 38.9593 48.1824 40.3788 49.9057 40.3691C51.3058 40.3603 52.738 39.7801 54.1624 38.6205C54.5236 38.3245 54.8644 38.0178 55.2023 37.6994C54.8517 38.232 54.6093 38.7081 54.5528 39.1803C54.5451 39.2378 54.5421 39.2913 54.5421 39.3439C54.5421 39.5766 54.6093 39.7713 54.7446 39.9242C55.0007 40.2124 55.434 40.2659 55.7523 40.2727C56.8584 40.2971 58.1309 39.2339 58.1309 39.2339L57.9381 39.0703C57.9381 39.0703 56.7474 39.9135 56.2158 39.8872C56.1077 39.8813 56.022 39.8531 55.9656 39.7898C55.914 39.7314 55.8867 39.6496 55.8867 39.5513C55.8867 39.5289 55.8887 39.5045 55.8916 39.4812C55.9519 38.971 56.5225 38.1901 58.0443 36.1046C58.0443 36.1046 58.9731 34.8302 59.0023 34.7912H61.0606L61.2991 34.4056H59.2321C60.0801 33.2451 60.6594 32.5499 60.9135 32.3055C61.2212 32.0086 61.4072 31.8538 61.6321 31.8129M53.1528 34.4407C53.2764 34.4407 53.3718 34.4738 53.4254 34.5351C53.4673 34.5828 53.4887 34.6481 53.4887 34.7308C53.4887 34.7532 53.4877 34.7756 53.4848 34.8C53.3631 35.8067 51.6904 37.0636 50.0109 37.4288C50.4782 36.313 52.1723 34.4417 53.1537 34.4417M50.2066 32.0787C50.6009 31.5403 51.005 30.6757 51.5268 30.5647L51.5083 30.4469H46.5058L46.3121 30.7594C46.3121 30.7594 48.974 30.7604 49.0499 30.7594C49.2213 30.7555 49.4676 30.85 49.2592 31.1849C49.2592 31.1849 46.3296 35.6714 46.1962 35.907C46.1875 35.9206 46.166 35.9566 46.1378 36.0014C45.5945 36.5963 44.5858 37.68 43.9296 38.2768C42.8489 39.2563 41.8402 39.8891 41.3622 39.8891C41.2463 39.8891 41.1616 39.8609 41.1129 39.8054C41.0642 39.7509 41.0467 39.6623 41.0613 39.5444C41.1509 38.7928 42.3815 37.2418 43.3717 35.9946C43.8595 35.3793 44.2821 34.8477 44.5167 34.4806L44.5693 34.3988L42.7807 34.502C42.7807 34.502 42.4341 34.9665 42.3484 35.0833C42.1352 34.4339 41.7438 34.1496 41.0487 34.1496C39.0975 34.1496 36.4726 36.3071 36.0179 38.2787C36.0004 38.2953 35.6947 38.5786 35.6947 38.5786C34.5663 39.6145 33.7397 39.9845 33.3424 39.9845C33.2606 39.9845 33.1983 39.9602 33.1574 39.9144C33.1068 39.8589 33.0893 39.7694 33.1029 39.6564C33.2081 38.7763 33.5985 38.2476 35.242 36.0228C35.242 36.0228 38.7431 31.3465 39.4655 31.2316L39.4763 31.1674C39.0021 31.0875 38.3225 31.2482 37.6127 31.7009C36.3422 32.5119 35.0239 34.245 34.7386 34.6442C34.5341 34.9168 34.5224 34.9343 34.4446 35.0521C34.245 34.4631 33.7961 34.1506 33.1331 34.1506C31.5821 34.1506 29.594 35.425 28.6086 37.0539C28.1705 37.5047 27.748 37.9243 27.3605 38.2933C25.7968 39.7742 25.2087 39.8891 25.0656 39.8891C24.9498 39.8891 24.8651 39.8589 24.8125 39.7995C24.758 39.7382 24.7365 39.6389 24.7521 39.5143C24.8183 38.969 25.3889 38.305 25.9925 37.6021C26.6711 36.8115 27.3741 35.9946 27.4666 35.2274C27.5026 34.9149 27.4325 34.6471 27.2621 34.4543C27.0869 34.2567 26.8133 34.1515 26.4715 34.1515C25.2175 34.1515 23.7298 35.4601 22.7757 36.4542C23.4572 35.6373 24.4522 34.4456 24.534 34.3472L22.726 34.4164C22.726 34.4164 20.6093 36.1679 19.7915 36.7365C19.3816 37.0189 18.9805 37.2603 18.593 37.4696C18.7974 37.1337 19.7087 35.6957 18.8091 34.7133C18.4849 34.3599 18 34.1525 17.4012 34.1525C15.2729 34.1525 12.4338 36.129 12.1563 38.4355C12.0882 39.008 12.1524 40.3389 13.9079 40.373C15.528 40.4032 17.2172 39.4227 18.3203 37.8942C18.8665 37.6264 19.4556 37.2691 20.069 36.8319C20.6726 36.4035 21.5411 35.7327 22.1895 35.1777C21.5596 36.0628 18.5151 40.2406 18.5151 40.2406L18.6163 40.2367L20.1469 40.188L20.1605 40.1656C21.1692 38.5513 24.536 34.6335 25.7715 34.6335C25.8971 34.6335 25.9954 34.6695 26.0568 34.7386C26.1093 34.799 26.1317 34.8818 26.1201 34.9772C26.0685 35.4104 25.5398 36.0141 24.9799 36.6528C24.2955 37.4356 23.5185 38.3225 23.4231 39.1209C23.3832 39.4471 23.463 39.7392 23.6451 39.9456C23.8379 40.1627 24.1407 40.2766 24.5194 40.2766C25.3334 40.2766 26.0509 39.8677 27.3605 38.6536C27.637 38.3956 27.9378 38.0996 28.263 37.7715C28.1579 38.0451 27.7334 39.2134 28.3399 39.9105C28.5541 40.1569 28.8744 40.2776 29.2853 40.2776C30.1499 40.2776 30.9609 39.9066 31.8304 39.118C31.8021 39.2251 31.7846 39.3322 31.7846 39.4354C31.7846 39.6486 31.8421 39.8443 31.954 39.9972C32.1332 40.2435 32.4476 40.374 32.8614 40.374C33.8935 40.374 34.8496 39.71 35.9537 38.71C35.9478 38.784 35.941 38.859 35.941 38.9291C35.941 39.3789 36.0958 40.3847 37.2204 40.3749C38.0207 40.3681 38.9154 39.9349 39.7557 39.1414C39.7304 39.229 39.7138 39.3283 39.7031 39.4111C39.6982 39.4529 39.6953 39.4928 39.6953 39.5328C39.6953 39.7382 39.7615 39.9203 39.8891 40.0634C40.0702 40.2678 40.3545 40.3759 40.7108 40.3759C41.59 40.3759 42.6133 39.819 43.9335 38.6253C44.36 38.2388 44.8623 37.7325 45.4446 37.1065C43.9968 39.377 40.9065 44.1273 40.0994 44.8264C39.8005 45.0853 39.5201 45.2392 39.2689 45.2859V45.3823C40.2269 45.4738 41.2025 44.952 42.4429 43.695C44.4116 41.6981 49.4189 33.1614 50.2095 32.0826M17.8491 35.2342C17.6953 36.5184 15.6633 40.0838 14.0432 40.0838C13.8534 40.0838 13.7093 40.0313 13.6158 39.9261C13.499 39.7947 13.4571 39.5814 13.4921 39.2952C13.646 38.012 15.6779 34.4456 17.2971 34.4456C17.4879 34.4456 17.632 34.4981 17.7245 34.6043C17.8413 34.7357 17.8822 34.947 17.8481 35.2342M30.2735 39.6379C30.0759 39.6379 29.9221 39.5775 29.8179 39.4597C29.6777 39.301 29.6212 39.0333 29.6611 38.7052C29.851 37.124 31.8683 34.4456 33.1564 34.4456C33.4028 34.4456 33.5868 34.5127 33.7056 34.6471C33.8312 34.7883 33.8779 35.0015 33.8448 35.2819C33.6764 36.6859 31.6133 39.6379 30.2735 39.6379ZM38.1911 39.7333C37.4073 39.8375 37.5689 38.7607 37.5835 38.6419C37.7335 37.3918 39.6982 34.4456 41.1674 34.4456C41.4108 34.4456 41.5773 34.5001 41.6776 34.613C41.7643 34.7104 41.8061 34.8545 41.8061 35.058C41.8061 35.13 41.8013 35.2099 41.7896 35.2975C41.6552 36.4259 39.5308 39.6369 38.1911 39.7324" fill="#949494"/>
<path d="M45.6889 3.15473C43.3999 4.48568 40.7847 8.25945 38.1725 12.2202H35.4775C37.6662 8.8222 40.3982 4.5733 41.0943 3.47019C41.7924 2.41672 42.6044 0.815108 43.5917 0.606752L43.5557 0.384766H34.093L33.7259 0.974783C33.7259 0.974783 38.7615 0.978677 38.9047 0.974783C39.2289 0.967967 39.6943 1.14711 39.3009 1.77997L32.5673 12.2202H30.2306C30.807 11.2709 35.0734 4.5256 35.0734 4.5256H26.12L25.7539 5.11659C25.7539 5.11659 30.7905 5.11853 30.9316 5.11659C31.2568 5.1088 31.7222 5.28892 31.3289 5.92177C31.3289 5.92177 21.3735 21.8289 19.3075 23.5979C18.7389 24.0848 18.2132 24.3798 17.7361 24.4664V24.6514C18.7389 24.6621 19.6921 24.4995 21.0367 23.6885C24.2175 21.7675 27.6271 16.5304 29.8957 12.7742H32.21L32.0825 12.9708C29.3436 17.2655 23.497 26.2501 21.9704 27.5733C21.4047 28.063 20.876 28.3551 20.399 28.4417V28.6267C21.4018 28.6365 22.3559 28.4748 23.6995 27.6638C26.8813 25.7428 30.29 20.5057 32.5586 16.7485C32.5586 16.7485 33.6812 15.0076 35.1192 12.7732H37.8103C36.9798 14.0525 36.1902 15.3377 35.4901 16.4768C33.9781 18.9362 33.1593 20.5349 32.138 21.5124C31.1176 22.4919 29.9989 22.3692 29.9989 22.3692L29.6766 22.9787H38.0518L38.375 22.3692L36.7413 22.3176C34.942 22.2242 35.1211 21.8026 35.237 21.5514C35.237 21.5514 39.1072 14.922 42.8381 9.54171C47.6634 2.58029 48.5932 2.41283 49.0703 2.32618L49.0839 2.19181C48.1911 2.12756 47.0471 2.36415 45.6889 3.15376" fill="#949494"/>
</g>
<defs>
<clipPath id="clip0_13821_23497">
<rect width="60.7172" height="45" fill="white" transform="translate(0.929443 0.384766)"/>
</clipPath>
</defs>
</svg>
