<svg width="67" height="43" viewBox="0 0 67 43" fill="none" xmlns="http://www.w3.org/2000/svg">
<g clip-path="url(#clip0_13821_23467)">
<path d="M7.6486 36.0851L8.65949 36.2054C9.11679 36.2536 9.16493 36.6387 9.16493 36.8794V38.0587H4.51966V36.8794C4.51966 36.6387 4.5678 36.2536 5.0251 36.2054L6.03599 36.0851V35.0742H0.0187988V36.0851L1.02969 36.2054C1.48699 36.2536 1.53513 36.6387 1.53513 36.8794V40.7785C1.53513 41.0192 1.48699 41.4043 1.02969 41.4524L0.0187988 41.5728V42.5837H6.03599V41.5728L5.0251 41.4524C4.5678 41.4043 4.51966 41.0192 4.51966 40.7785V39.5991H9.14086V40.7785C9.14086 41.0192 9.09272 41.4043 8.63542 41.4524L7.62453 41.5728V42.5837H13.6417V41.5728L12.6308 41.4524C12.1735 41.4043 12.1254 41.0192 12.1254 40.7785V36.8794C12.1254 36.6387 12.1735 36.2536 12.6308 36.2054L13.6417 36.0851V35.0742H7.62453V36.0851H7.6486Z" fill="#949494"/>
<path d="M47.7231 35.0742H40.3099V36.0851L41.2004 36.1814C41.5133 36.2295 41.73 36.3499 41.73 36.7831V40.7544C41.73 40.9951 41.6818 41.3802 41.2245 41.4284L40.2136 41.5487V42.5596H47.7231C50.4188 42.5596 52.6331 41.4765 52.6331 38.8049C52.6331 36.1332 50.4188 35.0742 47.7231 35.0742ZM47.1695 41.1395H44.6423V36.5183H47.1695C48.6618 36.5183 49.1672 37.2163 49.1672 38.8289C49.1672 40.4175 48.6618 41.1395 47.1695 41.1395Z" fill="#949494"/>
<path d="M65.2452 41.4524C64.7639 41.4043 64.6195 41.0914 64.475 40.8748L61.0091 35.5797C60.7685 35.1946 60.5759 35.0742 60.2149 35.0742H54.5346V36.0851L55.9066 36.2295C56.0991 36.2536 56.3639 36.5183 56.1473 36.8553L53.5719 41.0192C53.4756 41.1877 53.3312 41.3802 53.0424 41.4284L52.0315 41.5487V42.5596H56.8212V41.5487L56.0028 41.4765C55.6418 41.4284 55.4493 41.1877 55.6418 40.8989L56.0269 40.2731H60.6481L60.9851 40.7785C61.298 41.2358 60.9129 41.4284 60.5759 41.4524L59.7335 41.5487V42.5596H66.2321V41.5487L65.2452 41.4524ZM56.8212 38.9493L58.2412 36.6387L59.7576 38.9493H56.8212Z" fill="#949494"/>
<path d="M34.9426 36.0857L35.9535 36.2061C36.4108 36.2542 36.4589 36.6393 36.4589 36.88V40.6347L32.4876 35.3877C32.3191 35.1471 32.1506 35.0749 31.7174 35.0749H26.5667V36.0857L27.5775 36.2061C28.0348 36.2542 28.083 36.6393 28.083 36.88V40.7791C28.083 41.0198 28.0348 41.4049 27.5775 41.4531L26.5667 41.5734V42.5843H31.3804V41.5734L30.3695 41.4531C29.9122 41.4049 29.8641 41.0198 29.8641 40.7791V37.0244L33.8354 42.2473C34.028 42.488 34.1724 42.5602 34.6056 42.5602H34.6538H38.2641V36.8559C38.2641 36.6153 38.3122 36.2302 38.7695 36.182L39.7804 36.0617V35.0508H34.9907L34.9426 36.0857Z" fill="#949494"/>
<path d="M20.0921 34.8105C15.2062 34.8105 13.9546 36.9527 13.9546 38.806C13.9546 40.6593 15.2062 42.8254 20.0921 42.8254C24.9781 42.8254 26.2297 40.6833 26.2297 38.83C26.2297 36.9527 24.9781 34.8105 20.0921 34.8105ZM20.0921 41.4054C18.1907 41.4054 17.4205 40.6111 17.4205 38.83C17.4205 37.0489 18.2148 36.2547 20.0921 36.2547C21.9936 36.2547 22.7638 37.0489 22.7638 38.83C22.7638 40.6111 21.9936 41.4054 20.0921 41.4054Z" fill="#949494"/>
<path d="M41.4411 3.42383C40.6228 7.10635 40.2858 8.81523 39.6119 11.4628C38.962 14.0141 38.4566 16.3969 37.5901 17.5522C36.7236 18.7316 35.5443 18.9723 34.75 19.0685C34.3408 19.1167 34.0279 19.1407 33.1374 19.1407C32.2469 19.1407 31.934 19.1167 31.5248 19.0685C30.7305 18.9723 29.5512 18.7316 28.6847 17.5522C27.8182 16.3969 27.3128 14.0141 26.687 11.4628C26.013 8.79116 25.6761 7.10635 24.8577 3.42383C24.8577 3.42383 24.0394 3.4479 23.6784 3.47197C23.1729 3.49603 22.7878 3.54417 22.3787 3.59231C22.3787 3.59231 22.86 11.174 23.0767 14.3992C23.2933 17.7688 23.7024 23.4731 24.0635 27.7814C24.0635 27.7814 24.7615 27.9018 25.9168 27.9499C27.1202 28.0221 27.6738 28.0221 27.6738 28.0221C28.1792 26.1207 28.781 23.4972 29.4789 22.3659C30.0566 21.4513 30.9231 21.3551 31.4285 21.2829C32.1987 21.1866 32.8726 21.1625 33.1615 21.1625C33.4744 21.1625 34.1242 21.1625 34.8944 21.2829C35.3999 21.3551 36.2663 21.4513 36.844 22.3659C37.542 23.4972 38.1678 26.1207 38.6492 28.0221C38.6492 28.0221 39.1787 28.0221 40.3821 27.9499C41.5374 27.8777 42.2354 27.7814 42.2354 27.7814C42.5964 23.4731 43.0056 17.7929 43.2222 14.3992C43.4388 11.198 43.9202 3.59231 43.9202 3.59231C43.511 3.54417 43.1019 3.49603 42.6205 3.47197C42.2595 3.4479 41.4411 3.42383 41.4411 3.42383Z" fill="#949494"/>
<path d="M50.9965 7.90119C50.5152 3.08743 47.2899 2.07654 44.4739 1.59517C43.0538 1.35448 40.5266 1.16193 38.914 1.08973C37.494 0.99345 34.1725 0.945312 33.1616 0.945312C32.1507 0.945312 28.8292 0.99345 27.4091 1.08973C25.7965 1.16193 23.2693 1.35448 21.8493 1.59517C19.0332 2.07654 15.808 3.08743 15.3266 7.90119C15.1822 9.22497 15.1581 10.9339 15.1822 12.7631C15.2303 15.8198 15.4951 17.8657 15.6395 19.3098C15.7358 20.2966 16.145 23.233 16.6745 24.7493C17.3965 26.8433 18.0464 27.445 18.8166 28.0708C20.2126 29.202 22.5232 29.5631 23.0046 29.6594C25.604 30.1167 30.851 30.2129 33.1856 30.2129C35.4962 30.2129 40.7673 30.1407 43.3667 29.6594C43.8481 29.5631 46.1587 29.2261 47.5547 28.0708C48.3249 27.445 48.9748 26.8433 49.6968 24.7493C50.2263 23.233 50.6355 20.2725 50.7318 19.3098C50.8762 17.8897 51.1409 15.8198 51.1891 12.7631C51.165 10.9098 51.1169 9.2009 50.9965 7.90119ZM49.2154 15.9883C48.9266 19.8393 48.5896 22.1499 48.1083 23.8106C47.675 25.2788 47.1455 26.2416 46.3753 26.9396C45.0756 28.1189 43.2945 28.3596 42.2355 28.5281C39.973 28.8651 36.1461 28.9854 33.1616 28.9854C30.153 28.9854 26.3501 28.8651 24.0876 28.5281C23.0286 28.3596 21.2475 28.1189 19.9478 26.9396C19.1776 26.2416 18.6481 25.2548 18.2149 23.8106C17.7335 22.1499 17.3725 19.8393 17.1077 15.9883C16.9392 13.6777 16.9633 9.92296 17.228 7.90119C17.5891 4.86852 19.0813 3.35219 22.2825 2.79861C23.7748 2.53385 25.7965 2.3413 27.698 2.24503C29.2384 2.14875 31.7415 2.10061 33.1616 2.10061C34.5576 2.07654 37.0848 2.14875 38.6011 2.24503C40.5025 2.3413 42.5243 2.53385 44.0166 2.79861C47.2177 3.37626 48.71 4.89259 49.0951 7.90119C49.3599 9.89889 49.3839 13.6536 49.2154 15.9883Z" fill="#949494"/>
</g>
<defs>
<clipPath id="clip0_13821_23467">
<rect width="66.2613" height="42" fill="white" transform="translate(0 0.884766)"/>
</clipPath>
</defs>
</svg>
