<svg width="54" height="8" viewBox="0 0 54 8" fill="none" xmlns="http://www.w3.org/2000/svg">
<g id="Honda-2" clip-path="url(#clip0_39791_109900)">
<path id="Vector" d="M16.3801 0C12.3981 0 11.3696 2.13278 11.3696 4C11.3696 5.86722 12.3981 8 16.3801 8C20.3622 8 21.3907 5.86722 21.3907 4C21.3907 2.13278 20.3622 0 16.3801 0ZM16.3801 6.57311C14.8367 6.57311 14.1941 5.78151 14.1941 4C14.1941 2.21849 14.8367 1.42689 16.3801 1.42689C17.9236 1.42689 18.5676 2.21849 18.5676 4C18.5676 5.78151 17.925 6.57311 16.3801 6.57311ZM38.9202 0.257143H32.866V1.27227L33.5897 1.36471C33.8464 1.40336 34.0168 1.5395 34.0168 1.97647V5.94454C34.0168 6.18488 33.9769 6.55967 33.6102 6.61176L32.7905 6.72942V7.74454H38.9189C41.1103 7.74454 42.9147 6.66218 42.9147 4C42.9147 1.33782 41.1117 0.257143 38.9189 0.257143H38.9202ZM38.4739 6.30757H36.4198V1.69075H38.4739C39.685 1.69075 40.0969 2.39496 40.0969 3.99832C40.0969 5.60168 39.685 6.30589 38.4739 6.30589V6.30757ZM6.2258 1.27227L7.04419 1.38992C7.41082 1.44033 7.45064 1.81681 7.45064 2.05714V3.24201H3.67726V2.05714C3.67726 1.81681 3.71708 1.44033 4.08371 1.38992L4.90347 1.27227V0.257143H0V1.27227L0.818389 1.38992C1.18639 1.44033 1.22484 1.81681 1.22484 2.05714V5.94286C1.22484 6.18319 1.18502 6.55799 0.818389 6.61008L0 6.72773V7.74286H4.90347V6.72773L4.08371 6.61008C3.71708 6.55799 3.67726 6.18319 3.67726 5.94286V4.7563H7.45064V5.94286C7.45064 6.18319 7.41082 6.55799 7.04419 6.61008L6.2258 6.72773V7.74286H11.1293V6.72773L10.3095 6.61008C9.94289 6.55799 9.90307 6.18319 9.90307 5.94286V2.05714C9.90307 1.81681 9.94289 1.44033 10.3095 1.38992L11.1293 1.27227V0.257143H6.2258V1.27227ZM53.2214 6.62185C52.8342 6.56471 52.712 6.2605 52.5911 6.03529L49.768 0.754622C49.5648 0.374791 49.4192 0.257143 49.1171 0.257143H44.4704V1.27227L45.5786 1.42689C45.7296 1.44706 45.9492 1.70589 45.7735 2.05714L43.6891 6.2084C43.604 6.37647 43.4996 6.57311 43.258 6.61176L42.4286 6.72773V7.74286H46.3461V6.72773L45.6705 6.6437C45.3821 6.60672 45.2283 6.35967 45.3712 6.07226L45.6843 5.44874H49.4453L49.7227 5.96639C49.9658 6.42017 49.6595 6.60672 49.3932 6.64202L48.7011 6.72942V7.74454H54V6.72942L53.2214 6.62353V6.62185ZM46.3503 4.12437L47.5078 1.82017L48.7395 4.12437H46.3503ZM28.4899 1.27227L29.3083 1.38992C29.6748 1.44033 29.7147 1.81681 29.7147 2.05714V5.80168L26.4783 0.574791C26.3313 0.334455 26.2049 0.257143 25.8576 0.257143H21.653V1.27227L22.4713 1.38992C22.838 1.44033 22.8779 1.81681 22.8779 2.05714V5.94286C22.8779 6.18319 22.838 6.55799 22.4713 6.61008L21.653 6.72773V7.74286H25.5706V6.72773L24.7508 6.61008C24.3841 6.55799 24.343 6.18319 24.343 5.94286V2.19664L27.5808 7.42353C27.7278 7.66386 27.8528 7.74286 28.2015 7.74286H31.1812V2.05714C31.1812 1.81681 31.2211 1.44033 31.5876 1.38992L32.406 1.27227V0.257143H28.4899V1.27227Z" fill="#DE1C21"/>
</g>
<defs>
<clipPath id="clip0_39791_109900">
<rect width="54" height="8" fill="white"/>
</clipPath>
</defs>
</svg>
