<svg width="91" height="30" viewBox="0 0 91 30" fill="none" xmlns="http://www.w3.org/2000/svg">
<g clip-path="url(#clip0_13821_23500)">
<path d="M77.9194 5.76832H81.8821L79.8814 2.62519L77.9194 5.76832ZM71.3765 10.6914V9.32538L72.7562 9.16809C73.2364 9.10738 73.4378 8.67137 73.4958 8.57203L76.937 2.97014C77.2184 2.52861 76.9425 2.14227 76.5837 2.10364L74.7762 1.89115V0.505859H82.6216C83.0632 0.505859 83.3419 0.80665 83.524 1.06605L88.1049 8.07255C88.4636 8.63274 88.7451 9.07151 89.2059 9.13222L90.6464 9.29227V10.6941H81.8214V9.31159L82.9417 9.17085C83.4826 9.11014 83.9214 8.87006 83.4826 8.21053L83.0632 7.57031H76.799L76.3188 8.35126C76.018 8.83142 76.3188 9.11014 76.7797 9.17085L77.9 9.31159V10.6941H71.3765" fill="#949494"/>
<path d="M63.9699 8.73128H61.3677V2.44778H63.9699C66.4508 2.44778 67.4911 3.02728 67.4911 5.58815C67.4911 8.14901 66.4508 8.73128 63.9699 8.73128ZM65.5318 0.507812H55.4402V1.88759L56.7013 2.01729C57.1759 2.08628 57.3663 2.42846 57.3663 2.88655V8.36977C57.3663 8.75059 57.2063 9.10933 56.7868 9.17004L55.4319 9.34666V10.6878L65.5318 10.6933C70.1762 10.6933 72.1768 8.43324 72.1768 5.45017C72.1768 2.76788 70.1762 0.507812 65.5318 0.507812Z" fill="#949494"/>
<path d="M0.646558 10.6914H8.81207V9.3309L7.41298 9.17085C7.09287 9.13222 6.77276 8.93077 6.77276 8.24916V6.60723H13.0563V8.16913C13.0563 8.62998 12.9762 9.06875 12.4354 9.12946L11.0142 9.28951V10.6914H19.1797V9.28951L17.7392 9.12946C17.4605 9.09082 17.1376 8.87006 17.1376 8.28779V2.9867C17.1376 2.44582 17.3391 2.08708 17.7585 2.04569L19.1797 1.88564V0.505859H11.0142V1.86632L12.4354 2.04569C12.9155 2.1064 13.0563 2.48722 13.0563 2.9867V4.56792H6.77276V2.96738C6.77276 2.3658 7.01284 2.08708 7.43229 2.04569L8.81207 1.88564V0.505859H0.665875V1.88564L2.02633 2.04569C2.56721 2.1064 2.70518 2.50653 2.68587 3.02533V8.18845C2.68587 8.76796 2.52581 9.11014 2.00426 9.16809L0.643799 9.32814V10.6886" fill="#949494"/>
<path d="M27.9054 2.06751C25.5846 2.06751 24.2628 2.92849 24.2628 5.56938C24.2628 8.21027 25.5846 9.10988 27.9054 9.10988C30.2262 9.10988 31.548 8.2489 31.548 5.56938C31.548 2.88986 30.2262 2.06751 27.9054 2.06751ZM19.5798 5.55006C19.5798 2.34898 22.16 0.105469 27.9247 0.105469C33.6894 0.105469 36.231 2.34898 36.231 5.55006C36.231 8.75114 33.648 11.0526 27.9247 11.0526C22.2014 11.0526 19.5798 8.83117 19.5798 5.55006Z" fill="#949494"/>
<path d="M36.6835 10.6902H43.2071V9.32976L41.8052 9.1697C41.4051 9.13107 41.165 8.7944 41.165 8.32804V3.14836L46.5875 10.2928C46.7669 10.5329 47.1063 10.693 47.4292 10.693H52.5509V2.96623C52.5509 2.60473 52.6475 2.10801 53.1718 2.04454L54.593 1.88449V0.504713H48.0694V1.86517L49.4906 2.04454C49.9928 2.10525 50.1115 2.5247 50.1115 3.00487V8.04657L44.7276 0.943481C44.5289 0.684083 44.2667 0.501953 43.8859 0.501953H36.6807V1.88173L38.0412 2.04178C38.5214 2.11353 38.7007 2.35637 38.7007 3.02142V8.18454C38.7007 8.79716 38.5352 9.08968 38.0191 9.16418L36.678 9.32424V10.6847" fill="#949494"/>
<path d="M12.3083 21.4746H14.1738C14.5022 21.4746 14.8002 21.5077 15.0734 21.574C15.3466 21.6402 15.5729 21.7423 15.7633 21.8803C15.9537 22.0182 16.1 22.1949 16.2048 22.4073C16.3097 22.6198 16.3594 22.8765 16.3594 23.1773C16.3594 23.478 16.3042 23.7457 16.191 23.9637C16.0779 24.1817 15.9234 24.3611 15.7247 24.4991C15.526 24.6371 15.2887 24.7392 15.0155 24.8054C14.7423 24.8716 14.447 24.9047 14.1297 24.9047H13.1638V27.5898H12.3083V21.4746ZM13.1638 24.179H14.0717C14.2787 24.179 14.4691 24.1597 14.6457 24.1238C14.8223 24.0851 14.9713 24.0272 15.0983 23.9499C15.2252 23.8727 15.3218 23.7706 15.3908 23.6436C15.4598 23.5167 15.4956 23.3621 15.4956 23.1773C15.4956 22.9924 15.4598 22.8378 15.388 22.7164C15.3163 22.595 15.2169 22.4929 15.0955 22.4129C14.9741 22.3328 14.8223 22.2804 14.6512 22.25C14.4774 22.2197 14.2925 22.2031 14.0883 22.2031H13.1638V24.1817V24.179Z" fill="#949494"/>
<path d="M20.6423 25.5353C20.6423 25.8526 20.5871 26.1424 20.4739 26.4073C20.3608 26.6722 20.2062 26.9012 20.0076 27.0944C19.8089 27.2876 19.5743 27.4366 19.3039 27.5442C19.0334 27.6518 18.7409 27.7043 18.4319 27.7043C18.1228 27.7043 17.8303 27.6518 17.5598 27.5442C17.2894 27.4366 17.0548 27.2876 16.8589 27.0944C16.663 26.9012 16.5085 26.6722 16.3981 26.4073C16.2849 26.1424 16.2297 25.8526 16.2297 25.5353C16.2297 25.2179 16.2849 24.9282 16.3981 24.666C16.5112 24.4038 16.6657 24.1776 16.8589 23.9872C17.0548 23.7967 17.2866 23.6477 17.5598 23.5429C17.8303 23.4352 18.12 23.3828 18.4319 23.3828C18.7437 23.3828 19.0334 23.4352 19.3039 23.5429C19.5743 23.6505 19.8089 23.7967 20.0076 23.9872C20.2062 24.1776 20.3608 24.4038 20.4739 24.666C20.5871 24.9282 20.6423 25.2179 20.6423 25.5353ZM19.7951 25.5408C19.7951 25.3449 19.7647 25.16 19.704 24.9806C19.6433 24.804 19.555 24.6467 19.4391 24.5115C19.3232 24.3763 19.1797 24.2686 19.0114 24.1886C18.8403 24.1086 18.6471 24.0672 18.4263 24.0672C18.2056 24.0672 18.0124 24.1086 17.8413 24.1886C17.6702 24.2686 17.5267 24.3763 17.4136 24.5115C17.2977 24.6467 17.2094 24.804 17.1487 24.9806C17.088 25.16 17.0576 25.3449 17.0576 25.5408C17.0576 25.7367 17.088 25.9216 17.1487 26.101C17.2094 26.2803 17.2977 26.4376 17.4136 26.5756C17.5295 26.7136 17.673 26.8212 17.8413 26.904C18.0096 26.9868 18.2056 27.0254 18.4263 27.0254C18.6471 27.0254 18.8403 26.984 19.0114 26.904C19.1825 26.824 19.3232 26.7136 19.4391 26.5756C19.555 26.4376 19.6433 26.2803 19.704 26.101C19.7647 25.9244 19.7951 25.7367 19.7951 25.5408Z" fill="#949494"/>
<path d="M21.7377 23.4961L22.6622 26.6227H22.6787L23.6556 23.4961H24.5111L25.5045 26.6227H25.5211L26.4455 23.4961H27.301L25.946 27.5913H25.0989L24.0889 24.5171H24.0723L23.0706 27.5913H22.2234L20.8574 23.4961H21.7377Z" fill="#949494"/>
<path d="M31.6805 25.5065V25.6445C31.6805 25.6914 31.6777 25.7356 31.6722 25.7825H28.4159C28.4214 25.9536 28.4601 26.1164 28.5318 26.2682C28.6036 26.4199 28.7002 26.5524 28.8216 26.6628C28.943 26.7732 29.081 26.8615 29.241 26.9249C29.4011 26.9884 29.5667 27.0188 29.746 27.0188C30.022 27.0188 30.2621 26.958 30.4635 26.8366C30.665 26.7152 30.8223 26.5689 30.9382 26.3951L31.5094 26.8532C31.2914 27.1429 31.032 27.3582 30.7367 27.4934C30.4414 27.6314 30.1103 27.6976 29.7488 27.6976C29.437 27.6976 29.15 27.6452 28.8851 27.5431C28.6201 27.441 28.3939 27.2947 28.2034 27.1071C28.013 26.9194 27.864 26.6931 27.7536 26.4282C27.6433 26.1633 27.5908 25.8708 27.5908 25.5479C27.5908 25.225 27.6433 24.9381 27.7509 24.6704C27.8585 24.4027 28.0075 24.1737 28.1979 23.9832C28.3883 23.7928 28.6146 23.6438 28.874 23.539C29.1334 23.4313 29.4121 23.3789 29.7129 23.3789C30.0137 23.3789 30.2841 23.4286 30.5297 23.5252C30.7753 23.6245 30.9823 23.7652 31.1534 23.9474C31.3245 24.1323 31.4542 24.3558 31.548 24.6152C31.6391 24.8773 31.686 25.1726 31.686 25.501L31.6805 25.5065ZM30.8526 25.1781C30.8471 25.0181 30.8195 24.8663 30.7698 24.7256C30.7202 24.5848 30.6484 24.4607 30.5546 24.3585C30.458 24.2537 30.3421 24.1737 30.2014 24.1129C30.0606 24.0522 29.895 24.0219 29.7046 24.0219C29.5308 24.0219 29.368 24.0522 29.2162 24.1129C29.0644 24.1737 28.932 24.2564 28.8188 24.3585C28.7057 24.4607 28.6146 24.5848 28.5429 24.7256C28.4711 24.8663 28.4297 25.0181 28.4187 25.1781H30.8554H30.8526Z" fill="#949494"/>
<path d="M32.5358 23.954C32.5303 23.7802 32.522 23.6284 32.511 23.496H33.2809C33.2919 23.6008 33.3002 23.7195 33.3057 23.8547C33.3113 23.9899 33.314 24.1003 33.314 24.1858H33.3389C33.4548 23.943 33.6231 23.7498 33.8439 23.6036C34.0646 23.4573 34.3157 23.3828 34.5917 23.3828C34.7186 23.3828 34.8262 23.3939 34.9118 23.4187L34.8787 24.1693C34.7628 24.1417 34.6386 24.1251 34.5061 24.1251C34.3102 24.1251 34.1419 24.161 33.9956 24.2328C33.8521 24.3045 33.7335 24.4011 33.6369 24.5225C33.5403 24.6439 33.4713 24.7819 33.4244 24.942C33.3775 25.0993 33.3554 25.2648 33.3554 25.4387V27.5884H32.5441V24.3763C32.5441 24.2659 32.5413 24.1251 32.5358 23.954Z" fill="#949494"/>
<path d="M38.2095 26.8289H41.405V27.5878H37.354V21.4727H41.2753V22.2233H38.2095V24.0556H41.0932V24.7896H38.2095V26.8289Z" fill="#949494"/>
<path d="M45.481 26.9749C45.332 27.2067 45.125 27.3834 44.8629 27.5103C44.6007 27.6372 44.322 27.7007 44.0295 27.7007C43.7121 27.7007 43.4279 27.6455 43.174 27.5324C42.9201 27.4192 42.7049 27.2675 42.5255 27.0715C42.3461 26.8756 42.2082 26.6466 42.1116 26.3816C42.0122 26.1167 41.9653 25.8352 41.9653 25.5345C41.9653 25.2337 42.015 24.9549 42.1116 24.6928C42.2082 24.4306 42.3489 24.2016 42.531 24.0057C42.7132 23.8097 42.9284 23.658 43.1823 23.5476C43.4362 23.4372 43.7149 23.3848 44.0212 23.3848C44.3551 23.3848 44.6504 23.4565 44.907 23.5973C45.1637 23.738 45.3596 23.9174 45.4976 24.1381H45.5224V23.4979H46.3089V29.6655H45.4976V26.9805H45.481V26.9749ZM42.8125 25.5317C42.8125 25.7221 42.8401 25.907 42.8981 26.0836C42.956 26.2602 43.0416 26.4203 43.1575 26.5582C43.2734 26.6962 43.4141 26.8066 43.5797 26.8922C43.7452 26.9749 43.9412 27.0163 44.1675 27.0163C44.3744 27.0163 44.5621 26.9749 44.7332 26.8949C44.9043 26.8149 45.0478 26.7073 45.1692 26.572C45.2906 26.4368 45.3844 26.2795 45.4506 26.1002C45.5169 25.9208 45.55 25.7359 45.55 25.5372C45.55 25.3385 45.5169 25.1536 45.4506 24.977C45.3844 24.7977 45.2906 24.6404 45.1692 24.5024C45.0478 24.3644 44.9015 24.254 44.7332 24.174C44.5621 24.094 44.3744 24.0526 44.1675 24.0526C43.9439 24.0526 43.748 24.094 43.5797 24.174C43.4141 24.254 43.2706 24.3644 43.1575 24.5024C43.0416 24.6404 42.956 24.7977 42.8981 24.977C42.8401 25.1564 42.8125 25.3385 42.8125 25.5289V25.5317Z" fill="#949494"/>
<path d="M50.3351 27.5905C50.324 27.4856 50.3157 27.3697 50.3102 27.24C50.3047 27.1103 50.3019 27.0027 50.3019 26.9171H50.2854C50.1805 27.1351 50.0067 27.3228 49.7638 27.4746C49.5182 27.6263 49.2478 27.7036 48.947 27.7036C48.6821 27.7036 48.453 27.6595 48.2599 27.5739C48.0667 27.4884 47.9094 27.3669 47.7852 27.2152C47.6611 27.0634 47.57 26.8868 47.5093 26.6853C47.4486 26.4839 47.4182 26.2686 47.4182 26.0368V23.498H48.2295V25.7609C48.2295 25.9265 48.2433 26.0865 48.2682 26.241C48.293 26.3956 48.3427 26.528 48.4116 26.6439C48.4806 26.7598 48.5745 26.8509 48.6959 26.9199C48.8173 26.9889 48.9718 27.0248 49.1622 27.0248C49.4906 27.0248 49.7556 26.9033 49.957 26.6577C50.1584 26.4121 50.2605 26.0865 50.2605 25.6781V23.5008H51.0719V26.7129C51.0719 26.8233 51.0746 26.964 51.0801 27.1351C51.0857 27.309 51.0939 27.4608 51.105 27.5932H50.3351V27.5905Z" fill="#949494"/>
<path d="M53.1691 22.0193C53.1691 22.1683 53.1167 22.2925 53.0118 22.3918C52.9069 22.4911 52.78 22.5381 52.631 22.5381C52.482 22.5381 52.3578 22.4884 52.2529 22.3863C52.1508 22.2842 52.0984 22.1628 52.0984 22.0193C52.0984 21.8758 52.1508 21.7433 52.2529 21.644C52.355 21.5446 52.482 21.4922 52.631 21.4922C52.78 21.4922 52.9069 21.5419 53.0118 21.644C53.1167 21.7461 53.1691 21.8702 53.1691 22.0193ZM53.0394 27.5908H52.2281V23.4956H53.0394V27.5908Z" fill="#949494"/>
<path d="M55.0069 29.6636H54.1956V23.496H54.9903V24.1362H55.0151C55.1476 23.9182 55.3408 23.736 55.5974 23.5953C55.854 23.4546 56.1493 23.3828 56.4887 23.3828C56.7923 23.3828 57.071 23.438 57.3194 23.5456C57.5705 23.656 57.7857 23.8078 57.9651 24.0037C58.1445 24.1996 58.2852 24.4287 58.3818 24.6908C58.4784 24.953 58.5281 25.2345 58.5281 25.5325C58.5281 25.8305 58.4784 26.1148 58.3818 26.3797C58.2852 26.6446 58.1472 26.8764 57.9679 27.0696C57.7885 27.2655 57.5732 27.42 57.3221 27.5304C57.0682 27.6436 56.784 27.6988 56.4694 27.6988C56.1769 27.6988 55.901 27.6353 55.6416 27.5083C55.3822 27.3814 55.178 27.202 55.0289 26.973H55.0041V29.658L55.0069 29.6636ZM57.7029 25.5353C57.7029 25.3449 57.6726 25.16 57.6174 24.9834C57.5594 24.804 57.4739 24.6467 57.358 24.5087C57.2421 24.3707 57.1014 24.2603 56.9303 24.1803C56.7592 24.1003 56.5633 24.0589 56.3397 24.0589C56.1328 24.0589 55.9424 24.1003 55.774 24.1803C55.6029 24.2603 55.4594 24.3707 55.338 24.5087C55.2166 24.6467 55.1228 24.804 55.0565 24.9834C54.9903 25.1627 54.9572 25.3504 54.9572 25.5435C54.9572 25.7367 54.9903 25.9271 55.0565 26.1065C55.1228 26.2859 55.2166 26.4432 55.338 26.5784C55.4594 26.7136 55.6029 26.8212 55.774 26.9012C55.9451 26.9813 56.1328 27.0227 56.3397 27.0227C56.5633 27.0227 56.7619 26.9813 56.9303 26.8985C57.1014 26.8157 57.2421 26.7053 57.358 26.5646C57.4739 26.4266 57.5594 26.2693 57.6174 26.0899C57.6753 25.9106 57.7029 25.7284 57.7029 25.538V25.5353Z" fill="#949494"/>
<path d="M60.7027 23.6107C60.929 23.4589 61.1994 23.3817 61.5112 23.3817C61.7872 23.3817 62.0355 23.4451 62.2591 23.5721C62.4798 23.699 62.6564 23.9087 62.7806 24.2013C62.9186 23.9363 63.1118 23.7321 63.3601 23.5914C63.6085 23.4507 63.8789 23.3789 64.1714 23.3789C64.4364 23.3789 64.6626 23.4231 64.853 23.5141C65.0435 23.6024 65.2008 23.7239 65.3277 23.8729C65.4546 24.0219 65.5485 24.1985 65.6092 24.3999C65.6699 24.6014 65.7002 24.8166 65.7002 25.0484V27.5872H64.8889V25.3161C64.8889 25.1505 64.8751 24.9905 64.8448 24.8415C64.8144 24.6925 64.7675 24.56 64.6985 24.4441C64.6295 24.3282 64.5385 24.2371 64.4226 24.1681C64.3067 24.0991 64.1604 24.0633 63.981 24.0633C63.8017 24.0633 63.6388 24.1019 63.5064 24.1792C63.3739 24.2564 63.2663 24.3585 63.1835 24.4827C63.1007 24.6069 63.04 24.7449 63.0014 24.9022C62.9628 25.0567 62.9462 25.2168 62.9462 25.3768V27.5872H62.1349V25.1505C62.1349 24.9905 62.1211 24.8415 62.0907 24.709C62.0604 24.5766 62.0135 24.4634 61.9445 24.3668C61.8755 24.273 61.7872 24.1957 61.6768 24.1433C61.5664 24.0881 61.4312 24.0605 61.2712 24.0605C60.9704 24.0605 60.722 24.1819 60.5233 24.4275C60.3246 24.6731 60.2253 24.9988 60.2253 25.4072V27.5845H59.414V24.3723C59.414 24.262 59.4112 24.1212 59.4057 23.9501C59.4002 23.7763 59.3919 23.6245 59.3809 23.492H60.1508C60.1618 23.5969 60.1701 23.7128 60.1756 23.8425C60.1811 23.9722 60.1839 24.0798 60.1839 24.1654H60.2087C60.3136 23.9474 60.4764 23.7597 60.7054 23.6079L60.7027 23.6107Z" fill="#949494"/>
<path d="M70.6397 25.5065V25.6445C70.6397 25.6914 70.6369 25.7356 70.6314 25.7825H67.3752C67.3807 25.9536 67.4193 26.1164 67.4911 26.2682C67.5628 26.4199 67.6594 26.5524 67.7808 26.6628C67.9022 26.7732 68.0402 26.8615 68.2003 26.9249C68.3603 26.9884 68.5259 27.0188 68.7053 27.0188C68.9812 27.0188 69.2213 26.958 69.4227 26.8366C69.6242 26.7152 69.7815 26.5689 69.8974 26.3951L70.4686 26.8532C70.2506 27.1429 69.9912 27.3582 69.6959 27.4934C69.4007 27.6314 69.0695 27.6976 68.708 27.6976C68.3962 27.6976 68.1092 27.6452 67.8443 27.5431C67.5794 27.441 67.3531 27.2947 67.1627 27.1071C66.9723 26.9194 66.8232 26.6931 66.7129 26.4282C66.6025 26.1633 66.55 25.8708 66.55 25.5479C66.55 25.225 66.6025 24.9381 66.7101 24.6704C66.8177 24.4027 66.9667 24.1737 67.1571 23.9832C67.3476 23.7928 67.5738 23.6438 67.8332 23.539C68.0926 23.4313 68.3713 23.3789 68.6721 23.3789C68.9729 23.3789 69.2434 23.4286 69.489 23.5252C69.7346 23.6245 69.9415 23.7652 70.1126 23.9474C70.2837 24.1323 70.4134 24.3558 70.5072 24.6152C70.5983 24.8773 70.6452 25.1726 70.6452 25.501L70.6397 25.5065ZM69.8118 25.1781C69.8063 25.0181 69.7787 24.8663 69.729 24.7256C69.6794 24.5848 69.6076 24.4607 69.5138 24.3585C69.4172 24.2537 69.3013 24.1737 69.1606 24.1129C69.0198 24.0522 68.8543 24.0219 68.6639 24.0219C68.49 24.0219 68.3272 24.0522 68.1754 24.1129C68.0236 24.1737 67.8912 24.2564 67.778 24.3585C67.6649 24.4607 67.5738 24.5848 67.5021 24.7256C67.4303 24.8663 67.389 25.0181 67.3779 25.1781H69.8146H69.8118Z" fill="#949494"/>
<path d="M72.2376 23.496C72.2487 23.6008 72.2569 23.7167 72.2624 23.8464C72.268 23.9761 72.2707 24.0837 72.2707 24.1693H72.2956C72.348 24.0589 72.417 23.9568 72.5081 23.863C72.5964 23.7691 72.6985 23.6836 72.8144 23.6119C72.9303 23.5401 73.0572 23.4849 73.1952 23.4435C73.3332 23.4021 73.4767 23.3828 73.6257 23.3828C73.8906 23.3828 74.1169 23.427 74.3073 23.518C74.4977 23.6063 74.655 23.7278 74.7819 23.8768C74.9089 24.0258 75.0027 24.2024 75.0634 24.4038C75.1241 24.6053 75.1545 24.8205 75.1545 25.0523V27.5911H74.3432V25.32C74.3432 25.1544 74.3294 24.9944 74.3045 24.8454C74.2797 24.6964 74.23 24.5639 74.161 24.448C74.092 24.3321 73.9982 24.241 73.8768 24.172C73.7554 24.1031 73.6008 24.0672 73.4104 24.0672C73.0876 24.0672 72.8254 24.1886 72.6212 24.4342C72.417 24.6798 72.3149 25.0054 72.3149 25.4138V27.5911H71.5036V24.379C71.5036 24.2686 71.5008 24.1279 71.4953 23.9568C71.4898 23.7829 71.4815 23.6312 71.4705 23.4987H72.2404L72.2376 23.496Z" fill="#949494"/>
<path d="M78.2753 24.1601H77.1881V26.2877C77.1881 26.5361 77.235 26.71 77.326 26.8176C77.4171 26.9252 77.5661 26.9776 77.7676 26.9776C77.8421 26.9776 77.9221 26.9693 78.0104 26.9528C78.096 26.9362 78.1732 26.9142 78.245 26.881L78.2698 27.5461C78.1705 27.5792 78.0628 27.6068 77.9469 27.6289C77.8283 27.6482 77.7069 27.6592 77.5799 27.6592C77.1936 27.6592 76.8983 27.5516 76.6941 27.3391C76.4899 27.1266 76.3878 26.8065 76.3878 26.3816V24.1629H75.6013V23.4978H76.3878V22.3223H77.1908V23.4978H78.2781V24.1629L78.2753 24.1601Z" fill="#949494"/>
</g>
<defs>
<clipPath id="clip0_13821_23500">
<rect width="90" height="29.5576" fill="white" transform="translate(0.646484 0.105469)"/>
</clipPath>
</defs>
</svg>
