<svg width="949" height="339" viewBox="0 0 949 339" fill="none" xmlns="http://www.w3.org/2000/svg">
<g clip-path="url(#clip0_7_157)">
<path d="M608.271 300.763V328.953C608.271 335.623 612.387 338.236 619.523 338.236H675.992V328.953H621.581C619.797 328.953 619.248 328.335 619.248 326.272V303.444C619.248 301.382 619.797 300.763 621.581 300.763H675.992V291.48H619.523C612.386 291.48 608.271 294.093 608.271 300.763Z" fill="#949494"/>
<path d="M146.419 300.898H100.037C93.1758 300.898 89.0598 303.511 89.0598 310.181V328.951C89.0598 335.621 93.1758 338.234 100.037 338.234H146.419C153.555 338.234 157.671 335.621 157.671 328.951V310.181C157.671 303.512 153.555 300.898 146.419 300.898ZM147.449 326.614C147.449 328.677 146.9 329.296 145.116 329.296H101.616C99.8318 329.296 99.2828 328.677 99.2828 326.614V312.518C99.2828 310.456 99.8318 309.837 101.616 309.837H145.116C146.9 309.837 147.449 310.456 147.449 312.518V326.614Z" fill="#949494"/>
<path d="M574.493 295.262C572.367 291.755 571.405 291.48 566.397 291.48H554.459C549.999 291.48 548.696 291.755 546.638 295.124L520.291 338.235H532.777L538.297 328.951H582.422L587.872 338.235H600.635L574.493 295.261V295.262ZM543.467 320.256L554.526 301.657C555.349 300.281 555.624 300.076 558.437 300.076H563.172C565.162 300.076 565.505 300.145 566.397 301.657L577.317 320.256H543.468H543.467Z" fill="#949494"/>
<path d="M810.856 300.763H865.815V291.48H808.798C801.661 291.48 797.546 294.093 797.546 300.763V328.953C797.546 335.623 801.662 338.236 808.798 338.236H865.815V310.114H823.481V318.777H855.317V328.953H810.856C809.072 328.953 808.523 328.335 808.523 326.272V303.444C808.523 301.382 809.072 300.763 810.856 300.763Z" fill="#949494"/>
<path d="M772.391 328.403C772.391 329.228 772.013 329.434 770.847 329.434C769.27 329.434 768.994 329.297 767.898 328.128L736.611 294.162C734.69 292.03 733.936 291.48 728.034 291.48H720.281C716.918 291.48 715.065 292.167 715.065 296.362V338.236H725.666V301.588C725.666 300.763 725.907 300.282 727.074 300.282C728.72 300.282 729.064 300.42 730.162 301.588L761.448 335.554C763.369 337.686 764.125 338.236 770.025 338.236H777.778C781.141 338.236 782.994 337.549 782.994 333.354V291.48H772.393V328.403H772.391Z" fill="#949494"/>
<path d="M701.599 291.48H690.62V338.236H701.599V291.48Z" fill="#949494"/>
<path d="M486.045 319.673L499.062 319.671C506.199 319.671 510.314 318.502 510.314 311.833V300.763C510.314 294.094 506.198 291.48 499.062 291.48H442.045V338.236H453.024V300.763H497.004C498.788 300.763 499.337 301.382 499.337 303.444V309.495C499.337 311.557 498.788 312.176 497.004 312.176H475.048C472.646 312.176 472.166 313.001 472.166 314.858V318.365C472.166 320.359 472.647 321.116 475.46 323.041L497.881 338.232L515.725 338.236L486.045 319.673Z" fill="#949494"/>
<path d="M394.08 300.898H343.856V309.493H393.12C394.904 309.493 395.453 310.112 395.453 312.174V315.475H347.287C340.15 315.475 336.035 317.331 336.035 323.657V329.364C336.035 335.758 340.151 338.234 347.287 338.234H405.332V310.181C405.332 303.512 401.216 300.898 394.08 300.898ZM395.454 330.052H348.316C346.533 330.052 345.984 329.433 345.984 327.439V326.063C345.984 324.069 346.533 323.45 348.316 323.45H395.454V330.052Z" fill="#949494"/>
<path d="M311.755 286.461V300.9H264.687C257.826 300.9 253.71 303.513 253.71 310.183V328.953C253.71 335.623 257.826 338.236 264.687 338.236H321.979V286.461H311.755ZM311.755 329.298H266.266C264.482 329.298 263.933 328.679 263.933 326.616V312.52C263.933 310.458 264.482 309.839 266.266 309.839H311.755V329.298Z" fill="#949494"/>
<path d="M228.402 300.898H171.728V338.234H181.952V309.837H227.099C228.883 309.837 229.431 310.456 229.431 312.518V338.234H239.655V310.181C239.655 303.512 235.538 300.898 228.403 300.898H228.402Z" fill="#949494"/>
<path d="M64.0249 309.77H18.0549V291.48H7.0769V338.236H18.0549V318.434H64.0249V338.236H75.0039V291.48H64.0249V309.77Z" fill="#949494"/>
<path d="M417.18 142.153C390.419 168.497 389.306 208.519 410.601 235.688C420.935 248.873 433.756 256.724 450.022 260.615C467.064 264.691 491.441 263.945 510.827 263.945H861.879L881.354 193.942C881.354 193.942 809.593 193.942 769.412 193.942C752.01 193.942 730.676 194.724 715.515 185.993C699.487 176.764 694.104 159.741 697.565 142.153H590.865C586.375 160.301 585.978 177.472 589.116 192.933C589.116 192.933 530.225 192.921 515.293 192.872C506.893 192.83 502.794 188.925 501.985 184.008C501.369 179.747 503.621 176.473 506.619 174.424C509.522 172.44 511.665 170.971 514.248 169.256C520.266 165.261 555.257 142.152 555.257 142.152C555.257 142.152 417.274 142.152 417.178 142.152L417.18 142.153Z" fill="#949494"/>
<path d="M14.116 263.966H120.688L148.857 170.572H274.343L247.562 263.966H354.135L389.064 142.152H49.046L14.116 263.966Z" fill="#949494"/>
<path d="M593.801 132.001H700.483C706.93 114.987 720.436 100.416 736.255 91.6271C754.47 81.5071 774.534 81.3341 794.809 81.3271C834.591 81.3131 913.224 81.2741 913.224 81.2741L934.627 10.2261C934.627 10.2261 816.291 9.97813 771.301 9.99713C745.687 10.0081 721.063 12.7341 697.312 22.9371C675.254 32.4131 655.009 46.1541 637.861 62.9391C618.208 82.1781 602.379 105.763 593.801 132V132.001Z" fill="#949494"/>
<path d="M429.82 132.002H568.231C585.98 115.209 593.173 88.8401 587.721 65.2291C585.068 53.7391 579.489 43.0321 571.72 34.1731C564.149 25.5401 554.481 18.2471 543.567 14.4611C531.826 10.3881 518.92 10.4891 506.638 10.3291C497.207 10.2061 324.088 10.2191 320.89 10.2191L293.724 99.5241H167.869L193.476 10.2241H86.9039L51.9839 132.003H392.003L406.55 81.2691C414.641 81.2711 468.978 81.1851 471.68 81.3011C473.879 81.3951 476.248 81.5631 478.193 82.7011C482.2 85.0451 483.439 90.7841 481.938 94.9271C480.59 98.6481 476.84 101.168 473.718 103.317C469.614 106.141 465.334 108.708 461.138 111.392C450.607 118.128 440.94 124.488 429.82 132.002Z" fill="#949494"/>
</g>
<defs>
<clipPath id="clip0_7_157">
<rect width="948.642" height="338.237" fill="white"/>
</clipPath>
</defs>
</svg>
