<svg width="98" height="28" viewBox="0 0 98 28" fill="none" xmlns="http://www.w3.org/2000/svg">
<path fill-rule="evenodd" clip-rule="evenodd" d="M13.1254 2.72621L14.5275 2.89118C15.1568 2.96279 15.2248 3.48709 15.2248 3.82213V5.47689H8.76134V3.82213C8.76134 3.48709 8.82927 2.96151 9.45857 2.89118L10.8607 2.72621V1.30931H2.46582V2.72493L3.86796 2.8899C4.49597 2.96151 4.56518 3.48581 4.56518 3.82086V9.24676C4.56518 9.58309 4.49725 10.1074 3.86796 10.179L2.46582 10.3427V11.7596H10.862V10.3427L9.45985 10.179C8.83055 10.1087 8.76263 9.58309 8.76263 9.24676V7.59201H15.226V9.24676C15.226 9.58309 15.1581 10.1074 14.5288 10.179L13.1267 10.3427V11.7596H21.5229V10.3427L20.1207 10.179C19.4927 10.1087 19.4235 9.58309 19.4235 9.24676V3.82213C19.4235 3.48709 19.4914 2.96151 20.1207 2.89118L21.5229 2.72621V1.30931H13.1267V2.72493" fill="#DE1C21"/>
<path fill-rule="evenodd" clip-rule="evenodd" d="M69.1159 1.30931H58.7498V2.72493L59.9879 2.85537C60.4275 2.90908 60.7197 3.09834 60.7197 3.70832V9.24676C60.7197 9.58309 60.6518 10.1074 60.0225 10.179L58.6204 10.3427V11.7596H69.1146C72.8686 11.7583 75.9574 10.2493 75.9574 6.53317C75.9574 2.81701 72.8686 1.30931 69.1146 1.30931H69.1159ZM68.352 9.757H64.8351V3.3119H68.352C70.427 3.3119 71.1319 4.29401 71.1319 6.53445C71.1319 8.77489 70.427 9.757 68.352 9.757Z" fill="#DE1C21"/>
<path fill-rule="evenodd" clip-rule="evenodd" d="M93.6046 10.1943C92.942 10.1163 92.7331 9.68923 92.5267 9.37464L87.6936 2.00497C87.3463 1.47427 87.0951 1.30931 86.5785 1.30931H78.622V2.72493L80.5188 2.94105C80.779 2.97046 81.1533 3.33236 80.8521 3.82213L77.2826 9.61761C77.1365 9.85291 76.9571 10.1266 76.5431 10.1816L75.123 10.3427V11.7596H81.8313V10.3427L80.6752 10.225C80.1818 10.1726 79.919 9.82861 80.1625 9.42835L80.6996 8.55622H87.1399L87.6154 9.27873C88.0332 9.91301 87.5077 10.1713 87.0515 10.2212L85.8647 10.3414V11.7583H94.9401V10.3414L93.6059 10.1931L93.6046 10.1943ZM81.8377 6.70836L83.8204 3.49093L85.93 6.70836H81.8377Z" fill="#DE1C21"/>
<path fill-rule="evenodd" clip-rule="evenodd" d="M51.2535 2.72621L52.6556 2.89118C53.2836 2.96279 53.3528 3.48709 53.3528 3.82213V9.04983L47.8083 1.75433C47.5571 1.41929 47.3418 1.30931 46.7458 1.30931H39.5442V2.72493L40.9463 2.8899C41.5743 2.96151 41.6435 3.48581 41.6435 3.82086V9.24676C41.6435 9.58309 41.5756 10.1074 40.9463 10.179L39.5442 10.3427V11.7596H46.2524V10.3427L44.8503 10.179C44.2223 10.1087 44.153 9.58309 44.153 9.24676V4.01907L49.6975 11.3158C49.9487 11.6509 50.164 11.7609 50.76 11.7609H55.8623V3.82213C55.8623 3.48709 55.9302 2.96151 56.5595 2.89118L57.9617 2.72621V1.30931H51.2535V2.72493" fill="#DE1C21"/>
<path fill-rule="evenodd" clip-rule="evenodd" d="M30.5158 0.949997C23.6961 0.949997 21.9351 3.92702 21.9351 6.53448C21.9351 9.14193 23.6961 12.119 30.5158 12.119C37.3355 12.119 39.0965 9.14193 39.0965 6.53448C39.0965 3.92702 37.3342 0.949997 30.5158 0.949997ZM30.5158 10.1266C27.8717 10.1266 26.7708 9.02044 26.7708 6.5332C26.7708 4.04595 27.8717 2.9398 30.5158 2.9398C33.1599 2.9398 34.2608 4.04595 34.2608 6.5332C34.2608 9.02044 33.1599 10.1266 30.5158 10.1266Z" fill="#DE1C21"/>
<path fill-rule="evenodd" clip-rule="evenodd" d="M48.7077 15.9424L97.0392 15.1036V14.6854L48.7038 13.8491L0.371094 14.6854V15.1036L48.7077 15.9424Z" fill="#002D74"/>
<path fill-rule="evenodd" clip-rule="evenodd" d="M37.5061 22.9568C37.5061 19.6383 35.8143 18.0181 32.4 18.0181H27.0695C23.6552 18.0181 21.9634 19.6383 21.9634 22.9568V27.8903H26.057L26.0544 22.5949C26.0544 20.8122 26.8824 19.99 28.728 19.99H30.7364C32.5819 19.99 33.4099 20.8109 33.4099 22.5949L33.4125 22.9516H27.0785V24.9312L33.4125 24.9286V27.8903H37.5061V22.9568Z" fill="#002D74"/>
<path fill-rule="evenodd" clip-rule="evenodd" d="M77.3894 22.958C77.3894 19.6396 75.6976 18.0193 72.2832 18.0193L62.6631 18.013V27.8903H66.7542V19.99H70.6196C72.4652 19.9912 73.2932 20.8122 73.2932 22.5961L73.2958 27.8903H77.3894V22.958Z" fill="#002D74"/>
<path fill-rule="evenodd" clip-rule="evenodd" d="M7.64819 19.9925V27.8903H3.55713V18.0193H14.814C18.2283 18.0193 19.9201 19.637 19.9201 22.9555L19.9227 27.889H15.8316V22.5974C15.8316 20.8148 15.0062 19.9912 13.1593 19.9912H7.64819" fill="#002D74"/>
<path fill-rule="evenodd" clip-rule="evenodd" d="M10.1072 20.3863V27.8902H13.3805V21.3697L10.1072 20.3863Z" fill="#002D74"/>
<path fill-rule="evenodd" clip-rule="evenodd" d="M51.9486 24.7483C53.6519 24.2905 54.6952 22.9964 54.6952 21.4695C54.6952 19.5616 53.0624 18.013 50.549 18.013H39.5498V27.8903H43.6409V19.99H48.4997C49.9261 19.99 50.6003 20.6537 50.6003 21.4708C50.6003 22.288 49.939 22.9516 48.4997 22.9516H44.8661L49.3635 27.8891H54.8118L51.9499 24.7471" fill="#002D74"/>
<path fill-rule="evenodd" clip-rule="evenodd" d="M83.5311 25.9171H93.8613V27.8903H79.4375V22.9567C79.4375 19.6383 81.1293 18.0193 84.5436 18.0193H93.8613V19.9925H86.2021C84.3565 19.9925 83.5286 20.816 83.5286 22.5974L83.5311 25.9171Z" fill="#002D74"/>
<path d="M92.8433 21.9683H84.5471V23.944H92.8433V21.9683Z" fill="#002D74"/>
<path fill-rule="evenodd" clip-rule="evenodd" d="M56.5215 18.0129V21.568L60.8407 18.0168L56.5215 18.0129Z" fill="#002D74"/>
<path fill-rule="evenodd" clip-rule="evenodd" d="M56.5215 22.8646V27.8902H60.6151V19.5001L56.5215 22.8646Z" fill="#002D74"/>
</svg>
