<svg width="97" height="28" viewBox="0 0 97 28" fill="none" xmlns="http://www.w3.org/2000/svg">
<path fill-rule="evenodd" clip-rule="evenodd" d="M13.0155 2.19034L14.4177 2.3553C15.047 2.42691 15.1149 2.95122 15.1149 3.28626V4.94102H8.65148V3.28626C8.65148 2.95122 8.71941 2.42564 9.34871 2.3553L10.7508 2.19034V0.773438H2.35596V2.18906L3.7581 2.35402C4.38611 2.42564 4.45532 2.94994 4.45532 3.28498V8.71089C4.45532 9.04721 4.38739 9.57152 3.7581 9.64313L2.35596 9.80682V11.2237H10.7521V9.80682L9.34999 9.64313C8.72069 9.5728 8.65276 9.04721 8.65276 8.71089V7.05614H15.1162V8.71089C15.1162 9.04721 15.0483 9.57152 14.419 9.64313L13.0168 9.80682V11.2237H21.413V9.80682L20.0109 9.64313C19.3828 9.5728 19.3136 9.04721 19.3136 8.71089V3.28626C19.3136 2.95122 19.3816 2.42564 20.0109 2.3553L21.413 2.19034V0.773438H13.0168V2.18906" fill="#949494"/>
<path fill-rule="evenodd" clip-rule="evenodd" d="M69.006 0.773438H58.6399V2.18906L59.878 2.3195C60.3176 2.3732 60.6099 2.56247 60.6099 3.17245V8.71089C60.6099 9.04721 60.5419 9.57152 59.9126 9.64313L58.5105 9.80682V11.2237H69.0047C72.7587 11.2224 75.8475 9.71346 75.8475 5.9973C75.8475 2.28113 72.7587 0.773438 69.0047 0.773438H69.006ZM68.2422 9.22113H64.7253V2.77602H68.2422C70.3172 2.77602 71.0221 3.75813 71.0221 5.99858C71.0221 8.23902 70.3172 9.22113 68.2422 9.22113Z" fill="#949494"/>
<path fill-rule="evenodd" clip-rule="evenodd" d="M93.4948 9.65848C92.8321 9.58047 92.6232 9.15335 92.4169 8.83877L87.5837 1.4691C87.2364 0.938401 86.9852 0.773438 86.4687 0.773438H78.5121V2.18906L80.409 2.40517C80.6692 2.43459 81.0434 2.79648 80.7422 3.28626L77.1728 9.08174C77.0267 9.31704 76.8472 9.5907 76.4333 9.64569L75.0132 9.80682V11.2237H81.7214V9.80682L80.5653 9.68917C80.0719 9.63674 79.8092 9.29274 80.0527 8.89248L80.5897 8.02034H87.03L87.5055 8.74286C87.9234 9.37714 87.3979 9.63546 86.9416 9.68533L85.7548 9.80554V11.2224H94.8302V9.80554L93.496 9.6572L93.4948 9.65848ZM81.7278 6.17249L83.7105 2.95505L85.8202 6.17249H81.7278Z" fill="#949494"/>
<path fill-rule="evenodd" clip-rule="evenodd" d="M51.1436 2.19034L52.5457 2.3553C53.1737 2.42691 53.243 2.95122 53.243 3.28626V8.51396L47.6985 1.21846C47.4473 0.883414 47.232 0.773438 46.636 0.773438H39.4343V2.18906L40.8365 2.35402C41.4645 2.42564 41.5337 2.94994 41.5337 3.28498V8.71089C41.5337 9.04721 41.4658 9.57152 40.8365 9.64313L39.4343 9.80682V11.2237H46.1425V9.80682L44.7404 9.64313C44.1124 9.5728 44.0432 9.04721 44.0432 8.71089V3.4832L49.5876 10.78C49.8389 11.115 50.0542 11.225 50.6501 11.225H55.7524V3.28626C55.7524 2.95122 55.8204 2.42564 56.4497 2.3553L57.8518 2.19034V0.773438H51.1436V2.18906" fill="#949494"/>
<path fill-rule="evenodd" clip-rule="evenodd" d="M30.4059 0.414062C23.5862 0.414062 21.8252 3.39109 21.8252 5.99854C21.8252 8.606 23.5862 11.583 30.4059 11.583C37.2256 11.583 38.9866 8.606 38.9866 5.99854C38.9866 3.39109 37.2244 0.414062 30.4059 0.414062ZM30.4059 9.59066C27.7619 9.59066 26.6609 8.48451 26.6609 5.99726C26.6609 3.51001 27.7619 2.40386 30.4059 2.40386C33.05 2.40386 34.1509 3.51001 34.1509 5.99726C34.1509 8.48451 33.05 9.59066 30.4059 9.59066Z" fill="#949494"/>
<path fill-rule="evenodd" clip-rule="evenodd" d="M48.5978 15.4059L96.9293 14.567V14.1488L48.594 13.3125L0.26123 14.1488V14.567L48.5978 15.4059Z" fill="#949494"/>
<path fill-rule="evenodd" clip-rule="evenodd" d="M37.3962 22.4211C37.3962 19.1026 35.7044 17.4824 32.2901 17.4824H26.9597C23.5453 17.4824 21.8535 19.1026 21.8535 22.4211V27.3547H25.9471L25.9446 22.0592C25.9446 20.2766 26.7725 19.4543 28.6181 19.4543H30.6265C32.4721 19.4543 33.3 20.2753 33.3 22.0592L33.3026 22.416H26.9686V24.3956L33.3026 24.393V27.3547H37.3962V22.4211Z" fill="#949494"/>
<path fill-rule="evenodd" clip-rule="evenodd" d="M77.2795 22.4216C77.2795 19.1032 75.5877 17.483 72.1734 17.483L62.5532 17.4766V27.3539H66.6443V19.4536H70.5098C72.3554 19.4549 73.1833 20.2758 73.1833 22.0597L73.1859 27.3539H77.2795V22.4216Z" fill="#949494"/>
<path fill-rule="evenodd" clip-rule="evenodd" d="M7.53833 19.4556V27.3534H3.44727V17.4824H14.7041C18.1185 17.4824 19.8102 19.1001 19.8102 22.4186L19.8128 27.3521H15.7217V22.0605C15.7217 20.2779 14.8964 19.4543 13.0495 19.4543H7.53833" fill="#949494"/>
<path fill-rule="evenodd" clip-rule="evenodd" d="M9.99731 19.8496V27.3536H13.2707V20.833L9.99731 19.8496Z" fill="#949494"/>
<path fill-rule="evenodd" clip-rule="evenodd" d="M51.8387 24.212C53.5421 23.7541 54.5853 22.46 54.5853 20.9331C54.5853 19.0252 52.9525 17.4766 50.4392 17.4766H39.4399V27.3539H43.531V19.4536H48.3898C49.8163 19.4536 50.4904 20.1173 50.4904 20.9344C50.4904 21.7516 49.8291 22.4153 48.3898 22.4153H44.7563L49.2536 27.3527H54.702L51.84 24.2107" fill="#949494"/>
<path fill-rule="evenodd" clip-rule="evenodd" d="M83.4213 25.3802H93.7515V27.3534H79.3276V22.4198C79.3276 19.1014 81.0194 17.4824 84.4338 17.4824H93.7515V19.4556H86.0922C84.2467 19.4556 83.4187 20.2791 83.4187 22.0605L83.4213 25.3802Z" fill="#949494"/>
<path d="M92.7335 21.4316H84.4373V23.4074H92.7335V21.4316Z" fill="#949494"/>
<path fill-rule="evenodd" clip-rule="evenodd" d="M56.4116 17.4766V21.0316L60.7308 17.4804L56.4116 17.4766Z" fill="#949494"/>
<path fill-rule="evenodd" clip-rule="evenodd" d="M56.4116 22.3274V27.353H60.5052V18.9629L56.4116 22.3274Z" fill="#949494"/>
</svg>
