<svg width="90" height="30" viewBox="0 0 90 30" fill="none" xmlns="http://www.w3.org/2000/svg">
<g clip-path="url(#clip0_485_455)">
<path d="M77.2729 5.66261H81.2356L79.2349 2.51948L77.2729 5.66261ZM70.73 10.5856V9.21967L72.1098 9.06238C72.5899 9.00167 72.7914 8.56566 72.8493 8.46631L76.2905 2.86443C76.5719 2.4229 76.296 2.03656 75.9373 1.99793L74.1297 1.78544V0.400146H81.9752C82.4167 0.400146 82.6954 0.700938 82.8775 0.960335L87.4584 7.96684C87.8171 8.52702 88.0986 8.96579 88.5594 9.0265L89.9999 9.18656V10.5884H81.1749V9.20587L82.2953 9.06514C82.8361 9.00443 83.2749 8.76435 82.8361 8.10481L82.4167 7.4646H76.1525L75.6723 8.24555C75.3715 8.72571 75.6723 9.00443 76.1332 9.06514L77.2536 9.20587V10.5884H70.73" fill="#DE1C21"/>
<path d="M63.3232 8.62636H60.7209V2.34286H63.3232C65.804 2.34286 66.8444 2.92236 66.8444 5.48323C66.8444 8.04409 65.804 8.62636 63.3232 8.62636ZM64.8851 0.402893H54.7934V1.78267L56.0546 1.91237C56.5292 1.98136 56.7196 2.32354 56.7196 2.78163V8.26486C56.7196 8.64567 56.5595 9.00441 56.1401 9.06512L54.7852 9.24174V10.5829L64.8851 10.5884C69.5294 10.5884 71.5301 8.32832 71.5301 5.34525C71.5301 2.66297 69.5294 0.402893 64.8851 0.402893Z" fill="#DE1C21"/>
<path d="M-0.000170136 10.5857H8.16534V9.22519L6.76625 9.06514C6.44614 9.0265 6.12603 8.82506 6.12603 8.14345V6.50151H12.4095V8.06342C12.4095 8.52427 12.3295 8.96303 11.7886 9.02374L10.3675 9.1838V10.5857H18.533V9.1838L17.0925 9.02374C16.8138 8.98511 16.4909 8.76435 16.4909 8.18208V2.88098C16.4909 2.34011 16.6924 1.98137 17.1118 1.93998L18.533 1.77992V0.400146H10.3675V1.76061L11.7886 1.93998C12.2688 2.00069 12.4095 2.3815 12.4095 2.88098V4.46221H6.12603V2.86167C6.12603 2.26008 6.36611 1.98137 6.78557 1.93998L8.16534 1.77992V0.400146H0.0191467V1.77992L1.37961 1.93998C1.92048 2.00069 2.05846 2.40082 2.03914 2.91962V8.08274C2.03914 8.66224 1.87908 9.00443 1.35753 9.06238L-0.00292969 9.22243V10.5829" fill="#DE1C21"/>
<path d="M27.2587 1.96204C24.9379 1.96204 23.6161 2.82302 23.6161 5.46391C23.6161 8.1048 24.9379 9.00442 27.2587 9.00442C29.5795 9.00442 30.9013 8.14344 30.9013 5.46391C30.9013 2.78439 29.5795 1.96204 27.2587 1.96204ZM18.9331 5.44459C18.9331 2.24351 21.5133 0 27.278 0C33.0427 0 35.5842 2.24351 35.5842 5.44459C35.5842 8.64567 33.0013 10.9471 27.278 10.9471C21.5547 10.9471 18.9331 8.7257 18.9331 5.44459Z" fill="#DE1C21"/>
<path d="M36.0368 10.5857H42.5603V9.2252L41.1585 9.06515C40.7584 9.02652 40.5183 8.68985 40.5183 8.22349V3.04381L45.9408 10.1883C46.1202 10.4284 46.4596 10.5884 46.7825 10.5884H51.9042V2.86168C51.9042 2.50018 52.0008 2.00346 52.5251 1.93999L53.9463 1.77993V0.400159H47.4227V1.76062L48.8438 1.93999C49.3461 2.0007 49.4647 2.42015 49.4647 2.90031V7.94201L44.0809 0.838928C43.8822 0.57953 43.62 0.3974 43.2392 0.3974H36.034V1.77718L37.3945 1.93723C37.8746 2.00898 38.054 2.25182 38.054 2.91687V8.07999C38.054 8.69261 37.8884 8.98512 37.3724 9.05963L36.0312 9.21968V10.5801" fill="#DE1C21"/>
<path d="M11.6616 21.37H13.5271C13.8555 21.37 14.1535 21.4031 14.4267 21.4693C14.6999 21.5356 14.9262 21.6377 15.1166 21.7756C15.307 21.9136 15.4532 22.0902 15.5581 22.3027C15.663 22.5152 15.7126 22.7718 15.7126 23.0726C15.7126 23.3734 15.6575 23.6411 15.5443 23.8591C15.4312 24.0771 15.2766 24.2565 15.0779 24.3945C14.8793 24.5324 14.6419 24.6345 14.3687 24.7008C14.0955 24.767 13.8003 24.8001 13.4829 24.8001H12.5171V27.4852H11.6616V21.37ZM12.5171 24.0744H13.425C13.6319 24.0744 13.8223 24.055 13.999 24.0192C14.1756 23.9805 14.3246 23.9226 14.4515 23.8453C14.5785 23.768 14.6751 23.6659 14.744 23.539C14.813 23.4121 14.8489 23.2575 14.8489 23.0726C14.8489 22.8877 14.813 22.7332 14.7413 22.6118C14.6695 22.4904 14.5702 22.3883 14.4488 22.3082C14.3273 22.2282 14.1756 22.1758 14.0045 22.1454C13.8306 22.1151 13.6457 22.0985 13.4415 22.0985H12.5171V24.0771V24.0744Z" fill="black"/>
<path d="M19.9955 25.4292C19.9955 25.7466 19.9403 26.0363 19.8272 26.3013C19.7141 26.5662 19.5595 26.7952 19.3608 26.9884C19.1621 27.1816 18.9276 27.3306 18.6571 27.4382C18.3867 27.5458 18.0942 27.5983 17.7851 27.5983C17.4761 27.5983 17.1835 27.5458 16.9131 27.4382C16.6427 27.3306 16.4081 27.1816 16.2122 26.9884C16.0163 26.7952 15.8617 26.5662 15.7513 26.3013C15.6382 26.0363 15.583 25.7466 15.583 25.4292C15.583 25.1119 15.6382 24.8221 15.7513 24.56C15.8645 24.2978 16.019 24.0715 16.2122 23.8811C16.4081 23.6907 16.6399 23.5417 16.9131 23.4368C17.1835 23.3292 17.4733 23.2768 17.7851 23.2768C18.097 23.2768 18.3867 23.3292 18.6571 23.4368C18.9276 23.5445 19.1621 23.6907 19.3608 23.8811C19.5595 24.0715 19.7141 24.2978 19.8272 24.56C19.9403 24.8221 19.9955 25.1119 19.9955 25.4292ZM19.1483 25.4348C19.1483 25.2388 19.118 25.0539 19.0573 24.8746C18.9966 24.698 18.9083 24.5407 18.7924 24.4055C18.6765 24.2702 18.533 24.1626 18.3646 24.0826C18.1935 24.0026 18.0004 23.9612 17.7796 23.9612C17.5588 23.9612 17.3657 24.0026 17.1946 24.0826C17.0235 24.1626 16.88 24.2702 16.7669 24.4055C16.651 24.5407 16.5626 24.698 16.5019 24.8746C16.4412 25.0539 16.4109 25.2388 16.4109 25.4348C16.4109 25.6307 16.4412 25.8156 16.5019 25.995C16.5626 26.1743 16.651 26.3316 16.7669 26.4696C16.8828 26.6076 17.0263 26.7152 17.1946 26.798C17.3629 26.8808 17.5588 26.9194 17.7796 26.9194C18.0004 26.9194 18.1935 26.878 18.3646 26.798C18.5357 26.718 18.6765 26.6076 18.7924 26.4696C18.9083 26.3316 18.9966 26.1743 19.0573 25.995C19.118 25.8183 19.1483 25.6307 19.1483 25.4348Z" fill="black"/>
<path d="M21.0912 23.39L22.0157 26.5165H22.0322L23.0091 23.39H23.8646L24.858 26.5165H24.8746L25.799 23.39H26.6545L25.2995 27.4851H24.4524L23.4424 24.411H23.4258L22.4241 27.4851H21.5769L20.2109 23.39H21.0912Z" fill="black"/>
<path d="M31.034 25.4017V25.5396C31.034 25.5866 31.0312 25.6307 31.0257 25.6776H27.7694C27.775 25.8487 27.8136 26.0115 27.8853 26.1633C27.9571 26.3151 28.0537 26.4475 28.1751 26.5579C28.2965 26.6683 28.4345 26.7566 28.5945 26.8201C28.7546 26.8835 28.9202 26.9139 29.0995 26.9139C29.3755 26.9139 29.6156 26.8532 29.817 26.7318C30.0185 26.6103 30.1758 26.4641 30.2917 26.2902L30.8629 26.7483C30.6449 27.0381 30.3855 27.2533 30.0902 27.3885C29.795 27.5265 29.4638 27.5927 29.1023 27.5927C28.7905 27.5927 28.5035 27.5403 28.2386 27.4382C27.9736 27.3361 27.7474 27.1899 27.557 27.0022C27.3665 26.8146 27.2175 26.5883 27.1072 26.3234C26.9968 26.0584 26.9443 25.7659 26.9443 25.4431C26.9443 25.1202 26.9968 24.8332 27.1044 24.5655C27.212 24.2978 27.361 24.0688 27.5514 23.8784C27.7418 23.688 27.9681 23.539 28.2275 23.4341C28.4869 23.3265 28.7656 23.274 29.0664 23.274C29.3672 23.274 29.6377 23.3237 29.8833 23.4203C30.1289 23.5196 30.3358 23.6604 30.5069 23.8425C30.678 24.0274 30.8077 24.2509 30.9015 24.5103C30.9926 24.7725 31.0395 25.0678 31.0395 25.3961L31.034 25.4017ZM30.2061 25.0733C30.2006 24.9132 30.173 24.7614 30.1233 24.6207C30.0737 24.48 30.0019 24.3558 29.9081 24.2537C29.8115 24.1488 29.6956 24.0688 29.5549 24.0081C29.4141 23.9474 29.2486 23.917 29.0582 23.917C28.8843 23.917 28.7215 23.9474 28.5697 24.0081C28.4179 24.0688 28.2855 24.1516 28.1723 24.2537C28.0592 24.3558 27.9681 24.48 27.8964 24.6207C27.8246 24.7614 27.7832 24.9132 27.7722 25.0733H30.2089H30.2061Z" fill="black"/>
<path d="M31.8896 23.848C31.8841 23.6742 31.8758 23.5224 31.8647 23.3899H32.6347C32.6457 23.4948 32.654 23.6135 32.6595 23.7487C32.665 23.8839 32.6678 23.9943 32.6678 24.0798H32.6926C32.8085 23.837 32.9768 23.6438 33.1976 23.4976C33.4184 23.3513 33.6695 23.2768 33.9454 23.2768C34.0724 23.2768 34.18 23.2878 34.2656 23.3127L34.2324 24.0633C34.1165 24.0357 33.9924 24.0191 33.8599 24.0191C33.664 24.0191 33.4956 24.055 33.3494 24.1267C33.2059 24.1985 33.0872 24.2951 32.9906 24.4165C32.8941 24.5379 32.8251 24.6759 32.7782 24.8359C32.7312 24.9932 32.7092 25.1588 32.7092 25.3327V27.4823H31.8979V24.2702C31.8979 24.1599 31.8951 24.0191 31.8896 23.848Z" fill="black"/>
<path d="M37.563 26.7235H40.7585V27.4824H36.7075V21.3672H40.6288V22.1178H37.563V23.9501H40.4467V24.6842H37.563V26.7235Z" fill="black"/>
<path d="M44.8345 26.8698C44.6855 27.1016 44.4785 27.2782 44.2164 27.4051C43.9542 27.5321 43.6755 27.5955 43.383 27.5955C43.0656 27.5955 42.7814 27.5403 42.5275 27.4272C42.2737 27.3141 42.0584 27.1623 41.879 26.9664C41.6997 26.7704 41.5617 26.5414 41.4651 26.2765C41.3658 26.0116 41.3188 25.7301 41.3188 25.4293C41.3188 25.1285 41.3685 24.8498 41.4651 24.5876C41.5617 24.3255 41.7024 24.0964 41.8846 23.9005C42.0667 23.7046 42.2819 23.5528 42.5358 23.4424C42.7897 23.332 43.0684 23.2796 43.3747 23.2796C43.7086 23.2796 44.0039 23.3513 44.2605 23.4921C44.5172 23.6328 44.7131 23.8122 44.8511 24.033H44.8759V23.3927H45.6624V29.5603H44.8511V26.8753H44.8345V26.8698ZM42.166 25.4265C42.166 25.6169 42.1936 25.8018 42.2516 25.9784C42.3095 26.1551 42.3951 26.3151 42.511 26.4531C42.6269 26.5911 42.7676 26.7014 42.9332 26.787C43.0988 26.8698 43.2947 26.9112 43.521 26.9112C43.7279 26.9112 43.9156 26.8698 44.0867 26.7898C44.2578 26.7097 44.4013 26.6021 44.5227 26.4669C44.6441 26.3317 44.7379 26.1744 44.8042 25.995C44.8704 25.8156 44.9035 25.6307 44.9035 25.4321C44.9035 25.2334 44.8704 25.0485 44.8042 24.8719C44.7379 24.6925 44.6441 24.5352 44.5227 24.3972C44.4013 24.2592 44.255 24.1489 44.0867 24.0688C43.9156 23.9888 43.7279 23.9474 43.521 23.9474C43.2974 23.9474 43.1015 23.9888 42.9332 24.0688C42.7676 24.1489 42.6241 24.2592 42.511 24.3972C42.3951 24.5352 42.3095 24.6925 42.2516 24.8719C42.1936 25.0512 42.166 25.2334 42.166 25.4238V25.4265Z" fill="black"/>
<path d="M49.6883 27.4851C49.6773 27.3803 49.669 27.2644 49.6635 27.1347C49.658 27.005 49.6552 26.8973 49.6552 26.8118H49.6387C49.5338 27.0298 49.3599 27.2174 49.1171 27.3692C48.8715 27.521 48.6011 27.5983 48.3003 27.5983C48.0354 27.5983 47.8063 27.5541 47.6131 27.4686C47.42 27.383 47.2627 27.2616 47.1385 27.1098C47.0143 26.958 46.9233 26.7814 46.8626 26.58C46.8018 26.3785 46.7715 26.1633 46.7715 25.9315V23.3927H47.5828V25.6555C47.5828 25.8211 47.5966 25.9812 47.6214 26.1357C47.6463 26.2902 47.6959 26.4227 47.7649 26.5386C47.8339 26.6545 47.9277 26.7456 48.0492 26.8145C48.1706 26.8835 48.3251 26.9194 48.5155 26.9194C48.8439 26.9194 49.1088 26.798 49.3103 26.5524C49.5117 26.3068 49.6138 25.9812 49.6138 25.5727V23.3955H50.4251V26.6076C50.4251 26.718 50.4279 26.8587 50.4334 27.0298C50.4389 27.2036 50.4472 27.3554 50.4582 27.4879H49.6883V27.4851Z" fill="black"/>
<path d="M52.5224 21.9136C52.5224 22.0626 52.4699 22.1868 52.3651 22.2861C52.2602 22.3855 52.1333 22.4324 51.9843 22.4324C51.8352 22.4324 51.7111 22.3827 51.6062 22.2806C51.5041 22.1785 51.4517 22.0571 51.4517 21.9136C51.4517 21.7701 51.5041 21.6377 51.6062 21.5383C51.7083 21.439 51.8352 21.3865 51.9843 21.3865C52.1333 21.3865 52.2602 21.4362 52.3651 21.5383C52.4699 21.6404 52.5224 21.7646 52.5224 21.9136ZM52.3927 27.4851H51.5814V23.39H52.3927V27.4851Z" fill="black"/>
<path d="M54.3606 29.5575H53.5493V23.3899H54.3441V24.0302H54.3689C54.5014 23.8121 54.6945 23.63 54.9512 23.4893C55.2078 23.3485 55.5031 23.2768 55.8425 23.2768C56.1461 23.2768 56.4248 23.332 56.6731 23.4396C56.9242 23.55 57.1395 23.7018 57.3189 23.8977C57.4982 24.0936 57.639 24.3227 57.7356 24.5848C57.8321 24.847 57.8818 25.1285 57.8818 25.4265C57.8818 25.7245 57.8321 26.0088 57.7356 26.2737C57.639 26.5386 57.501 26.7704 57.3216 26.9636C57.1423 27.1595 56.927 27.314 56.6759 27.4244C56.422 27.5375 56.1378 27.5927 55.8232 27.5927C55.5307 27.5927 55.2547 27.5293 54.9953 27.4023C54.7359 27.2754 54.5317 27.096 54.3827 26.867H54.3579V29.552L54.3606 29.5575ZM57.0567 25.4292C57.0567 25.2388 57.0263 25.0539 56.9712 24.8773C56.9132 24.698 56.8277 24.5407 56.7118 24.4027C56.5959 24.2647 56.4551 24.1543 56.284 24.0743C56.1129 23.9943 55.917 23.9529 55.6935 23.9529C55.4865 23.9529 55.2961 23.9943 55.1278 24.0743C54.9567 24.1543 54.8132 24.2647 54.6918 24.4027C54.5704 24.5407 54.4765 24.698 54.4103 24.8773C54.3441 25.0567 54.311 25.2444 54.311 25.4375C54.311 25.6307 54.3441 25.8211 54.4103 26.0005C54.4765 26.1798 54.5704 26.3371 54.6918 26.4724C54.8132 26.6076 54.9567 26.7152 55.1278 26.7952C55.2989 26.8752 55.4865 26.9166 55.6935 26.9166C55.917 26.9166 56.1157 26.8752 56.284 26.7925C56.4551 26.7097 56.5959 26.5993 56.7118 26.4586C56.8277 26.3206 56.9132 26.1633 56.9712 25.9839C57.0291 25.8045 57.0567 25.6224 57.0567 25.432V25.4292Z" fill="black"/>
<path d="M60.0562 23.5059C60.2825 23.3541 60.5529 23.2768 60.8647 23.2768C61.1407 23.2768 61.3891 23.3403 61.6126 23.4672C61.8334 23.5942 62.01 23.8039 62.1341 24.0964C62.2721 23.8315 62.4653 23.6273 62.7136 23.4865C62.962 23.3458 63.2324 23.274 63.525 23.274C63.7899 23.274 64.0162 23.3182 64.2066 23.4093C64.397 23.4976 64.5543 23.619 64.6812 23.768C64.8081 23.917 64.902 24.0936 64.9627 24.2951C65.0234 24.4965 65.0537 24.7118 65.0537 24.9436V27.4824H64.2424V25.2113C64.2424 25.0457 64.2286 24.8856 64.1983 24.7366C64.1679 24.5876 64.121 24.4551 64.052 24.3392C63.983 24.2233 63.892 24.1323 63.7761 24.0633C63.6602 23.9943 63.5139 23.9584 63.3345 23.9584C63.1552 23.9584 62.9924 23.9971 62.8599 24.0743C62.7274 24.1516 62.6198 24.2537 62.537 24.3779C62.4542 24.502 62.3935 24.64 62.3549 24.7973C62.3163 24.9519 62.2997 25.1119 62.2997 25.272V27.4824H61.4884V25.0457C61.4884 24.8856 61.4746 24.7366 61.4443 24.6042C61.4139 24.4717 61.367 24.3586 61.298 24.262C61.229 24.1681 61.1407 24.0909 61.0303 24.0384C60.9199 23.9833 60.7847 23.9557 60.6247 23.9557C60.3239 23.9557 60.0755 24.0771 59.8768 24.3227C59.6781 24.5683 59.5788 24.8939 59.5788 25.3023V27.4796H58.7675V24.2675C58.7675 24.1571 58.7647 24.0164 58.7592 23.8453C58.7537 23.6714 58.7454 23.5196 58.7344 23.3872H59.5043C59.5153 23.4921 59.5236 23.608 59.5291 23.7377C59.5346 23.8674 59.5374 23.975 59.5374 24.0605H59.5622C59.6671 23.8425 59.8299 23.6549 60.059 23.5031L60.0562 23.5059Z" fill="black"/>
<path d="M69.9935 25.4017V25.5396C69.9935 25.5866 69.9907 25.6307 69.9852 25.6776H66.7289C66.7344 25.8487 66.7731 26.0115 66.8448 26.1633C66.9166 26.3151 67.0131 26.4475 67.1346 26.5579C67.256 26.6683 67.394 26.7566 67.554 26.8201C67.7141 26.8835 67.8796 26.9139 68.059 26.9139C68.335 26.9139 68.5751 26.8532 68.7765 26.7318C68.9779 26.6103 69.1352 26.4641 69.2511 26.2902L69.8224 26.7483C69.6044 27.0381 69.345 27.2533 69.0497 27.3885C68.7544 27.5265 68.4233 27.5927 68.0618 27.5927C67.7499 27.5927 67.463 27.5403 67.198 27.4382C66.9331 27.3361 66.7068 27.1899 66.5164 27.0022C66.326 26.8146 66.177 26.5883 66.0666 26.3234C65.9562 26.0584 65.9038 25.7659 65.9038 25.4431C65.9038 25.1202 65.9562 24.8332 66.0639 24.5655C66.1715 24.2978 66.3205 24.0688 66.5109 23.8784C66.7013 23.688 66.9276 23.539 67.187 23.4341C67.4464 23.3265 67.7251 23.274 68.0259 23.274C68.3267 23.274 68.5971 23.3237 68.8427 23.4203C69.0883 23.5196 69.2953 23.6604 69.4664 23.8425C69.6375 24.0274 69.7672 24.2509 69.861 24.5103C69.9521 24.7725 69.999 25.0678 69.999 25.3961L69.9935 25.4017ZM69.1656 25.0733C69.1601 24.9132 69.1325 24.7614 69.0828 24.6207C69.0331 24.48 68.9614 24.3558 68.8676 24.2537C68.771 24.1488 68.6551 24.0688 68.5143 24.0081C68.3736 23.9474 68.208 23.917 68.0176 23.917C67.8438 23.917 67.681 23.9474 67.5292 24.0081C67.3774 24.0688 67.2449 24.1516 67.1318 24.2537C67.0187 24.3558 66.9276 24.48 66.8559 24.6207C66.7841 24.7614 66.7427 24.9132 66.7317 25.0733H69.1684H69.1656Z" fill="black"/>
<path d="M71.5909 23.3899C71.6019 23.4948 71.6102 23.6107 71.6157 23.7404C71.6212 23.8701 71.624 23.9777 71.624 24.0633H71.6488C71.7013 23.9529 71.7703 23.8508 71.8613 23.757C71.9496 23.6631 72.0517 23.5776 72.1676 23.5058C72.2835 23.4341 72.4105 23.3789 72.5484 23.3375C72.6864 23.2961 72.8299 23.2768 72.9789 23.2768C73.2439 23.2768 73.4701 23.3209 73.6605 23.412C73.851 23.5003 74.0083 23.6217 74.1352 23.7708C74.2621 23.9198 74.356 24.0964 74.4167 24.2978C74.4774 24.4993 74.5077 24.7145 74.5077 24.9463V27.4851H73.6964V25.214C73.6964 25.0484 73.6826 24.8884 73.6578 24.7394C73.633 24.5903 73.5833 24.4579 73.5143 24.342C73.4453 24.2261 73.3515 24.135 73.2301 24.066C73.1086 23.997 72.9541 23.9612 72.7637 23.9612C72.4408 23.9612 72.1787 24.0826 71.9745 24.3282C71.7703 24.5738 71.6682 24.8994 71.6682 25.3078V27.4851H70.8568V24.273C70.8568 24.1626 70.8541 24.0219 70.8486 23.8508C70.843 23.6769 70.8348 23.5252 70.8237 23.3927H71.5936L71.5909 23.3899Z" fill="black"/>
<path d="M77.6291 24.055H76.5418V26.1826C76.5418 26.431 76.5887 26.6048 76.6798 26.7125C76.7709 26.8201 76.9199 26.8725 77.1213 26.8725C77.1958 26.8725 77.2759 26.8642 77.3642 26.8477C77.4497 26.8311 77.527 26.8091 77.5987 26.7759L77.6236 27.441C77.5242 27.4741 77.4166 27.5017 77.3007 27.5238C77.182 27.5431 77.0606 27.5541 76.9337 27.5541C76.5473 27.5541 76.2521 27.4465 76.0479 27.234C75.8437 27.0215 75.7416 26.7014 75.7416 26.2765V24.0578H74.9551V23.3927H75.7416V22.2172H76.5446V23.3927H77.6318V24.0578L77.6291 24.055Z" fill="black"/>
</g>
<defs>
<clipPath id="clip0_485_455">
<rect width="90" height="29.5576" fill="white"/>
</clipPath>
</defs>
</svg>
