<svg width="32" height="32" viewBox="0 0 32 32" fill="none" xmlns="http://www.w3.org/2000/svg">
<path fill-rule="evenodd" clip-rule="evenodd" d="M25 5C24.31 5 23.66 5.3 23.2 5.81L21.04 8.28C20.96 8.37 20.86 8.41 20.75 8.41H11.82C11.71 8.41 11.6 8.36 11.53 8.28L9.37 5.81C8.92 5.29 8.26 5 7.57 5H2V7H7.56C7.67 7 7.78001 7.05 7.85 7.13L10.01 9.6C10.46 10.12 11.12 10.41 11.81 10.41H12.2896V12.3804C11.6211 12.7934 11.0535 13.3337 10.59 14.0002C7.81999 17.9802 9.89999 25.2702 10.63 27.4702H12.59L12.57 27.4802L12.71 27.4302C11.84 25.0702 10.04 18.2702 12.22 15.1502C13.05 13.9602 14.37 13.3902 16.28 13.3902C18.19 13.3902 19.52 13.9702 20.34 15.1502C22.51 18.2702 20.74 25.0302 19.85 27.4802H21.96C22.73 25.1102 24.72 17.9502 21.99 14.0102C21.5218 13.3369 20.9473 12.7909 20.27 12.3745V10.41H20.74C21.43 10.41 22.08 10.11 22.54 9.6L24.7 7.13C24.77 7.05 24.88 7 24.99 7H30.55V5H25ZM18.27 11.5831V10.41H14.2896V11.5858C14.9048 11.4488 15.572 11.3802 16.29 11.3802C17.0001 11.3802 17.6605 11.4481 18.27 11.5831ZM16.2798 18.21C15.3198 18.21 14.5298 17.42 14.5298 16.46C14.5298 15.5 15.3198 14.71 16.2798 14.71C17.2398 14.71 18.0298 15.5 18.0298 16.46C18.0298 17.42 17.2398 18.21 16.2798 18.21ZM16.2798 16.21C16.1398 16.21 16.0298 16.32 16.0298 16.46C16.0298 16.74 16.5298 16.74 16.5298 16.46C16.5298 16.32 16.4198 16.21 16.2798 16.21Z" fill="black"/>
</svg>
