<svg width="32" height="32" viewBox="0 0 32 32" fill="none" xmlns="http://www.w3.org/2000/svg">
<path fill-rule="evenodd" clip-rule="evenodd" d="M26.1002 12.3413C26.3202 12.3013 26.5302 12.2713 26.7502 12.2713V12.2813C29.1502 12.2813 31.1102 14.2413 31.1102 16.6413C31.1102 19.0413 29.1502 21.0013 26.7502 21.0013C24.3502 21.0013 22.3902 19.0413 22.3902 16.6413C22.3902 15.1713 23.1302 13.8813 24.2402 13.0913L23.3202 11.3113L21.3702 16.7013L20.5702 17.3513L11.2902 18.6413L10.9202 18.6213L1.93018 16.5113L2.39018 14.5613L10.6202 16.4913L10.9002 13.4113L8.48018 11.8313L8.07018 12.8313C8.94018 13.3213 9.63019 14.0913 10.0002 15.0213L3.03018 13.4213C3.80018 12.7113 4.82018 12.2713 5.95018 12.2713C5.98018 12.2713 6.01018 12.2738 6.04018 12.2763C6.07018 12.2788 6.10018 12.2813 6.13018 12.2813L6.77018 10.7213L2.95018 8.24132L3.68018 6.42128L11.0702 7.83132L14.5502 7.24128L18.5602 5.98131L19.2602 6.02131L20.9702 6.77128L20.2302 5.34131L18.6902 5.41131L18.6002 3.41131L20.4402 3.33131C21.0402 3.29131 21.6202 3.63131 21.8902 4.18131L22.2902 4.96131L24.2602 4.64131L25.3902 5.37131L26.1702 8.36132L25.3002 9.61132L24.7202 9.67132L26.1002 12.3413ZM23.9302 7.73128L23.6802 6.76128L23.3102 6.82128L23.7502 7.75128L23.9302 7.73128ZM12.6302 16.4313L19.6902 15.4513L21.9002 9.36132L18.8102 8.01132L14.9602 9.21132L11.2302 9.84132H10.8702L8.31017 9.35132L12.4902 12.0713L12.9402 13.0013L12.6302 16.4313ZM24.3902 16.6313C24.3902 17.9313 25.4502 18.9913 26.7502 18.9913C28.0502 18.9913 29.1102 17.9313 29.1102 16.6313C29.1102 15.3313 28.0502 14.2713 26.7502 14.2713C25.4502 14.2713 24.3902 15.3313 24.3902 16.6313ZM4.32023 18.3415C4.74023 18.7415 5.31023 18.9915 5.94023 18.9915V19.0015C6.18023 19.0015 6.42024 18.9515 6.64023 18.8815L9.22023 19.4715C8.42024 20.4015 7.26023 21.0015 5.94023 21.0015C3.92023 21.0015 2.24023 19.6115 1.74023 17.7515L4.32023 18.3415Z" fill="black"/>
</svg>
