<svg width="87" height="70" viewBox="0 0 567 455" fill="none" xmlns="http://www.w3.org/2000/svg">
<g clip-path="url(#clip0_357_10996)">
<path d="M68.3905 396.962L76.9251 397.975C80.7505 398.405 81.1718 401.602 81.1718 403.65V413.747H41.8345V403.65C41.8345 401.602 42.2491 398.405 46.0771 397.975L54.6105 396.962V388.323H3.50781V396.962L12.0491 397.975C15.8718 398.405 16.2865 401.602 16.2865 403.65V436.749C16.2865 438.797 15.8718 442.001 12.0491 442.431L3.50781 443.423V452.067H54.6105V443.423L46.0771 442.431C42.2491 442.001 41.8345 438.797 41.8345 436.749V426.643H81.1718V436.749C81.1718 438.797 80.7505 442.001 76.9251 442.431L68.3905 443.423V452.067H119.497V443.423L110.957 442.431C107.132 442.001 106.713 438.797 106.713 436.749V403.65C106.713 401.602 107.132 398.405 110.957 397.975L119.497 396.962V388.323H68.3905V396.962Z" fill="white"/>
<path d="M404.451 439.851L383.043 439.859V400.539H404.451C417.081 400.539 421.364 406.525 421.364 420.195C421.364 433.865 417.081 439.851 404.451 439.851ZM409.1 388.323H346.004V396.962L353.537 397.757C356.227 398.085 357.993 399.241 357.993 402.961L358.001 436.749C358.001 438.797 357.58 442.001 353.756 442.431L345.223 443.423V452.067L409.1 452.059C431.951 452.059 450.744 442.861 450.744 420.195C450.744 397.53 431.951 388.323 409.1 388.323Z" fill="white"/>
<path d="M486.541 421.265L498.604 401.631L511.447 421.265H486.541ZM558.157 442.523C554.12 442.055 552.845 439.445 551.592 437.53L522.169 392.562C520.059 389.338 518.523 388.322 515.385 388.322H466.957V396.961L478.507 398.279C480.088 398.459 482.367 400.663 480.533 403.657L458.807 439.007C457.923 440.446 456.821 442.11 454.304 442.446L445.668 443.422V452.067H486.497V443.422L479.46 442.711C476.455 442.391 474.852 440.295 476.337 437.85L479.604 432.535H518.808L521.704 436.935C524.244 440.805 521.036 442.391 518.261 442.687L511.039 443.422V452.067H566.277V443.422L558.157 442.523Z" fill="white"/>
<path d="M300.373 396.962L308.908 397.975C312.737 398.405 313.152 401.602 313.152 403.65V435.545L279.43 391.03C277.918 388.99 276.609 388.323 273.006 388.323H229.184V396.962L237.721 397.975C241.544 398.405 241.961 401.602 241.961 403.65V436.749C241.961 438.797 241.544 442.001 237.721 442.431L229.184 443.423V452.067H270.012V443.423L261.478 442.431C257.648 442.001 257.233 438.797 257.233 436.749V404.861L290.9 449.363C292.428 451.403 293.741 452.067 297.372 452.067H297.676H328.428V403.65C328.428 401.602 328.842 398.405 332.668 397.975L341.206 396.962V388.323H300.373V396.962Z" fill="white"/>
<path d="M174.237 442.11C158.144 442.11 151.444 435.365 151.444 420.194C151.444 405.025 158.144 398.28 174.237 398.28C190.325 398.28 197.028 405.025 197.028 420.194C197.028 435.365 190.325 442.11 174.237 442.11ZM174.237 386.138C132.726 386.138 122.012 404.298 122.012 420.194C122.012 436.1 132.726 454.264 174.237 454.264C215.74 454.264 226.458 436.1 226.458 420.194C226.458 404.298 215.74 386.138 174.237 386.138Z" fill="white"/>
<path d="M152.048 376.431L121.324 347.976L276.532 329.951L351.56 376.431H152.048Z" fill="white"/>
<path d="M413.594 254.571L86.6328 315.847L115.063 342.178L265.637 323.186C263.394 322.076 262.785 320.512 262.785 318.878C262.785 317.031 264.261 315.147 266.618 314.854C268.271 314.65 350.238 302.579 355.843 301.755C358.703 301.34 365.234 300.188 372.694 296.604C379.533 293.314 383.963 289.632 386.903 286.994C388.849 285.227 395.477 278.527 399.725 273.79C402.737 270.404 404.903 267.943 406.717 265.834C408.677 263.55 412.899 258.471 414.578 256.176C415.07 255.504 414.665 254.454 413.594 254.571Z" fill="white"/>
<path d="M464.757 182.907L56.5547 287.995L81.1281 310.751L206.759 286.732C204.539 285.459 203.451 284.475 203.451 282.331C203.451 280.839 204.387 278.699 206.869 278.191L411.208 238.587C414.037 238.04 421.032 236.391 428.068 232.006C434.687 227.887 438.204 223.792 440.315 221.424C443.011 218.391 447.813 212.194 451.365 207.418C454.027 203.838 456.251 200.387 458.032 197.82C459.815 195.256 464.269 187.956 466.115 184.674C466.615 183.79 465.935 182.598 464.757 182.907Z" fill="white"/>
<path d="M410.75 64.203C416.362 61.8737 443.348 50.211 449.492 47.4123C455.447 44.687 473.556 36.5763 480.196 33.579C487.555 30.263 509.054 20.171 512.278 18.627C527.386 11.3937 546.05 2.49503 549.863 0.449696C550.855 -0.0903042 552.482 0.736353 551.998 2.28169C549.831 9.26969 546.1 20.0644 540.75 32.467C538.1 38.6204 534.036 47.7403 530.527 53.515C526.15 60.7123 521.586 65.6137 517.951 68.875C510.404 75.651 504.132 79.3657 497.626 81.9097C493.308 83.5977 484.851 86.9324 479.2 89.1057C477.822 89.635 455.05 98.1724 450.407 99.6697L47.6137 241.831C38.1897 245.082 27.1871 251.396 27.1871 263.594C27.1871 268.888 30.4644 275.719 36.7257 281.594L138.444 376.43H91.3017C90.4524 373.702 88.8817 369.838 87.211 366.954C85.5537 364.104 84.3351 361.556 79.2911 356.519C75.2644 352.486 71.1857 348.306 69.763 346.89L16.0684 293.188C6.15507 283.27 0.707031 270.6 0.707031 258.935C0.707031 242.776 9.65639 227.367 36.3604 216.43L410.75 64.203Z" fill="white"/>
<path d="M455.133 118.234C460.686 116.386 470.804 112.924 473.496 111.967C476.189 111.004 486.614 107.194 488.46 106.496C495.948 103.643 503.037 100.944 510.297 97.8803C511.462 97.4389 512.673 98.3189 512.146 99.6003C511.297 101.643 506.632 111.6 505.342 113.976C502.021 120.11 499.082 125.694 495.721 130.903C492.778 135.47 488.389 142.32 485.802 145.45C481.262 150.927 477.62 154.491 471.214 158.848C463.254 164.271 455.86 166.254 452.789 167.164L156.048 246.978C153.813 247.49 152.925 249.783 152.925 251.092C152.925 252.766 153.993 254.352 155.937 255.274L50.7784 282.642L42.197 274.618C39.029 271.711 37.625 267.811 37.625 264.818C37.625 257.079 43.6637 253.488 52.957 250.448L455.133 118.234Z" fill="white"/>
</g>
<defs>
<clipPath id="clip0_357_10996">
<rect width="567" height="455" fill="white"/>
</clipPath>
</defs>
</svg>
