<svg width="66" height="23" viewBox="0 0 66 23" fill="none" xmlns="http://www.w3.org/2000/svg">
<g clip-path="url(#clip0_2770_118651)">
<path d="M1.20703 21.4109V19.826H1.90654L1.94319 21.0622H5.14385L5.16217 20.4441L5.18049 19.826H5.88V22.9958H5.17585V21.6645H1.91118V22.9958H1.20703V21.4109ZM7.18064 22.9045C7.02954 22.8384 6.95941 22.7528 6.90894 22.5728C6.82108 22.2594 6.82112 21.1962 6.90899 20.8828C7.02162 20.4811 7.13655 20.46 9.20869 20.46C11.117 20.46 11.3594 20.4924 11.508 20.7674C11.5478 20.841 11.5772 21.2596 11.5772 21.7519C11.5772 22.5657 11.5695 22.6172 11.4228 22.7863L11.2683 22.9641L9.32633 22.9789C7.77219 22.9907 7.34363 22.9758 7.18064 22.9045ZM10.841 21.7279V21.0622H7.57635L7.5578 21.6598C7.54759 21.9884 7.55408 22.2955 7.57221 22.3423C7.59884 22.4111 7.91658 22.4242 9.22311 22.4105L10.841 22.3936V21.7279ZM12.6014 21.7255V20.4551L14.7408 20.4734L16.8801 20.4917L17.2103 20.7991V22.9958H16.5702V22.0517C16.5702 21.2492 16.555 21.1017 16.469 21.069C16.4133 21.0479 15.6643 21.0305 14.8046 21.0305H13.2415V22.9958H12.6014V21.7255ZM18.5775 22.933C18.2837 22.8155 18.2346 22.6449 18.2346 21.7413C18.2346 21.2566 18.2641 20.8408 18.3037 20.7674C18.4515 20.494 18.6989 20.46 20.537 20.46H22.2674V19.509H22.9075V22.9958L20.8111 22.9918C19.6581 22.9896 18.6529 22.9631 18.5775 22.933ZM22.2536 21.7438L22.2354 21.0622H18.9707L18.9522 21.6598C18.9419 21.9884 18.9483 22.2951 18.9661 22.3413C18.992 22.408 19.3356 22.4253 20.6352 22.4253H22.2717L22.2536 21.7438ZM24.2134 22.9053C23.9679 22.7995 23.9317 22.7095 23.9317 22.2052C23.9317 21.9061 23.9625 21.7676 24.054 21.6557L24.1763 21.506L28.0363 21.469L27.9966 21.0622L24.4438 21.0285V20.4531L28.3599 20.4917L28.5143 20.6696C28.6644 20.8424 28.6687 20.8777 28.6687 21.9216V22.9958L26.5403 22.9934C24.8989 22.9915 24.3664 22.9713 24.2134 22.9053ZM28.0286 22.234V21.9794L24.6039 22.0132L24.5827 22.1965C24.5707 22.3006 24.5984 22.4029 24.6468 22.4333C24.6936 22.4627 25.4737 22.4872 26.3802 22.4877L28.0286 22.4886V22.234ZM31.2292 21.4109V19.826H33.3055C34.5871 19.826 35.4487 19.8512 35.5568 19.8919C35.8539 20.0038 35.898 20.1223 35.9002 20.8147C35.9029 21.6641 35.8815 21.6846 34.9514 21.7279L34.2699 21.7596L35.2419 22.3619L36.214 22.9641L35.0975 23.0002L34.2166 22.414L33.3358 21.8278L33.3547 21.5401L33.3737 21.2524L34.2699 21.2207L35.1661 21.189V20.4917L31.9334 20.4578V22.9958H31.2292V21.4109ZM36.7428 22.8532C36.9584 22.4536 38.4363 20.0919 38.5479 19.9687C38.6672 19.8369 38.7317 19.826 39.3899 19.826C39.8637 19.826 40.1364 19.8526 40.2033 19.9053C40.2937 19.9764 42.1115 22.8915 42.1115 22.9653C42.1115 22.9821 41.9259 22.9958 41.6991 22.9958H41.2867L41.107 22.6789L40.9272 22.362H39.3884L37.8495 22.3619L37.6626 22.6789L37.4756 22.9959H37.0708C36.6707 22.9959 36.6668 22.9942 36.7428 22.8533V22.8532ZM40.4048 21.4902C40.3081 21.3245 40.1245 21.0179 39.9966 20.8087L39.7642 20.4283H39.0126L38.7313 20.9038C38.5765 21.1653 38.3929 21.4719 38.3231 21.5853L38.1962 21.7913H40.5806L40.4048 21.4902ZM43.0323 22.9049C42.9033 22.8493 42.8072 22.746 42.7602 22.6126C42.6656 22.3439 42.6643 20.4816 42.7586 20.2139C42.8907 19.8386 42.9721 19.826 45.277 19.826H47.3606V20.46H43.4558V22.3619H47.3606V22.9958L45.2962 22.9934C43.7037 22.9915 43.1861 22.9712 43.0323 22.9049ZM48.3848 21.4109V19.826H49.1529V22.9958H48.3848V21.4109ZM50.128 21.4268L50.1452 19.8577L50.657 19.8389C50.9386 19.8286 51.2312 19.8356 51.3073 19.8545C51.3834 19.8734 51.974 20.4594 52.6198 21.1568C53.2865 21.8767 53.8423 22.4248 53.9059 22.425C54.009 22.4255 54.018 22.3212 54.018 21.1256V19.826H54.7221V21.3724C54.7221 22.7241 54.7093 22.9237 54.6208 22.9573C54.4879 23.0079 53.6099 23.0071 53.4763 22.9563C53.4191 22.9346 52.8515 22.3569 52.2149 21.6725C51.4083 20.8054 51.0162 20.4283 50.9214 20.4283C50.7876 20.4283 50.785 20.4506 50.768 21.7121L50.7506 22.9958H50.1109L50.128 21.4268ZM56.0868 22.9031C55.9351 22.8378 55.8657 22.7534 55.815 22.5728C55.7276 22.2608 55.7266 20.5647 55.8137 20.254C55.9316 19.8336 55.9768 19.826 58.3677 19.826H60.4833V20.46H56.5145V22.3619H59.7791V21.6645H57.5387V21.0939H60.4833V22.9958L58.3869 22.9934C56.7467 22.9914 56.2461 22.9718 56.0868 22.9031Z" fill="white"/>
<path d="M0.69141 18.7492C0.69141 18.7224 1.90314 14.5013 3.38415 9.36892L6.07689 0.0373116L10.5005 0.0211182C12.9334 0.0122074 14.9241 0.0200301 14.9241 0.0384855C14.9241 0.0643611 13.3874 5.43565 13.2329 5.94979C13.2014 6.0548 13.387 6.05981 16.7375 6.04438L20.2753 6.02808L20.807 4.29391C21.0994 3.34012 21.5155 1.9838 21.7316 1.27987L22.1246 0L29.5641 0.0235733C36.1113 0.0443167 37.0571 0.0592902 37.4485 0.148409C38.5306 0.394801 39.214 0.749106 39.9845 1.46324C40.8449 2.26073 41.4242 3.23957 41.6761 4.32145C41.785 4.7888 41.8077 5.05681 41.7906 5.66845C41.7788 6.08842 41.7866 6.41208 41.8081 6.3877C41.8296 6.36333 41.9947 6.12366 42.1751 5.85511C43.1135 4.45809 44.5399 3.07722 46.0716 2.08305C47.9044 0.893399 49.7045 0.265948 51.84 0.0724293C52.2937 0.03131 55.0572 0.00612974 59.131 0.00599708C64.6936 0.00599708 65.6914 0.019132 65.6914 0.0935518C65.6914 0.166107 64.8341 3.02948 64.0342 5.6286L63.8467 6.23809L58.6534 6.26711C52.9679 6.29888 52.8706 6.30491 51.9679 6.68135C50.7659 7.18257 49.7823 8.1951 49.3502 9.37612C49.1597 9.89656 49.156 10.7646 49.3424 11.1753C49.5199 11.5662 49.88 11.9502 50.2242 12.1156C50.9468 12.4627 50.7478 12.4511 56.6054 12.4886C61.9923 12.523 62.0378 12.5244 62.0183 12.6495C62.0075 12.7188 61.6211 14.1235 61.1596 15.771L60.3206 18.7664H46.5336C31.9525 18.7664 32.2964 18.7728 31.1482 18.4773C28.9946 17.923 27.4073 16.1121 27.0901 13.8476C27.0475 13.5433 27.0207 13.6195 26.3239 16.0232C25.9268 17.3932 25.5732 18.578 25.5381 18.656L25.4742 18.7979H21.0887C17.6218 18.7979 16.7031 18.7814 16.7031 18.719C16.7031 18.6757 17.1034 17.2497 17.5927 15.5503C18.0819 13.8508 18.4822 12.439 18.4822 12.413C18.4822 12.387 16.9025 12.366 14.9717 12.3664L11.4612 12.367L10.67 14.9991C10.2348 16.4468 9.79749 17.8937 9.6981 18.2146L9.51739 18.7979H5.1044C2.67725 18.7979 0.69141 18.776 0.69141 18.7492ZM40.1888 11.6247C40.1967 10.8533 40.3112 10.0226 40.4964 9.39341L40.5824 9.10121L40.185 9.488C39.9291 9.73702 39.1182 10.3128 37.9085 11.1045C36.875 11.7808 36.027 12.3554 36.0241 12.3815C36.0213 12.4075 36.9553 12.4287 38.0998 12.4287H40.1807L40.1888 11.6247ZM29.3976 8.66304C29.667 8.4618 30.5665 7.86103 31.3964 7.328C32.2264 6.79497 32.9055 6.33367 32.9055 6.30289C32.9055 6.27118 32.0866 6.25416 31.0166 6.26362L29.1278 6.28032L28.6107 8.09731L28.0936 9.91429L28.5007 9.47161C28.7246 9.22813 29.1282 8.86428 29.3976 8.66304Z" fill="white"/>
<path d="M4.34766 8.78574C4.34766 8.73034 6.30532 1.92031 6.62033 0.879872L6.72111 0.547042H10.3674C12.455 0.547042 14.0137 0.571158 14.0137 0.603462C14.0137 0.64857 12.4445 6.10653 12.3119 6.52257C12.2782 6.62818 12.5026 6.63311 16.6401 6.61767L21.0038 6.60138L21.8618 3.81194C22.3336 2.27776 22.7496 0.915531 22.7861 0.784776L22.8524 0.54704H29.8228C36.9852 0.54704 37.3761 0.559042 38.1704 0.803394C39.0505 1.07409 39.9541 1.78537 40.5559 2.68107C41.7746 4.495 41.6314 6.90081 40.2075 8.53552L39.9319 8.85194H30.3713L30.6262 8.68008C30.7664 8.58556 31.5005 8.11197 32.2574 7.62766C33.0144 7.14335 33.699 6.68748 33.7788 6.61463C34.119 6.30409 34.1027 5.76885 33.7444 5.48979C33.5918 5.37087 33.4737 5.36515 31.1733 5.36515H28.7621L28.2607 7.10854L27.7592 8.85194H16.0534C7.96196 8.85194 4.34766 8.8315 4.34766 8.78574ZM41.7314 8.79651C41.7314 8.68005 42.199 7.59473 42.445 7.14024C44.0584 4.15959 47.1917 1.68683 50.355 0.89778C51.8708 0.519698 52.4186 0.500559 60.8473 0.531192L65.2081 0.54704L64.48 2.93568C64.0796 4.24944 63.7519 5.33195 63.7519 5.34127C63.7519 5.35059 61.4547 5.369 58.6469 5.38219C53.0297 5.40857 53.1902 5.39797 52.0961 5.81513C50.9066 6.26866 49.6377 7.46278 49.1837 8.55573L49.0609 8.85146L45.3961 8.8517C43.3466 8.85184 41.7314 8.82751 41.7314 8.79651Z" fill="#E60021"/>
<path d="M1.69922 17.9611C1.69922 17.9057 3.65688 11.0957 3.9719 10.0552L4.07267 9.72241H27.5453L26.347 13.859L25.1488 17.9956L21.4623 18.012L17.7758 18.0283L17.8803 17.6633C17.9378 17.4625 18.3493 16.043 18.7948 14.5088C19.2403 12.9746 19.5856 11.6978 19.5622 11.6714C19.5388 11.645 17.5948 11.6307 15.2423 11.6397L10.9649 11.656L9.99683 14.8416L9.02874 18.0271L5.36398 18.0272C2.86003 18.0273 1.69922 18.0063 1.69922 17.9611ZM33.0017 17.9853C32.8785 17.9734 32.5472 17.933 32.2655 17.8956C30.2868 17.6326 28.7902 16.376 28.192 14.4755C27.9974 13.8572 27.9804 12.5837 28.1581 11.9413C28.3159 11.371 28.7194 10.5904 29.1003 10.1186L29.4201 9.72241L34.2035 9.72246L38.9869 9.7225L37.2586 10.8631C35.4516 12.0555 35.2661 12.2213 35.3475 12.571C35.3683 12.6605 35.4689 12.8193 35.571 12.9239L35.7566 13.1141L41.3404 13.1497L41.3013 12.9077C41.1623 12.0464 41.1973 10.9448 41.3926 10.0432L41.462 9.72242H48.8295L48.7889 10.087C48.6646 11.2031 49.2741 12.3211 50.2533 12.7734C51.2352 13.2269 51.8295 13.2694 57.2147 13.2712C60.0615 13.2721 61.4876 13.2941 61.4876 13.3369C61.4876 13.3723 61.1995 14.4275 60.8474 15.6817C60.4954 16.9359 60.2073 17.9767 60.2073 17.9947C60.2073 18.0302 33.3692 18.0209 33.0017 17.9853Z" fill="#192A4E"/>
</g>
<defs>
<clipPath id="clip0_2770_118651">
<rect width="65" height="23" fill="white" transform="translate(0.691406)"/>
</clipPath>
</defs>
</svg>
