<svg width="46" height="51" viewBox="0 0 46 51" fill="none" xmlns="http://www.w3.org/2000/svg">
<g clip-path="url(#clip0_275_17044)">
<path d="M39.7227 31.4695L43.1591 29.1581L10.4011 29.1274L1.6875 42.9854L11.9148 41.032L15.0852 36.3479H34.1182L37.4318 34.0059H16.6705L18.3886 31.4695H39.7227Z" fill="white"/>
<path d="M29.567 20.782L37.9432 18.5422C38.4239 18.4195 38.8636 18.174 39.2318 17.857L42.1261 15.3104C42.2898 15.1672 42.1875 14.9115 41.9727 14.9115L9.55227 14.8809L1.6875 27.3581L11.9148 25.4047L17.5193 17.2229H29.383L28.7284 17.8774C28.4727 18.1331 28.1455 18.307 27.7977 18.3786L16.4761 20.5979L27.6852 25.9775L43.6398 26.2638L29.567 20.782Z" fill="white"/>
<path d="M14.5227 7.40448C17.1102 3.95789 17.2432 3.26244 20.6284 3.26244H40.1113L43.7216 0.951072H15.5659C10.667 0.951072 9.76703 0.674935 6.92385 4.55107C6.66816 4.8988 4.42839 8.12039 2.61816 10.7488L5.34885 11.7204H37.4727L41.2875 9.15334H13.275C13.6943 8.52948 14.0113 8.08971 14.5227 7.40448Z" fill="white"/>
<path d="M42.4842 47.3523L43.374 46.6466C43.4354 46.6057 43.3842 46.4932 43.3024 46.4932H33.5456L29.6797 49.6841H33.1365L36.0717 47.1886H39.5183L39.2422 47.4034C39.1604 47.4648 39.0683 47.5159 38.9558 47.5466L35.407 48.4568L39.8251 49.9909L45.174 50.2159L39.5899 48.4773L42.1058 47.567C42.249 47.5159 42.3717 47.4443 42.4842 47.3523Z" fill="white"/>
<path d="M16.9365 48.3749L16.9467 48.3852L16.6296 48.6408C16.374 48.8556 16.0365 48.9579 15.6887 48.9579H10.933L9.97168 49.6636H17.7751C18.2865 49.6636 18.7467 49.4999 19.1046 49.1931L20.3626 48.1397C20.4342 48.0886 20.4444 47.9965 20.4137 47.8942C20.3728 47.792 20.2501 47.7102 20.1478 47.7102H15.341L16.149 47.0658H20.5774L22.4387 46.5238C22.4694 46.5136 22.449 46.4727 22.4285 46.4727H13.8478L11.5467 48.3545L16.9365 48.3749Z" fill="white"/>
<path d="M20.0247 49.4693C20.0962 49.6841 20.3826 49.6841 20.3928 49.6841H27.1326C27.1326 49.6841 27.1428 49.6841 27.1531 49.6841C27.2553 49.6841 27.6849 49.6738 27.9917 49.5716C28.3394 49.4591 28.544 49.2954 28.544 49.2852L31.2031 47.1068C31.2133 47.0966 31.4587 46.9329 31.3565 46.7182C31.2644 46.5034 30.9985 46.4932 30.9883 46.4932H24.269C24.2485 46.4932 23.7678 46.5034 23.4303 46.5954C23.0928 46.6875 22.8576 46.8613 22.8474 46.8716L20.1678 49.0909C20.1576 49.1011 19.9633 49.2648 20.0247 49.4693ZM23.3383 48.9784L25.4144 47.2704C25.5883 47.1273 25.8031 47.0557 26.0383 47.0557H28.0735C28.0837 47.0557 28.0837 47.0557 28.0837 47.0659C28.0837 47.0761 28.0837 47.0761 28.0837 47.0761L25.9565 48.7841C25.7826 48.917 25.5678 48.9886 25.3428 48.9886H23.3485L23.3383 48.9784Z" fill="white"/>
<path d="M12.416 46.4932H8.55007C7.29212 46.7591 3.01712 47.7102 1.45234 48.1091C1.16598 48.1807 0.910299 48.3443 0.746662 48.5079C0.695526 48.5591 0.327344 48.9068 0.317116 48.917L0.214844 49.0091L6.62734 49.0193L5.81939 49.6738H8.84666L11.3217 47.6591L8.57053 47.6693C8.39666 47.6693 8.23303 47.7307 8.10007 47.8329L7.24098 48.5284L4.16257 48.5182C4.14212 48.5182 4.14212 48.5079 4.16257 48.4977C4.64325 48.3341 12.416 46.5545 12.416 46.5545C12.4569 46.5443 12.4467 46.4932 12.416 46.4932Z" fill="white"/>
</g>
<defs>
<clipPath id="clip0_275_17044">
<rect width="46" height="51" fill="white"/>
</clipPath>
</defs>
</svg>
