<svg width="94" height="35" viewBox="0 0 200 74" fill="none" xmlns="http://www.w3.org/2000/svg">
<path d="M4.51999 46.5729L3.71815 49.0718H23.237L22.1771 52.3836H2.85589L2.65817 52.3945L0 60.6876H6.50813L8.36995 54.8825H27.8888L30.5525 46.5729H4.51999Z" fill="white"/>
<path d="M30.0582 60.6876H36.5663L39.23 52.3836H46.4521L47.254 49.8847H33.5237L30.0582 60.6876Z" fill="white"/>
<path d="M50.3295 52.3836H62.7032L60.8414 58.1997H54.9813L56.3104 54.0422H49.7968L47.6713 60.6876H66.5532L70.0132 49.8847H51.1314L50.3295 52.3836Z" fill="white"/>
<path d="M110.413 52.3836H122.781L120.919 58.1887H115.059L116.388 54.0422H109.875L107.749 60.6876H126.631L130.091 49.8847H111.209L110.413 52.3836Z" fill="white"/>
<path d="M131.052 60.6876H137.56L140.224 52.3836H146.084L143.42 60.6876H149.934L153.394 49.8847H134.512L131.052 60.6876Z" fill="white"/>
<path d="M101.34 46.5729L99.4782 52.3836H86.0775L85.2757 54.8825H98.6819L96.8201 60.6876H103.328L107.848 46.5729H101.34Z" fill="white"/>
<path d="M81.8431 60.6876H75.335L79.855 46.5729H86.3686L81.8431 60.6876Z" fill="white"/>
<path d="M171.243 46.5729L167.52 58.1997H161.66L163.527 52.3836H167.805L168.602 49.8847H157.815L154.355 60.6876H173.232L177.752 46.5729H171.243Z" fill="white"/>
<path d="M181.118 49.8847L180.316 52.3836H192.685L190.823 58.1997H184.963L185.495 56.5411H189.774L190.576 54.0422H179.784L177.653 60.6876H196.534L200 49.8847H181.118Z" fill="white"/>
<path d="M135.605 9.88027H36.9673L42.8493 14.8177H107.2L101.318 19.7605L60.781 19.7551L54.4541 39.5156H72.6219L77.3726 24.6979H117.948L135.605 9.88027Z" fill="white"/>
<path d="M25.1922 0L31.0797 4.93739H152.735L123.308 29.6353H85.2592L82.1013 39.5156H100.269L101.845 34.5782L139.938 34.5727L181.14 0H25.1922Z" fill="white"/>
<path d="M11.2808 66.6794C13.4941 66.6794 14.8891 68.2556 14.8891 70.1229C14.8891 71.9902 13.5325 73.5664 11.2588 73.5664C8.98506 73.5664 7.67794 71.9408 7.67794 70.1229C7.67794 68.305 9.10589 66.6794 11.2808 66.6794ZM11.2808 72.6822C12.7856 72.6822 13.895 71.5893 13.895 70.1229C13.895 68.6565 12.7856 67.5636 11.2808 67.5636C9.77592 67.5636 8.67201 68.6455 8.67201 70.1229C8.67201 71.6003 9.78142 72.6822 11.2808 72.6822Z" fill="white"/>
<path d="M21.7597 73.4787H20.7931V66.7673H21.7597V73.4787Z" fill="white"/>
<path d="M28.817 72.6164H31.8486V73.4842H27.8559V66.7728H28.817V72.6164Z" fill="white"/>
<path d="M40.7843 68.2447C40.2131 67.701 39.6584 67.5472 39.208 67.5472C38.5874 67.5472 38.1426 67.8713 38.1426 68.3436C38.1426 69.6342 41.0479 69.6122 41.0479 71.7487C41.0479 72.8032 40.2515 73.5666 39.1696 73.5666C38.4446 73.5666 37.8515 73.3688 37.2913 72.946V71.7267C37.7856 72.3583 38.4007 72.6988 39.0652 72.6988C39.8122 72.6988 40.1582 72.2265 40.1582 71.853C40.1582 70.4635 37.2529 70.3098 37.2529 68.4644C37.2529 67.3715 38.0602 66.674 39.2904 66.674C39.8012 66.674 40.3119 66.8333 40.7898 67.1463V68.2392L40.7843 68.2447Z" fill="white"/>
<path d="M59.5068 73.4787L58.6116 71.5015H55.7612L54.9154 73.4787H53.9323L56.8157 66.7289H57.4967L60.5009 73.4787H59.5068ZM56.1292 70.6393H58.2162L57.1342 68.2118L56.1292 70.6393Z" fill="white"/>
<path d="M72.3473 73.4787H71.518L67.031 68.3106V73.4787H66.1248V66.7673H66.8882L71.4356 71.9629V66.7673H72.3418V73.4787H72.3473Z" fill="white"/>
<path d="M78.1525 66.7673H80.7612C83.2381 66.7673 84.3311 68.5413 84.3311 70.123C84.3311 71.8475 82.98 73.4787 80.7667 73.4787H78.1525V66.7673ZM79.1191 72.6164H80.6514C82.8372 72.6164 83.337 70.9523 83.337 70.1285C83.337 68.7775 82.4802 67.6406 80.6019 67.6406H79.1191V72.6219V72.6164Z" fill="white"/>
<path d="M103.01 68.2667C102.186 67.7834 101.477 67.5692 100.697 67.5692C99.1597 67.5692 98.0228 68.6621 98.0228 70.1395C98.0228 71.6169 99.1267 72.6878 100.736 72.6878C101.494 72.6878 102.323 72.4242 103.081 71.9299V72.9844C102.422 73.3304 101.703 73.5721 100.654 73.5721C98.1327 73.5721 97.0343 71.6333 97.0343 70.2274C97.0343 68.1788 98.5775 66.685 100.714 66.685C101.4 66.685 102.103 66.8552 103.015 67.2342V68.2667H103.01Z" fill="white"/>
<path d="M114.862 73.4787H113.895V70.5569H110.138V73.4787H109.172V66.7673H110.138V69.6891H113.895V66.7673H114.862V73.4787Z" fill="white"/>
<path d="M124.769 67.6351H121.924V69.6617H124.67V70.5294H121.924V72.6164H124.857V73.4842H120.958V66.7728H124.769V67.6406V67.6351Z" fill="white"/>
<path d="M137.028 73.4787H136.061V68.2557H136.045L133.974 70.8535H133.82L131.755 68.2557H131.733V73.4787H130.767V66.7673H131.673L133.897 69.5244L136.127 66.7673H137.022V73.4787H137.028Z" fill="white"/>
<path d="M144.063 73.4787H143.096V66.7673H144.063V73.4787Z" fill="white"/>
<path d="M155.783 68.2667C154.954 67.7834 154.251 67.5692 153.471 67.5692C151.933 67.5692 150.791 68.6621 150.791 70.1395C150.791 71.6169 151.895 72.6878 153.509 72.6878C154.267 72.6878 155.097 72.4242 155.855 71.9299V72.9844C155.196 73.3304 154.476 73.5721 153.427 73.5721C150.906 73.5721 149.802 71.6333 149.802 70.2274C149.802 68.1788 151.351 66.685 153.482 66.685C154.168 66.685 154.871 66.8552 155.783 67.2342V68.2667Z" fill="white"/>
<path d="M166.839 73.4787L165.944 71.5015H163.093L162.247 73.4787H161.264L164.148 66.7289H164.829L167.833 73.4787H166.839ZM163.461 70.6393H165.548L164.466 68.2118L163.461 70.6393Z" fill="white"/>
<path d="M174.423 72.6164H177.455V73.4842H173.462V66.7728H174.423V72.6164Z" fill="white"/>
<path d="M186.583 68.2447C186.012 67.701 185.462 67.5472 185.007 67.5472C184.386 67.5472 183.947 67.8713 183.947 68.3436C183.947 69.6342 186.852 69.6122 186.852 71.7487C186.852 72.8032 186.056 73.5666 184.974 73.5666C184.249 73.5666 183.656 73.3688 183.095 72.946V71.7267C183.59 72.3583 184.205 72.6988 184.869 72.6988C185.616 72.6988 185.962 72.2265 185.962 71.853C185.962 70.4635 183.062 70.3098 183.062 68.4644C183.062 67.3715 183.87 66.674 185.1 66.674C185.611 66.674 186.121 66.8333 186.594 67.1463V68.2392L186.583 68.2447Z" fill="white"/>
</svg>
