<svg width="130" height="16" viewBox="0 0 130 16" fill="none" xmlns="http://www.w3.org/2000/svg">
<g clip-path="url(#clip0_174_2728)">
<path d="M67.4531 1.24468C66.9887 0.497626 66.0894 0.232422 65.4002 0.232422H58.4046L51.1621 15.8346H54.7963L57.5716 9.7088H59.5214C59.5214 9.7088 60.0853 9.74242 60.347 10.1757C60.5829 10.5679 60.5165 11.1693 60.1516 11.9612C59.2744 13.8699 58.5778 15.8496 58.5778 15.8496H62.2636C62.2636 15.8496 62.4 15.0951 62.7096 14.3443C62.9897 13.6607 63.8374 11.5092 63.8448 11.4868C64.5524 9.71254 63.6789 9.01404 63.126 8.66666C64.5229 8.51725 65.5218 7.85237 66.0894 6.66829C66.5501 5.70459 67.2615 4.13952 67.2688 4.12457C67.9765 2.64541 67.759 1.74147 67.4531 1.24468ZM63.76 3.93781L63.126 5.28998L62.7464 6.09306C62.4405 6.75047 61.965 7.08664 61.3385 7.08664H58.8027L60.7266 2.84338H63.502C63.502 2.84338 63.76 2.85458 63.8779 3.04508C63.9885 3.22811 63.948 3.53814 63.7637 3.94155L63.76 3.93781Z" fill="white"/>
<path d="M28.6418 1.24468C28.1774 0.497626 27.2781 0.232422 26.5889 0.232422H19.5933L12.3545 15.8346H15.9886L18.7603 9.7088H20.7101C20.7101 9.7088 21.274 9.74242 21.5357 10.1757C21.7716 10.5679 21.7052 11.1693 21.3403 11.9612C20.4631 13.8699 19.7665 15.8496 19.7665 15.8496H23.456C23.456 15.8496 23.5923 15.0951 23.9019 14.3443C24.1821 13.6607 25.0298 11.5092 25.0372 11.4868C25.7448 9.71254 24.875 9.01404 24.3184 8.66666C25.7153 8.51725 26.7142 7.85237 27.2818 6.66829C27.7425 5.70459 28.4575 4.13952 28.4649 4.12457C29.1726 2.64541 28.9551 1.74147 28.6492 1.24468M24.9487 3.93781L24.3111 5.28998L23.9314 6.09306C23.6255 6.75047 23.15 7.08664 22.5235 7.08664H19.9877L21.9669 2.84338H24.687C24.687 2.84338 24.945 2.85458 25.063 3.04508C25.1735 3.22811 25.1367 3.53814 24.9487 3.94155V3.93781Z" fill="white"/>
<path d="M37.3587 12.8017C38.0811 11.2777 39.0873 9.10007 40.1525 6.79168L41.3946 4.10602C42.6736 1.34192 41.2288 0.13916 39.3933 0.13916H34.9925C33.1349 0.13916 31.8227 1.02815 30.9824 2.8547C30.529 3.83708 29.7735 5.43951 28.8999 7.29967L27.0423 11.2479C25.1884 15.2035 27.9638 15.8534 29.3275 15.8534H32.1176C34.9151 15.8796 36.2899 15.084 37.3698 12.8017M32.4161 12.9586H30.8128C30.5217 12.9735 29.9504 12.8802 30.3853 11.9351C31.0082 10.5755 33.6103 4.88669 34.1448 3.7437C34.506 2.96302 34.8819 2.80614 35.3721 2.80614H37.3514C37.7347 2.7912 38.0738 3.00038 37.7642 3.66899L34.071 11.6662C33.555 12.7718 33.2049 12.9549 32.4161 12.9549V12.9586Z" fill="white"/>
<path d="M52.0653 0.143213H48.2985C46.3782 0.143213 44.8191 1.13306 44.023 2.85875C43.3412 4.33792 40.0977 11.2482 40.0977 11.2482C38.9109 13.7732 39.5964 15.8538 42.8436 15.8538H45.7406C48.0552 15.8762 49.1904 15.5101 50.2482 13.1644L52.9462 7.17299L47.4508 7.16552L46.2418 9.77274H48.1584L47.0822 12.1372C46.7689 12.8207 46.5551 12.9589 45.818 12.9589H43.9161C43.3522 12.9627 43.1458 12.6713 43.4886 11.9355C43.9198 11.0054 47.3402 3.76643 47.3402 3.76643C47.7272 2.94467 47.9594 2.81767 48.5565 2.81767H50.5247C51.0001 2.81767 51.2545 3.04178 50.9375 3.67678C50.8674 3.81872 50.075 5.55562 50.075 5.55562L53.5433 5.58177L54.3321 3.86354C55.4857 1.34597 54.4611 0.16936 52.069 0.135742L52.0653 0.143213Z" fill="white"/>
<path d="M96.209 15.8012L103.503 0.184082H99.7252L92.4717 15.8012H96.209Z" fill="white"/>
<path d="M112.765 0.1875L104.307 13.9445L108.586 0.1875H104.668L101.074 15.8009H106.131L116.694 0.1875H112.765Z" fill="white"/>
<path d="M83.8253 10.385L83.512 4.61397C83.4751 3.91921 83.641 2.97418 84.8978 2.97418H87.4225L88.7162 0.191406H84.415C81.0057 0.191406 79.8446 2.30557 79.9773 4.78206C80.0584 6.29858 80.2685 11.2291 80.2685 11.2291C80.3201 12.417 79.8704 12.9735 78.7721 12.9735H75.8935L74.6035 15.8048H79.1923C82.233 15.8048 84.0243 13.7915 83.8253 10.3812V10.385Z" fill="white"/>
<path d="M92.4312 10.385L92.1179 4.61397C92.0811 3.91921 92.2506 2.97418 93.5038 2.97418H96.0285L97.3259 0.191406H93.0209C90.194 0.191406 88.4211 1.75648 88.5833 4.78206C88.6644 6.29858 88.8745 11.2291 88.8745 11.2291C88.9298 12.417 88.4764 12.9735 87.3781 12.9735H84.5732L83.2832 15.8048H87.7982C91.1449 15.8048 92.6081 13.3807 92.4312 10.3812V10.385Z" fill="white"/>
<path d="M71.3484 0.206372L64.1465 15.8011H73.254L74.5808 12.9773H69.0448L70.9946 8.8199H75.6718L76.8734 6.20522H72.1814L73.6741 2.963L78.5283 2.97047L79.7999 0.202637H71.3521L71.3484 0.206372Z" fill="white"/>
<path d="M117.936 0.206372L110.734 15.8011H119.842L121.169 12.9773H115.636L117.586 8.8199H122.263L123.465 6.20522H118.773L120.266 2.963L125.12 2.97047L126.388 0.202637H117.94L117.936 0.206372Z" fill="white"/>
<path d="M3.73366 15.8496H0L7.17984 0.232422H14.0943C15.6865 0.236157 17.1682 1.49121 15.9593 4.19181C15.2737 5.72701 14.6693 7.04929 14.3634 7.68802C13.4161 9.66772 12.1961 10.3961 9.87043 10.3812C8.34453 10.3699 6.23628 10.3812 6.23628 10.3812L3.72998 15.8496H3.73366ZM9.81514 7.65441C10.4712 7.65814 10.8988 7.37052 11.2047 6.71312C11.26 6.59359 11.7723 5.51409 12.4468 4.06855C12.9185 3.05629 12.55 2.79482 12.0376 2.79482H9.68983L7.4747 7.65067H9.81514V7.65441Z" fill="white"/>
<path d="M127.49 1.60691C127.49 0.908411 128.05 0.336914 128.747 0.336914C129.444 0.336914 129.997 0.904675 129.997 1.60691C129.997 2.30914 129.44 2.88063 128.747 2.88063C128.054 2.88063 127.49 2.31287 127.49 1.60691ZM129.849 1.60691C129.849 0.990587 129.355 0.493795 128.747 0.493795C128.139 0.493795 127.641 0.994322 127.641 1.60691C127.641 2.21949 128.135 2.72749 128.747 2.72749C129.359 2.72749 129.849 2.22696 129.849 1.60691ZM129.374 2.31661H129.171L128.769 1.66294H128.456V2.31661H128.286V0.897205H128.898C129.016 0.897205 129.134 0.904675 129.241 0.968175C129.348 1.02794 129.399 1.15494 129.399 1.27447C129.399 1.55461 129.204 1.65546 128.957 1.66294L129.381 2.31661M128.718 1.52473C128.917 1.52473 129.219 1.55835 129.219 1.267C129.219 1.04662 129.027 1.02047 128.854 1.02047H128.452V1.521H128.714L128.718 1.52473Z" fill="white"/>
</g>
<defs>
<clipPath id="clip0_174_2728">
<rect width="130" height="15.7143" fill="white" transform="translate(0 0.143066)"/>
</clipPath>
</defs>
</svg>
