<?xml version="1.0" standalone="no"?>
<!DOCTYPE svg PUBLIC "-//W3C//DTD SVG 1.1//EN" "http://www.w3.org/Graphics/SVG/1.1/DTD/svg11.dtd" >
<svg xmlns="http://www.w3.org/2000/svg">
<metadata>Generated by IcoMoon</metadata>
<defs>
<font id="icomoon-powersports" horiz-adv-x="1024">
<font-face units-per-em="1024" ascent="960" descent="-64" />
<missing-glyph horiz-adv-x="1024" />
<glyph unicode="&#x20;" horiz-adv-x="512" d="" />
<glyph unicode="&#xe900;" glyph-name="calendar" d="M320 576h128v-128h-128zM512 576h128v-128h-128zM704 576h128v-128h-128zM128 192h128v-128h-128zM320 192h128v-128h-128zM512 192h128v-128h-128zM320 384h128v-128h-128zM512 384h128v-128h-128zM704 384h128v-128h-128zM128 384h128v-128h-128zM832 960v-64h-128v64h-448v-64h-128v64h-128v-1024h960v1024h-128zM896 0h-832v704h832v-704z" />
<glyph unicode="&#xe901;" glyph-name="mail-envelope-closed" d="M170.080 663.235l247.52-215.235-247.581-215.287c-6.206 5.878-10.019 14.235-10.019 23.507v383.562c0 9.253 3.874 17.582 10.080 23.454zM885.981 663.287c6.206-5.878 10.019-14.235 10.019-23.507v-383.562c0-9.252-3.874-17.582-10.080-23.454l-247.52 215.235 247.581 215.287zM614.459 427.181l233.541-203.181h-640l233.541 203.181 86.459-75.181 86.459 75.181zM192.115 704c-35.41 0-64.115-28.624-64.115-63.81v-384.38c0-35.241 28.472-63.81 64.115-63.81h671.77c35.41 0 64.115 28.624 64.115 63.81v384.38c0 35.241-28.472 63.81-64.115 63.81h-671.77zM528 393.6l-320 278.4h640l-320-278.4z" />
<glyph unicode="&#xe902;" glyph-name="mail-envelope-closed2" d="M829.538 285.538l-25.846-25.846-191.692 164.308-84-72-84 72-191.692-164.308-25.846 25.846 189.538 162.462-189.538 162.462 25.846 25.846 275.692-236.308 275.692 236.308 25.846-25.846-189.538-162.462 189.538-162.462zM192.115 704c-35.41 0-64.115-28.624-64.115-63.81v-384.38c0-35.241 28.472-63.81 64.115-63.81h671.77c35.41 0 64.115 28.624 64.115 63.81v384.38c0 35.241-28.472 63.81-64.115 63.81h-671.77z" />
<glyph unicode="&#xe903;" glyph-name="angle-double-right" horiz-adv-x="567" d="M340 402.286c0-4.571-2.286-9.714-5.714-13.143l-266.286-266.286c-3.429-3.429-8.571-5.714-13.143-5.714s-9.714 2.286-13.143 5.714l-28.571 28.571c-3.429 3.429-5.714 8.571-5.714 13.143s2.286 9.714 5.714 13.143l224.571 224.571-224.571 224.571c-3.429 3.429-5.714 8.571-5.714 13.143s2.286 9.714 5.714 13.143l28.571 28.571c3.429 3.429 8.571 5.714 13.143 5.714s9.714-2.286 13.143-5.714l266.286-266.286c3.429-3.429 5.714-8.571 5.714-13.143zM559.429 402.286c0-4.571-2.286-9.714-5.714-13.143l-266.286-266.286c-3.429-3.429-8.571-5.714-13.143-5.714s-9.714 2.286-13.143 5.714l-28.571 28.571c-3.429 3.429-5.714 8.571-5.714 13.143s2.286 9.714 5.714 13.143l224.571 224.571-224.571 224.571c-3.429 3.429-5.714 8.571-5.714 13.143s2.286 9.714 5.714 13.143l28.571 28.571c3.429 3.429 8.571 5.714 13.143 5.714s9.714-2.286 13.143-5.714l266.286-266.286c3.429-3.429 5.714-8.571 5.714-13.143z" />
<glyph unicode="&#xe904;" glyph-name="angle-double-left" horiz-adv-x="603" d="M358.286 164.571c0-4.571-2.286-9.714-5.714-13.143l-28.571-28.571c-3.429-3.429-8.571-5.714-13.143-5.714s-9.714 2.286-13.143 5.714l-266.286 266.286c-3.429 3.429-5.714 8.571-5.714 13.143s2.286 9.714 5.714 13.143l266.286 266.286c3.429 3.429 8.571 5.714 13.143 5.714s9.714-2.286 13.143-5.714l28.571-28.571c3.429-3.429 5.714-8.571 5.714-13.143s-2.286-9.714-5.714-13.143l-224.571-224.571 224.571-224.571c3.429-3.429 5.714-8.571 5.714-13.143zM577.714 164.571c0-4.571-2.286-9.714-5.714-13.143l-28.571-28.571c-3.429-3.429-8.571-5.714-13.143-5.714s-9.714 2.286-13.143 5.714l-266.286 266.286c-3.429 3.429-5.714 8.571-5.714 13.143s2.286 9.714 5.714 13.143l266.286 266.286c3.429 3.429 8.571 5.714 13.143 5.714s9.714-2.286 13.143-5.714l28.571-28.571c3.429-3.429 5.714-8.571 5.714-13.143s-2.286-9.714-5.714-13.143l-224.571-224.571 224.571-224.571c3.429-3.429 5.714-8.571 5.714-13.143z" />
<glyph unicode="&#xe905;" glyph-name="icon-search" horiz-adv-x="1026" d="M766.831 265.644c59.616 74.813 92.347 169.498 92.347 265.352 0 236.128-192.877 429.005-430.174 429.005s-429.005-192.877-429.005-429.005 192.877-429.005 429.005-429.005c94.685 0 189.37 32.731 265.352 92.347l258.338-258.338 73.644 73.644-259.507 256zM429.005 203.689c-178.849 0-324.968 146.119-324.968 324.968s146.119 324.968 324.968 324.968 324.968-146.119 324.968-324.968-146.119-324.968-324.968-324.968z" />
<glyph unicode="&#xe906;" glyph-name="pause-outline" d="M384 694.857v-512h-128v512h128zM384 758.857h-128c-16.974 0-33.252-6.743-45.255-18.745s-18.745-28.281-18.745-45.255v-512c0-16.973 6.743-33.251 18.745-45.254s28.281-18.746 45.255-18.746h128c16.973 0 33.251 6.742 45.254 18.746s18.746 28.282 18.746 45.254v512c0 16.974-6.742 33.252-18.746 45.255s-28.282 18.745-45.254 18.745zM768 694.857v-512h-128v512h128zM768 758.857h-128c-16.973 0-33.251-6.743-45.254-18.745s-18.746-28.281-18.746-45.255v-512c0-16.973 6.742-33.251 18.746-45.254s28.282-18.746 45.254-18.746h128c16.973 0 33.251 6.742 45.254 18.746s18.746 28.282 18.746 45.254v512c0 16.974-6.742 33.252-18.746 45.255s-28.282 18.745-45.254 18.745z" />
<glyph unicode="&#xe907;" glyph-name="arrow_drop_down" d="M298 512.667h428l-214-214z" />
<glyph unicode="&#xe908;" glyph-name="pause" d="M384 758.857h-64c-16.974 0-33.252-6.743-45.255-18.745s-18.745-28.281-18.745-45.255v-512c0-16.973 6.743-33.251 18.745-45.254s28.281-18.746 45.255-18.746h64c16.973 0 33.251 6.742 45.254 18.746s18.746 28.282 18.746 45.254v512c0 16.974-6.742 33.252-18.746 45.255s-28.282 18.745-45.254 18.745zM704 758.857h-64c-16.973 0-33.251-6.743-45.254-18.745s-18.746-28.281-18.746-45.255v-512c0-16.973 6.742-33.251 18.746-45.254s28.282-18.746 45.254-18.746h64c16.973 0 33.251 6.742 45.254 18.746s18.746 28.282 18.746 45.254v512c0 16.974-6.742 33.252-18.746 45.255s-28.282 18.745-45.254 18.745z" />
<glyph unicode="&#xe909;" glyph-name="play-2" d="M85.333-73.143c-11.316 0-22.168 4.497-30.17 12.497s-12.497 18.854-12.497 30.17v938.667c-0.001 7.415 1.931 14.702 5.605 21.142s8.962 11.813 15.345 15.587c6.382 3.774 13.638 5.82 21.052 5.935s14.73-1.703 21.227-5.276l853.333-469.333c6.694-3.682 12.279-9.092 16.166-15.671 3.891-6.575 5.939-14.076 5.939-21.713 0-7.642-2.048-15.142-5.939-21.717-3.887-6.579-9.472-11.989-16.166-15.671l-853.333-469.333c-6.3-3.465-13.372-5.282-20.561-5.282z" />
<glyph unicode="&#xe90a;" glyph-name="chevron-right" d="M669.867 456.534l-256 256c-17.067 17.067-42.667 17.067-59.733 0s-17.067-42.667 0-59.733l226.133-226.133-226.133-226.133c-17.067-17.067-17.067-42.667 0-59.733 8.533-8.533 17.067-12.8 29.867-12.8s21.333 4.267 29.867 12.8l256 256c17.067 17.067 17.067 42.667 0 59.733z" />
<glyph unicode="&#xe90b;" glyph-name="chevron-left" d="M443.733 426.667l226.133 226.133c17.067 17.067 17.067 42.667 0 59.733s-42.667 17.067-59.733 0l-256-256c-17.067-17.067-17.067-42.667 0-59.733l256-256c8.533-8.533 21.333-12.8 29.867-12.8s21.333 4.267 29.867 12.8c17.067 17.067 17.067 42.667 0 59.733l-226.133 226.133z" />
<glyph unicode="&#xe90c;" glyph-name="chevron-down" d="M512 256l-320 320 44.8 44.8 275.2-275.2 275.2 275.2 44.8-44.8-320-320z" />
<glyph unicode="&#xe90d;" glyph-name="tool-kit" d="M285.251 166.857l136.224 136.218-45.248 45.251-136.227-136.218-25.376 25.373c-2.97 2.973-6.497 5.331-10.379 6.941s-8.043 2.435-12.245 2.435c-4.202 0-8.363-0.826-12.245-2.435s-7.409-3.968-10.379-6.941l-128-128c-2.972-2.97-5.331-6.496-6.94-10.378-1.609-3.885-2.437-8.045-2.437-12.246s0.828-8.365 2.437-12.246c1.609-3.882 3.967-7.408 6.94-10.378l96-96c2.971-2.973 6.497-5.331 10.379-6.938 3.882-1.61 8.043-2.438 12.245-2.438s8.363 0.829 12.245 2.438c3.882 1.606 7.409 3.965 10.379 6.938l128 128c2.973 2.97 5.331 6.496 6.94 10.378s2.436 8.045 2.436 12.246c0 4.202-0.827 8.362-2.436 12.246-1.609 3.882-3.967 7.408-6.94 10.378l-25.373 25.376zM160 36.108l-50.749 50.749 82.749 82.749 50.749-50.749-82.749-82.749zM768-9.143c-50.902 0.058-99.706 20.304-135.702 56.298-35.994 35.997-56.24 84.797-56.298 135.702 0.026 16.73 2.294 33.376 6.749 49.501l-277.248 277.242c-16.125-4.448-32.773-6.717-49.501-6.742-31.282-0.128-62.118 7.421-89.803 21.984s-51.375 35.699-68.993 61.549c-17.617 25.85-28.623 55.626-32.053 86.72s0.82 62.554 12.379 91.623l17.846 45.501 106-106c6.092-5.818 14.192-9.064 22.616-9.064s16.524 3.246 22.616 9.064c2.975 2.969 5.335 6.496 6.945 10.379s2.439 8.044 2.439 12.247c0 4.203-0.829 8.365-2.439 12.247s-3.97 7.409-6.945 10.378l-106.013 106.045 45.546 17.827c29.070 11.544 60.528 15.782 91.617 12.343s60.859-14.449 86.706-32.067c25.846-17.618 46.976-41.305 61.539-68.986s22.115-58.512 21.997-89.79c-0.022-16.728-2.294-33.377-6.749-49.501l277.248-277.232c16.125 4.445 32.774 6.707 49.501 6.733 31.283 0.128 62.118-7.421 89.805-21.984s51.376-35.696 68.992-61.546c17.619-25.85 28.624-55.629 32.054-86.723 3.427-31.094-0.822-62.554-12.384-91.622l-17.827-45.501-106.016 106c-6.093 5.818-14.192 9.066-22.614 9.066-8.426 0-16.525-3.248-22.618-9.066-2.976-2.97-5.338-6.493-6.947-10.374-1.613-3.882-2.442-8.045-2.445-12.246 0-4.205 0.826-8.368 2.435-12.25s3.968-7.411 6.941-10.381l106-106.013-45.501-17.853c-22.237-8.848-45.942-13.43-69.875-13.507zM322 583.615l334.749-334.758-7.654-19.501c-7.494-18.736-10.422-38.986-8.544-59.075 1.875-20.093 8.506-39.45 19.341-56.47 10.835-17.024 25.565-31.226 42.97-41.434 17.408-10.208 36.992-16.128 57.139-17.27l-27.875 27.875c-8.915 8.912-15.99 19.494-20.816 31.142-4.826 11.645-7.309 24.128-7.309 36.736s2.483 25.091 7.309 36.736c4.826 11.648 11.901 22.23 20.816 31.142 18.291 17.456 42.602 27.197 67.888 27.194 25.283-0.003 49.594-9.747 67.878-27.21l27.859-27.866c-1.146 20.147-7.069 39.731-17.277 57.139-10.208 17.405-24.413 32.134-41.437 42.97s-36.381 17.462-56.474 19.341c-20.090 1.878-40.342-1.050-59.078-8.544l-19.501-7.632-334.72 334.72 7.654 19.501c7.494 18.736 10.422 38.986 8.547 59.077-1.878 20.092-8.506 39.448-19.341 56.472s-25.565 31.226-42.97 41.434c-17.407 10.208-36.992 16.129-57.139 17.273l27.859-27.875c8.916-8.912 15.989-19.494 20.815-31.141s7.309-24.13 7.309-36.737c0-12.607-2.484-25.090-7.309-36.737s-11.899-22.229-20.815-31.141c-18.29-17.457-42.603-27.195-67.886-27.192s-49.594 9.748-67.88 27.208l-27.859 27.866c1.142-20.147 7.060-39.733 17.268-57.139 10.207-17.408 24.408-32.138 41.432-42.973s36.381-17.462 56.473-19.338c20.092-1.878 40.342 1.053 59.077 8.55l19.5 7.658zM931.923 859.657c-18.285 17.458-42.595 27.199-67.875 27.199s-49.59-9.741-67.875-27.199l-239.373-239.36 45.251-45.248 239.36 239.36c6.096 5.816 14.198 9.060 22.624 9.060 8.429 0 16.531-3.244 22.627-9.060 5.987-6.010 9.35-14.148 9.35-22.632s-3.363-16.622-9.35-22.632l-239.36-239.36 45.248-45.251 239.36 239.344c17.984 18.015 28.086 42.431 28.090 67.887s-10.096 49.874-28.077 67.892z" />
<glyph unicode="&#xe90e;" glyph-name="location" d="M512 374.857c-31.645 0-62.579 9.382-88.89 26.963-26.314 17.584-46.822 42.57-58.931 71.808-12.109 29.235-15.28 61.405-9.104 92.442 6.173 31.040 21.411 59.549 43.789 81.924 22.374 22.376 50.883 37.615 81.923 43.788 31.037 6.174 63.206 3.005 92.442-9.105 29.238-12.11 54.224-32.618 71.808-58.931 17.581-26.31 26.963-57.245 26.963-88.89-0.048-42.419-16.922-83.088-46.915-113.085-29.997-29.994-70.666-46.867-113.085-46.915zM512 630.857c-18.986 0-37.549-5.629-53.334-16.179-15.789-10.547-28.093-25.542-35.357-43.085-7.267-17.539-9.168-36.842-5.466-55.466 3.706-18.621 12.848-35.728 26.275-49.152 13.424-13.427 30.531-22.57 49.152-26.275 18.624-3.702 37.926-1.802 55.469 5.466 17.539 7.264 32.534 19.568 43.082 35.357 10.55 15.786 16.179 34.349 16.179 53.334-0.029 25.453-10.15 49.853-28.147 67.853-18 17.997-42.4 28.118-67.853 28.147zM512-9.143l-269.936 318.358c-1.533 1.827-11.142 14.448-11.142 14.448-46.115 60.739-71.030 134.931-70.922 211.194 0 93.357 37.086 182.889 103.099 248.901 66.012 66.013 155.544 103.099 248.901 103.099s182.89-37.086 248.902-103.099c66.013-66.013 103.098-155.545 103.098-248.901 0.115-76.23-24.784-150.394-70.874-211.114l-0.048-0.080c0 0-9.6-12.621-11.030-14.317l-270.048-318.49zM282 362.217c0.032-0.022 7.469-9.862 9.171-11.981l220.828-260.432 221.12 260.8c1.405 1.766 8.906 11.677 8.922 11.702 37.674 49.629 58.032 110.243 57.958 172.55 0 76.381-30.342 149.636-84.352 203.647-54.013 54.011-127.264 84.353-203.648 84.353-76.381 0-149.635-30.343-203.646-84.353s-84.353-127.266-84.353-203.647c-0.071-62.342 20.303-122.986 58-172.64z" />
<glyph unicode="&#xe90f;" glyph-name="property" d="M832 54.857h-640c-16.967 0.020-33.232 6.774-45.23 18.77s-18.747 28.262-18.77 45.23v640c0.023 16.967 6.773 33.232 18.77 45.23s28.263 18.747 45.23 18.77h320v-64h-320v-640h640v320h64v-320c-0.020-16.968-6.774-33.234-18.77-45.23s-28.262-18.749-45.23-18.77zM640 886.857v-64h210.755l-274.755-274.752 45.245-45.248 274.755 274.752v-210.752h64v320h-320z" />
<glyph unicode="&#xe910;" glyph-name="add" d="M512 822.857c211.2 0 384-172.8 384-384s-172.8-384-384-384c-211.2 0-384 172.8-384 384s172.8 384 384 384zM512 886.857c-246.4 0-448-201.6-448-448s201.6-448 448-448c246.4 0 448 201.6 448 448s-201.6 448-448 448zM768 470.857h-224v224h-64v-224h-224v-64h224v-224h64v224h224v64z" />
<glyph unicode="&#xe911;" glyph-name="search" d="M1011.819-9.197l-276.192 276.187c66.365 79.677 99.46 181.872 92.399 285.328-7.061 103.455-53.74 200.205-130.316 270.122-76.581 69.918-177.167 107.62-280.835 105.264s-202.438-44.588-275.763-117.913c-73.324-73.324-115.556-172.093-117.912-275.763-2.356-103.667 35.347-204.253 105.264-280.834s166.667-123.255 270.122-130.316c103.457-7.066 205.647 26.029 285.324 92.399l276.192-276.192 51.717 51.717zM97.533 524.229c0 65.098 19.304 128.735 55.471 182.862s87.572 96.314 147.714 121.226c60.143 24.912 126.323 31.43 190.169 18.73 63.849-12.7 122.495-44.048 168.526-90.079 46.036-46.031 77.38-104.679 90.083-168.527 12.698-63.847 6.183-130.027-18.729-190.169s-67.101-111.548-121.227-147.714c-54.131-36.167-117.765-55.472-182.863-55.472-87.264 0.098-170.927 34.806-232.632 96.51-61.705 61.708-96.414 145.369-96.511 232.633z" />
<glyph unicode="&#xe912;" glyph-name="setting" d="M387.196 895.998c-61.369 0.209-121.45-17.593-172.8-51.2l204.8-204.8c6.821-5.819 12.408-12.945 16.433-20.957s6.405-16.748 7.002-25.694c0.596-8.946-0.604-17.921-3.529-26.396s-7.517-16.28-13.505-22.953c-6.673-5.987-14.477-10.579-22.952-13.505s-17.45-4.125-26.396-3.529c-8.946 0.596-17.682 2.977-25.694 7.002s-15.138 9.612-20.957 16.432l-211.2 204.8c-36.515-53.732-55.517-117.444-54.4-182.4 0.337-85.614 34.497-167.627 95.035-228.166s142.551-94.7 228.165-95.032c28.018-0.154 55.953 3.067 83.2 9.6l214.398-214.4c30.131-30.131 70.994-47.058 113.603-47.058s83.471 16.927 113.597 47.058c30.131 30.126 47.058 70.989 47.058 113.597s-16.927 83.471-47.058 113.603l-214.4 214.398c6.533 27.247 9.754 55.182 9.6 83.2 0.855 42.558-6.794 84.859-22.497 124.425-15.698 39.566-39.132 75.602-68.936 105.998-29.798 30.396-65.362 54.541-104.61 71.021-39.247 16.48-81.388 24.965-123.955 24.956zM643.195 572.798c-0.046-22.738-3.277-45.358-9.6-67.2l-9.6-35.2 240-239.998c9.134-8.648 16.399-19.067 21.35-30.623s7.491-24.008 7.45-36.577c0.364-12.621-2.028-25.17-6.999-36.772-4.977-11.602-12.411-21.985-21.801-30.428-8.668-9.103-19.092-16.348-30.643-21.299s-23.987-7.501-36.557-7.501c-12.564 0-25.001 2.55-36.552 7.501-11.556 4.951-21.98 12.196-30.648 21.299l-239.998 240-35.2-9.6c-21.842-6.323-44.462-9.554-67.2-9.6-67.998 0.189-133.314 26.542-182.4 73.6-24.824 23.357-44.482 51.656-57.71 83.068-13.227 31.415-19.73 65.251-19.090 99.33 0.045 23.79 3.273 47.467 9.6 70.4l140.8-140.8c11.898-12.946 26.253-23.395 42.23-30.737s33.256-11.43 50.829-12.025c17.573-0.595 35.089 2.313 51.526 8.556s31.468 15.695 44.215 27.807c12.111 12.747 21.564 27.778 27.807 44.215s9.151 33.953 8.556 51.527c-0.596 17.573-4.684 34.852-12.025 50.829s-17.791 30.332-30.738 42.23l-140.8 140.8c20.696 6.545 42.295 9.785 64 9.6 67.998-0.188 133.313-26.544 182.398-73.6 49.132-50.582 76.672-118.284 76.8-188.8z" />
<glyph unicode="&#xe913;" glyph-name="arrow-right" d="M576 768l-45.763-44.576 242.565-243.424h-644.803v-64h644.803l-242.565-242.335 45.763-45.665 320 320-320 320z" />
<glyph unicode="&#xe914;" glyph-name="question" d="M512 886.857c-88.606 0-175.222-26.275-248.895-75.502s-131.095-119.195-165.002-201.056c-33.908-81.861-42.78-171.939-25.494-258.841 17.286-86.907 59.954-166.733 122.608-229.386s142.48-105.318 229.383-122.609c86.904-17.285 176.98-8.412 258.844 25.498 81.859 33.905 151.828 91.325 201.057 165.002 49.224 73.672 75.5 160.287 75.5 248.893 0 118.817-47.201 232.767-131.215 316.784-84.019 84.017-197.97 131.216-316.785 131.216zM512 54.857c-75.948 0-150.19 22.523-213.339 64.717s-112.367 102.164-141.431 172.334c-29.064 70.164-36.668 147.375-21.852 221.864s51.389 142.911 105.093 196.614c53.704 53.703 122.126 90.276 196.615 105.093s151.699 7.212 221.863-21.852c70.17-29.064 130.14-78.282 172.334-141.431s64.717-137.391 64.717-213.339c0-101.842-40.458-199.516-112.471-271.529s-169.687-112.471-271.529-112.471zM512 150.857c26.511 0 48 21.489 48 48s-21.489 48-48 48c-26.51 0-48-21.489-48-48s21.49-48 48-48zM544 694.856h-47.999c-18.922 0.042-37.666-3.654-55.156-10.875s-33.381-17.827-46.761-31.207c-13.38-13.38-23.985-29.272-31.207-46.761s-10.918-36.234-10.875-55.156v-16h64v16c0 21.217 8.429 41.566 23.431 56.569s35.352 23.431 56.569 23.431h47.999c21.217 0 41.564-8.429 56.571-23.431 15.002-15.003 23.429-35.352 23.429-56.569s-8.428-41.566-23.429-56.568c-15.007-15.003-35.354-23.432-56.571-23.432h-63.999v-143.999h63.999v80c38.19 0 74.819 15.171 101.821 42.177 27.008 27.005 42.179 63.632 42.179 101.823s-15.171 74.818-42.179 101.823c-27.003 27.005-63.631 42.177-101.821 42.177z" />
<glyph unicode="&#xe915;" glyph-name="checked" d="M928.427 739.23l-518.827-518.827-300.373 300.373-61.44-61.44 361.814-361.813 580.267 580.267-61.44 61.44z" />
<glyph unicode="&#xe916;" glyph-name="offer" d="M320 502.857c-25.316 0-50.063 7.507-71.113 21.572s-37.456 34.056-47.144 57.445c-9.688 23.389-12.223 49.125-7.284 73.955s17.129 47.637 35.031 65.539c17.902 17.901 40.709 30.092 65.539 35.031s50.566 2.404 73.955-7.284c23.389-9.688 43.38-26.094 57.445-47.144s21.572-45.797 21.572-71.113c-0.038-33.936-13.536-66.471-37.532-90.468s-56.532-37.494-90.468-37.532zM320 694.857c-12.655 0.013-25.029-3.727-35.559-10.745s-18.743-17.001-23.601-28.686c-4.858-11.685-6.143-24.548-3.692-36.963s8.527-23.825 17.461-32.787c8.934-8.963 20.324-15.075 32.732-17.566s25.274-1.247 36.975 3.573c11.701 4.82 21.71 13.002 28.762 23.51s10.831 22.87 10.858 35.525c0.020 16.982-6.703 33.277-18.692 45.304s-28.262 18.803-45.244 18.836zM532.598 9.591l-449.852 449.89c-12.001 12.001-18.744 28.279-18.745 45.252v318.125c0 16.974 6.743 33.252 18.745 45.255s28.281 18.745 45.255 18.745h318.121c16.974 0 33.252-6.743 45.255-18.745l449.885-449.852c12.001-12.001 18.739-28.278 18.739-45.256 0-16.973-6.738-33.249-18.739-45.256l-318.157-318.157c-12.006-11.996-28.283-18.739-45.256-18.739s-33.249 6.743-45.251 18.739zM128 822.857v-318.134l449.848-449.866 318.152 318.147-449.869 449.853h-318.131z" />
<glyph unicode="&#xe917;" glyph-name="download" d="M832 182.857v-128h-640v128h-64v-128c0-16.973 6.743-33.254 18.745-45.256s28.281-18.744 45.255-18.744h640c16.973 0 33.254 6.743 45.256 18.744s18.744 28.283 18.744 45.256v128h-64zM832 502.857l-45.123 45.12-242.877-242.557v581.437h-64v-581.437l-242.88 242.557-45.12-45.12 320-320 320 320z" />
<glyph unicode="&#xe918;" glyph-name="arrow-lr" d="M365.12 99.974l-114.56 114.883h645.44v64h-645.44l114.56 114.883-45.12 45.117-192-192 192-192 45.12 45.117zM896 630.857l-192 192-45.123-45.12 114.56-114.88h-645.437v-64h645.437l-114.56-114.88 45.123-45.12 192 192z" />
<glyph unicode="&#xe919;" glyph-name="arrow-down" d="M786.877 429.117l-242.877-242.555v645.437h-64v-645.437l-242.88 242.555-45.12-45.117 320-320 320 320-45.123 45.117z" />
<glyph unicode="&#xe91a;" glyph-name="facebook-2" d="M853.44 832h-682.88c-11.262-0.084-22.039-4.595-30.002-12.558s-12.474-18.74-12.558-30.002v-682.88c0.084-11.26 4.595-22.037 12.558-30.003 7.963-7.962 18.74-12.471 30.002-12.557h367.68v296.96h-99.84v116.16h99.84v85.44c0 99.2 60.48 153.28 149.44 153.28 29.76 0 59.52 0 89.28-4.48v-103.36h-61.12c-48.32 0-57.6-23.040-57.6-56.64v-73.92h115.2l-15.040-116.16h-100.16v-297.28h195.2c11.26 0.085 22.037 4.595 30.003 12.557 7.962 7.966 12.471 18.743 12.557 30.003v682.88c-0.085 11.262-4.595 22.039-12.557 30.002-7.966 7.963-18.743 12.474-30.003 12.558z" />
<glyph unicode="&#xe91b;" glyph-name="arrow-left" d="M448 128l45.12 45.123-242.56 242.877h645.44v64h-645.44l242.56 242.88-45.12 45.12-320-320 320-320z" />
<glyph unicode="&#xe91c;" glyph-name="plus" d="M557.954 928.524h-92.155v-434.449h-434.449v-92.151h434.449v-434.451h92.155v434.451h434.446v92.151h-434.446v434.449z" />
<glyph unicode="&#xe91d;" glyph-name="icon-play" d="M64 438.857c0-249.6 198.4-448 448-448s448 198.4 448 448c0 249.6-198.4 448-448 448s-448-198.4-448-448zM512 822.857c211.2 0 384-172.8 384-384s-172.8-384-384-384c-211.2 0-384 172.8-384 384s172.8 384 384 384zM384 214.857c-6.4 0-12.8 0-19.2 6.4-12.8 6.4-12.8 19.2-12.8 25.6v383.998c0 12.8 6.4 19.2 12.8 25.6 12.8 6.4 19.2 6.4 32 0l352-191.998c19.2-6.4 25.6-25.6 12.8-38.4 0-6.4-6.4-12.8-12.8-12.8l-352-192c0-6.4-6.4-6.4-12.8-6.4z" />
<glyph unicode="&#xe91e;" glyph-name="x" d="M1024 861.257l-89.6 89.6-422.4-422.4-422.4 422.4-89.6-89.6 422.4-422.4-422.4-422.4 89.6-89.6 422.4 422.4 422.4-422.4 89.6 89.6-422.4 422.4 422.4 422.4z" />
<glyph unicode="&#xe91f;" glyph-name="close" d="M810 664.667l-238-238 238-238-60-60-238 238-238-238-60 60 238 238-238 238 60 60 238-238 238 238z" />
<glyph unicode="&#xe920;" glyph-name="menu" d="M128 682.667h768v-86h-768v86zM128 384.667v84h768v-84h-768zM128 170.667v86h768v-86h-768z" />
<glyph unicode="&#xe921;" glyph-name="top-header" horiz-adv-x="1472" d="M0 27.843v556.291c0.017 5.647 1.637 11.174 4.672 15.936 3.135 4.857 7.57 8.737 12.8 11.2l694.208 336.448c4.326 2.077 9.056 3.155 13.856 3.155s9.53-1.078 13.856-3.155l694.208-336.192c5.229-2.466 9.664-6.346 12.8-11.2 3.034-4.762 4.653-10.289 4.672-15.936v-556.803l-255.232 83.52c-1.28 3.136-2.56 6.4-3.84 9.344l123.584 241.987-142.656 138.944-248.512-119.872c-3.136 1.344-6.4 2.56-9.6 3.84l-88.384 256h-201.728l-88.384-256.32-9.6-3.52-248.448 119.872-142.656-138.752 123.456-241.987c-1.28-3.072-2.56-6.4-3.84-9.344l-255.232-83.456zM725.568 200.131c-74.016 0.141-145.182-28.55-198.4-80-25.969-25.062-46.644-55.085-60.803-88.282-14.159-33.203-21.514-68.902-21.629-104.998h561.6c-0.083 36.090-7.405 71.795-21.53 105.005-14.131 33.21-34.771 63.251-60.71 88.339-53.203 51.482-124.365 80.224-198.4 80.128l-0.128-0.192z" />
<glyph unicode="&#xe922;" glyph-name="rebel-icon" horiz-adv-x="1638" d="M1533.959 414.853c-62.464 62.464-156.16 86.528-241.664 69.632-15.36 28.672-39.424 74.752-66.048 129.024h50.176v191.488h-102.4v-80.384l-65.024 149.504c-7.168 17.92-18.944 33.28-34.816 44.032s-34.304 16.384-53.76 16.384h-82.944v-102.4h78.336l23.040-52.736c-100.352 3.072-211.968-56.32-264.192-141.312-57.856-94.208-111.617-81.92-151.041-73.216-1.536 0-3.072 0.512-4.096 1.024l-46.080 22.528c-4.608 2.048-118.272 54.784-278.016 43.008-92.672-6.656-171.52-44.032-174.592-45.568l-46.080-22.016 44.032-92.16 46.080 22.016c0 0 65.536 30.72 137.728 35.84 131.072 9.728 225.792-33.28 226.816-33.792l5.12-2.56c2.56-11.264 7.168-20.992 9.728-26.624 25.6-70.656 53.248-145.92 72.704-198.653h-34.816c-8.192 54.781-33.28 105.981-73.216 146.429-86.016 86.016-231.936 100.352-332.8 32.768-43.52-29.184-77.312-70.144-97.28-118.272s-25.088-100.861-14.848-152.573c10.24-51.2 35.328-98.304 72.192-135.168s83.456-61.952 135.168-72.192c16.896-3.584 34.304-5.12 51.712-5.12 34.304 0 68.608 6.656 100.864 19.968 48.128 19.968 89.088 53.76 118.272 97.28 17.408 26.112 29.184 54.272 36.352 84.48h76.8l342.017 3.584 151.552 370.685c18.944-38.4 36.352-71.168 49.152-95.232-41.472-28.672-74.24-68.608-93.696-115.712-19.968-48.64-25.088-100.861-14.848-152.573 10.24-51.2 35.328-98.304 72.192-135.168s83.968-61.952 135.168-72.192c16.896-3.584 34.304-5.12 51.712-5.12 34.304 0 68.608 6.656 100.864 19.968 48.128 19.968 89.088 53.76 118.272 97.28s44.544 94.208 44.544 146.432c0 70.653-27.648 136.701-77.312 186.365l-1.024 1.024zM456.709 138.889c-17.92-26.624-43.008-47.104-72.704-59.392s-61.952-15.36-93.184-9.216c-31.232 6.144-59.904 21.504-82.432 44.032s-37.888 51.2-44.032 82.432c-6.144 31.232-3.072 63.488 9.216 93.181 12.288 29.696 32.768 54.784 59.392 72.192 26.624 17.92 57.856 27.136 89.6 27.136 42.496 0 83.968-17.408 114.176-47.104 20.992-20.992 34.816-46.592 41.984-74.237l-195.072-1.024v-102.4l187.904 0.512c-4.096-9.216-8.192-18.432-14.336-27.136l-0.512 1.024zM928.263 271.497l-202.24-2.048c-14.848 40.957-41.472 113.149-69.121 188.413 57.345-2.048 137.217 16.384 205.313 128 33.28 54.272 114.688 96.768 177.664 92.672 24.064-1.536 38.4-9.216 47.104-17.408l-159.232-389.629h0.512zM1482.247 138.889c-17.92-26.624-43.008-47.104-72.704-59.392s-61.952-15.36-93.184-9.216c-31.232 6.144-59.904 21.504-82.944 44.032s-37.888 51.2-44.032 82.432c-6.144 31.232-3.072 63.488 9.216 93.181 12.288 29.696 32.768 54.784 59.392 72.704s57.856 27.136 89.6 27.136c42.496 0 83.968-17.408 114.176-47.104 30.72-30.208 47.104-71.165 47.104-114.173 0-31.744-9.216-62.976-27.136-89.6h0.512z" />
<glyph unicode="&#xe923;" glyph-name="calculator" d="M832 832v-768h-640v768h640zM832 896h-640c-16.974 0-33.252-6.743-45.255-18.745s-18.745-28.281-18.745-45.255v-768c0-16.973 6.743-33.251 18.745-45.254s28.281-18.746 45.255-18.746h640c16.973 0 33.251 6.742 45.254 18.746s18.746 28.282 18.746 45.254v768c0 16.974-6.742 33.252-18.746 45.255s-28.282 18.745-45.254 18.745zM352 224h-64v-64h64v64zM736 224h-64v-64h64v64zM352 384h-64v-64h64v64zM736 384h-64v-64h64v64zM352 544h-64v-64h64v64zM544 224h-64v-64h64v64zM544 384h-64v-64h64v64zM544 544h-64v-64h64v64zM736 544h-64v-64h64v64zM736 736h-448v-96h448v96z" />
<glyph unicode="&#xe924;" glyph-name="crf-icon" horiz-adv-x="1479" d="M119.467 425.244c-39.822-28.444-68.267-62.578-91.022-108.089-17.067-45.511-22.756-91.022-11.378-142.222 11.378-45.511 34.133-91.022 68.267-125.156s79.644-56.889 125.156-68.267c17.067-5.689 34.133-5.689 45.511-5.689 34.133 0 62.578 5.689 91.022 17.067 45.511 17.067 79.644 51.2 108.089 91.022s39.822 85.333 39.822 136.533c0 62.578-28.444 125.156-73.956 170.667-73.956 85.333-204.8 96.711-301.511 34.133zM386.844 135.111c-17.067-28.444-39.822-45.511-68.267-56.889s-62.578-17.067-91.022-11.378c-28.444 5.689-56.889 22.756-79.644 45.511s-39.822 51.2-45.511 79.644c-5.689 28.444-5.689 62.578 11.378 91.022 11.378 28.444 34.133 51.2 56.889 68.267 28.444 17.067 56.889 28.444 85.333 28.444 39.822 0 79.644-17.067 113.778-45.511 28.444-28.444 45.511-68.267 45.511-113.778 0-28.444-11.378-56.889-28.444-85.333zM1393.778 396.8c-45.511 45.511-108.089 73.956-170.667 73.956-17.067 0-28.444 0-45.511-5.689l-22.756 56.889c5.689 0 11.378 0 17.067 0 34.133 5.689 68.267 5.689 102.4 0 0 0 5.689 0 5.689 0 22.756 0 39.822 11.378 39.822 34.133 5.689 22.756-11.378 45.511-34.133 51.2-34.133 5.689-68.267 5.689-102.4 5.689l-73.956 210.489c-5.689 22.756-34.133 34.133-56.889 28.444l-17.067-5.689-11.378 22.756c-5.689 17.067-17.067 28.444-28.444 39.822s-34.133 17.067-45.511 17.067h-79.644v-85.333h73.956l5.689-22.756-11.378-5.689c-11.378-5.689-17.067-11.378-22.756-22.756 0-5.689-5.689-11.378-5.689-17.067-17.067 0-28.444 5.689-45.511 5.689-51.2 0-102.4-17.067-170.667-39.822l-39.822-11.378c0 0 0 0 0 0-45.511-11.378-96.711-22.756-125.156-11.378-199.111 56.889-449.422 130.844-449.422 130.844-5.689-5.689-28.444-17.067-34.133-34.133 0-5.689-22.756-45.511 0-96.711 11.378-34.133 45.511-62.578 91.022-73.956 142.222-51.2 187.733-96.711 221.867-130.844 39.822-39.822 73.956-68.267 153.6-68.267 34.133-96.711 51.2-159.289 51.2-159.289 5.689-17.067 22.756-28.444 39.822-28.444h204.8c11.378 0 22.756 5.689 34.133 17.067l199.111 227.556c5.689 0 5.689 0 11.378 0s11.378 0 17.067 0l11.378 5.689 22.756-62.578c-5.689 0-5.689-5.689-11.378-5.689-39.822-28.444-68.267-62.578-91.022-108.089-17.067-45.511-22.756-91.022-11.378-142.222s34.133-91.022 68.267-125.156c34.133-34.133 79.644-56.889 125.156-68.267s96.711-5.689 142.222 11.378c45.511 17.067 79.644 51.2 108.089 91.022s39.822 85.333 39.822 136.533c-5.689 56.889-34.133 119.467-79.644 164.978zM1103.644 595.911l-22.756-11.378-56.889 147.911 22.756 11.378 56.889-147.911zM790.756 334.222h-153.6c-5.689 22.756-17.067 56.889-34.133 102.4h68.267v91.022h-125.156c0 0 0 0 0 0-79.644-5.689-91.022 5.689-125.156 39.822-39.822 39.822-96.711 96.711-256 153.6-5.689 0-17.067 5.689-28.444 11.378 91.022-28.444 250.311-73.956 381.156-113.778 91.022-28.444 250.311 39.822 267.378 45.511 39.822 11.378 68.267 22.756 91.022 22.756 28.444 0 56.889-5.689 79.644-17.067l34.133-102.4c0 0-5.689 0-5.689-5.689l-193.422-227.556zM1353.956 135.111c-17.067-28.444-39.822-45.511-68.267-56.889s-62.578-17.067-91.022-11.378c-28.444 5.689-56.889 22.756-79.644 45.511s-39.822 51.2-45.511 79.644c-5.689 28.444-5.689 62.578 11.378 91.022 11.378 28.444 34.133 51.2 56.889 68.267 28.444 17.067 56.889 28.444 85.333 28.444 39.822 0 79.644-17.067 113.778-45.511 28.444-28.444 45.511-68.267 45.511-113.778 0-28.444-11.378-56.889-28.444-85.333z" />
<glyph unicode="&#xe925;" glyph-name="sound-muted" d="M992 562.88l-45.12 45.12-114.88-114.88-114.88 114.88-45.12-45.12 114.88-114.88-114.88-114.88 45.12-45.12 114.88 114.88 114.88-114.88 45.12 45.12-114.88 114.88 114.88 114.88zM576 0c-4.234 0.013-8.422 0.87-12.322 2.522-3.9 1.645-7.434 4.051-10.398 7.078l-243.84 246.4h-213.44c-8.487 0-16.627 3.366-22.627 9.37s-9.373 14.144-9.373 22.63v319.997c0 8.487 3.372 16.627 9.373 22.628s14.14 9.372 22.627 9.372h213.44l243.84 246.4c5.996 5.96 14.106 9.306 22.56 9.306s16.564-3.345 22.56-9.306c6.029-5.908 9.48-13.959 9.6-22.4v-831.997c0-8.486-3.372-16.627-9.373-22.63s-14.14-9.37-22.627-9.37z" />
<glyph unicode="&#xe926;" glyph-name="sound-active" d="M869.12 701.437l-48.96-41.28c50.298-59.582 77.114-135.479 75.405-213.434s-31.827-152.605-84.685-209.923l47.040-44.8c63.475 68.781 99.648 158.383 101.709 251.959s-30.125 184.684-90.509 256.198v1.28zM690.56 576.001c30.17-35.777 46.234-81.341 45.178-128.129-1.062-46.788-19.174-91.578-50.938-125.951l47.040-43.521c42.336 45.878 66.445 105.64 67.802 168.049 1.35 62.408-20.141 123.162-60.442 170.833l-48.64-41.28zM576 0c-4.234 0.013-8.422 0.87-12.322 2.522-3.9 1.645-7.434 4.051-10.398 7.078l-243.84 246.4h-213.44c-8.487 0-16.627 3.366-22.627 9.37s-9.373 14.144-9.373 22.63v319.997c0 8.487 3.372 16.627 9.373 22.628s14.14 9.372 22.627 9.372h213.44l243.84 246.4c5.996 5.96 14.106 9.306 22.56 9.306s16.564-3.345 22.56-9.306c6.029-5.908 9.48-13.959 9.6-22.4v-831.997c0-8.486-3.372-16.627-9.373-22.63s-14.14-9.37-22.627-9.37z" />
<glyph unicode="&#xe927;" glyph-name="champion-cup" d="M938.667 832h-85.333v42.667c-0.027 22.624-9.025 44.314-25.023 60.311-15.995 15.997-37.687 24.996-60.31 25.022h-512c-22.624-0.026-44.314-9.025-60.311-25.022s-24.996-37.687-25.022-60.311v-42.667h-85.333c-22.624-0.026-44.314-9.025-60.311-25.022s-24.996-37.687-25.022-60.311v-128c0.051-45.247 18.048-88.627 50.043-120.624 31.995-31.993 75.375-49.992 120.623-50.043h13.739c17.778-65.311 54.189-124.034 104.787-168.994s113.192-74.216 180.141-84.193v-173.479h-213.333v-85.333h512v85.333h-213.333v173.606c67.816 8.387 131.533 37.018 182.832 82.159 51.299 45.145 87.801 104.701 104.742 170.902h11.093c45.247 0.051 88.627 18.050 120.624 50.043 31.993 31.997 49.992 75.377 50.043 120.624v128c-0.027 22.624-9.025 44.314-25.023 60.311-15.995 15.997-37.687 24.996-60.31 25.022zM170.667 533.333c-22.624 0.027-44.314 9.025-60.311 25.023-15.997 15.995-24.996 37.687-25.022 60.31v128h85.333v-213.333zM768 533.333c0-34.284-6.888-68.219-20.251-99.792-13.367-31.573-32.935-60.14-57.549-84.002-24.617-23.866-53.774-42.544-85.743-54.927-31.973-12.38-66.103-18.214-100.372-17.155-67.946 4.215-131.649 34.464-177.858 84.456-46.208 49.992-71.362 115.876-70.226 183.945v328.81h512v-341.333zM938.667 618.667c-0.027-22.624-9.025-44.315-25.023-60.31-15.995-15.998-37.687-24.996-60.31-25.023v213.333h85.333v-128z" />
<glyph unicode="&#xe928;" glyph-name="filters" d="M960 704h-131.2c-16 73.6-80 128-156.8 128s-140.8-54.4-156.8-128h-451.2v-64h451.2c16-73.6 80-128 156.8-128s140.8 54.4 156.8 128h131.2v64zM672 576c-54.4 0-96 41.6-96 96s41.6 96 96 96c54.4 0 96-41.6 96-96s-41.6-96-96-96zM64 192h131.2c16-73.6 80-128 156.8-128s140.8 54.4 156.8 128h451.2v64h-451.2c-16 73.6-80 128-156.8 128s-140.8-54.4-156.8-128h-131.2v-64zM352 320c54.4 0 96-41.6 96-96s-41.6-96-96-96c-54.4 0-96 41.6-96 96s41.6 96 96 96z" />
<glyph unicode="&#xe929;" glyph-name="view" d="M522.24 128c-245.76 0-432.96 94.72-455.040 230.083-8.64 52.48 0 183.997 260.48 271.037l20.16-60.8c-148.48-49.6-229.76-124.477-217.28-199.997 13.76-85.443 155.84-176.323 391.68-176.323 235.837 0 362.557 88.003 371.84 169.923 8.643 77.117-80.957 177.597-300.8 227.837l14.397 62.4c275.84-63.040 361.6-194.88 350.080-297.277-12.8-112.963-152.32-226.56-435.517-226.56v-0.323zM653.44 410.24l-127.36 226.24 226.56 127.36 31.36-55.68-170.557-96 96-170.56-56.003-31.36z" />
<glyph unicode="&#xe92a;" glyph-name="rider-vew" d="M791.040 793.921c-22.077 0-42.88-9.6-57.6-25.92l-69.12-79.040c-2.56-2.88-5.76-4.16-9.277-4.16h-285.763c-3.52 0-7.040 1.6-9.28 4.16l-69.12 79.040c-14.4 16.64-35.52 25.92-57.6 25.92h-178.24v-64h177.92c3.52 0 7.040-1.6 9.28-4.16l69.12-79.040c14.4-16.64 35.52-25.92 57.6-25.92h285.76c22.083 0 42.88 9.6 57.6 25.92l69.12 79.040c2.243 2.56 5.76 4.16 9.283 4.16h177.92v64h-177.603zM512 371.2c-30.72 0-56 25.283-56 56.003 0 30.717 25.28 55.997 56 55.997s56.003-25.28 56.003-55.997c0-30.72-25.283-56.003-56.003-56.003zM512 435.2c-4.48 0-8-3.517-8-7.997 0-8.965 15.997-8.965 15.997 0 0 4.48-3.517 7.997-7.997 7.997zM393.28 74.563l4.48 1.597c-27.84 75.52-85.44 293.12-15.68 392.96 26.56 38.080 68.8 56.32 129.92 56.32 61.117 0 103.68-18.56 129.92-56.32 69.437-99.84 12.8-316.16-15.683-394.557h67.523c24.637 75.837 88.32 304.957 0.957 431.037-38.717 55.68-100.157 84.16-182.4 84.16-82.237 0-143.677-28.16-182.397-83.84-88.64-127.357-22.080-360.64 1.28-431.040h62.72l-0.64-0.317z" />
<glyph unicode="&#xe92b;" glyph-name="top-view" d="M168.64 415.043h-109.12c-18.24 0-32.96 14.72-32.96 32.957 0 18.24 14.72 32.96 32.96 32.96h109.12c18.24 0 32.96-14.72 32.96-32.96 0-18.237-14.72-32.957-32.96-32.957zM966.083 415.043h-99.2c-18.243 0-32.963 14.72-32.963 32.957 0 18.24 14.72 32.96 32.963 32.96h99.2c18.237 0 32.957-14.72 32.957-32.96 0-18.237-14.72-32.957-32.957-32.957zM605.763 338.243c-75.843 0-158.403 25.917-183.043 34.56h-236.16c-26.56 0-48 21.437-48 48v54.397c0 26.56 21.44 48 48 48h234.56c37.44 13.76 206.080 70.4 285.763 15.68 19.517-13.44 42.557-39.36 42.557-87.040 0-47.677-23.040-74.24-42.557-87.997-26.563-18.883-63.043-25.283-101.443-25.283l0.323-0.317zM202.88 436.803h231.040l5.12-1.92c66.24-23.68 187.843-49.603 231.040-18.883 7.363 5.12 15.683 13.763 15.683 35.52 0 21.76-8.003 29.76-14.725 34.56-43.197 29.76-165.437 0.64-232.317-24.64l-5.44-1.92h-230.080v-22.4l-0.32-0.317zM839.040 372.803h-152.96l1.92 150.718h151.040c26.557 0 48-21.76 48-48.32v-54.398c0-26.563-21.443-48-48-48zM750.72 436.803h72.32v22.398h-72.003v-22.398h-0.317zM750.080 451.52h-64v127.36l-43.52 43.84 45.123 45.12 62.397-62.4v-153.92zM687.683 235.203l-45.123 45.44 43.52 43.52v127.358h64v-153.921l-62.397-62.397z" />
<glyph unicode="&#xe92c;" glyph-name="zoom-in" d="M576 576h-128v128h-64v-128h-128v-64h128v-128h64v128h128v64zM686.332 320c52.796 62.694 81.724 142.037 81.668 224 0 69.619-20.646 137.675-59.324 195.561s-93.653 103.003-157.973 129.645c-64.316 26.642-135.093 33.613-203.375 20.031s-131.002-47.107-180.23-96.335c-49.228-49.228-82.753-111.949-96.335-180.23s-6.612-139.059 20.031-203.375c26.642-64.32 71.759-119.296 129.645-157.973s125.942-59.324 195.561-59.324c81.963-0.055 161.306 28.873 224 81.668l242.748-241.668 45.252 45.252-241.668 242.748zM416 256c-56.961 0-112.643 16.892-160.004 48.538s-84.275 76.625-106.073 129.25c-21.798 52.625-27.502 110.531-16.389 166.398s38.542 107.183 78.819 147.461c40.278 40.277 91.594 67.707 147.461 78.819s113.773 5.409 166.398-16.389c52.625-21.798 97.604-58.711 129.25-106.073s48.538-103.043 48.538-160.004c-0.085-76.356-30.455-149.559-84.446-203.554-53.995-53.99-127.198-84.361-203.554-84.446z" />
<glyph unicode="&#xe92d;" glyph-name="zoom-out" d="M576 576h-320v-64h320v64zM686.332 320c52.796 62.694 81.724 142.037 81.668 224 0 69.619-20.646 137.675-59.324 195.561s-93.653 103.003-157.973 129.645c-64.316 26.642-135.093 33.613-203.375 20.031s-131.002-47.107-180.23-96.335c-49.228-49.228-82.753-111.949-96.335-180.23s-6.612-139.059 20.031-203.375c26.642-64.32 71.759-119.296 129.645-157.973s125.942-59.324 195.561-59.324c81.963-0.055 161.306 28.873 224 81.668l242.748-241.668 45.252 45.252-241.668 242.748zM416 256c-56.961 0-112.643 16.892-160.004 48.538s-84.275 76.625-106.073 129.25c-21.798 52.625-27.502 110.531-16.389 166.398s38.542 107.183 78.819 147.461c40.278 40.277 91.594 67.707 147.461 78.819s113.773 5.409 166.398-16.389c52.625-21.798 97.604-58.711 129.25-106.073s48.538-103.043 48.538-160.004c-0.085-76.356-30.455-149.559-84.446-203.554-53.995-53.99-127.198-84.361-203.554-84.446z" />
<glyph unicode="&#xe92e;" glyph-name="search-bar" d="M959.974 35.971l-150.080 150.080c87.040 112 66.88 273.28-45.12 360.32-112 87.041-273.28 66.88-360.32-45.12s-66.88-273.28 45.12-360.32c92.8-72 222.4-72 315.2 0l150.080-150.080 45.12 45.12zM607.974 150.851c-105.92 0-192 86.080-192 192s86.080 192 192 192c105.92 0 192-86.080 192-192s-86.080-192-192-192zM320 566.857h-256v-64h256v64zM576 886.857h-512v-64h512v64zM576 726.857h-512v-64h512v64z" />
<glyph unicode="&#xe92f;" glyph-name="top-view1" d="M952.637 298.639l32.64 142.080c1.28 5.12 0.957 10.241 0 15.041l-37.12 144c-3.2 12.48-13.44 21.76-25.923 23.68l-38.717 6.080h43.197c18.243 0 32.963 14.72 32.963 32.96s-14.72 32.96-32.963 32.96h-138.24c-18.237 0-32.957-14.72-32.957-32.96 0-4.48 0.957-8.96 2.56-12.8l-40.96 6.4c0 0-2.883 0-4.48 0v0.64l-105.923-8.32c0 0-0.957 0-1.597 0.32l-270.723 45.12c-5.76 0.96-11.84 0-17.28-1.92l-18.24-7.36c-6.4 7.040-15.36 11.84-25.6 11.84h-151.36c-18.88 0-34.24-15.36-34.24-34.24s15.36-34.24 34.24-34.24h35.52l-98.56-39.68c-12.16-4.8-20.16-16.64-20.16-29.76l-0.64-232.638c0-13.763 8.32-25.923 21.44-30.403l78.72-27.837h-16.32c-18.88 0-34.24-15.36-34.24-34.243 0-18.877 15.36-34.237 34.24-34.237h151.68c10.24 0 19.2 4.797 25.6 11.837l19.52-6.717c3.52-1.28 7.040-1.92 10.56-1.92 1.6 0 3.2 0 4.8 0.317l262.4 40.96c0 0 1.92 0.64 2.883 0.963l103.68-9.283c0 0 2.877-0.957 4.48-0.957 1.92 0 3.84 0 5.76 0.64l43.837 7.997c-0.957-2.877-1.92-6.077-1.92-9.277 0-18.243 14.72-32.963 32.963-32.963h138.24c18.237 0 32.957 14.72 32.957 32.963 0 18.237-14.72 32.957-32.957 32.957h-41.6l42.557 7.68c12.483 2.243 22.4 11.843 25.283 24.32zM701.435 446.479c0-36.48-12.16-105.917-19.517-144.957l-52.803 4.797c6.4 40.32 15.683 104.003 15.683 141.44 0 37.441-5.76 99.841-9.6 138.881l49.92 3.84c6.077-38.72 16.317-107.2 16.317-144.001zM102.715 447.442v89.598l180.48 72.32-41.28-153.6c-1.6-5.76-1.6-11.841 0-17.601l46.72-155.837-186.56 65.92 0.64 98.877v0.323zM563.835 303.442l-204.8-32-52.8 176.638 48 177.6 216.64-36.16c3.84-36.48 10.24-104.96 10.24-142.078 0-37.12-10.88-108.16-16.957-144.323l-0.323 0.323zM895.037 333.522l-147.2-27.203c7.68 42.24 17.597 103.68 17.597 140.16s-8.32 97.921-14.72 139.201l140.483-22.4 30.080-116.161-26.24-113.92v0.323z" />
<glyph unicode="&#xe930;" glyph-name="interior-view" d="M512.005 40.238c-224.96 0-407.68 182.723-407.68 407.68 0 224.962 182.72 407.682 407.68 407.682 224.957 0 407.68-182.72 407.68-407.682 0-224.957-182.723-407.68-407.68-407.68zM512.005 791.6c-189.44 0-343.68-154.24-343.68-343.682 0-189.44 154.24-343.68 343.68-343.68s343.68 154.24 343.68 343.68c0 189.442-154.24 343.682-343.68 343.682zM512 320c-70.72 0-128 57.283-128 128 0 70.72 57.28 128 128 128 70.717 0 128-57.28 128-128 0-70.717-57.283-128-128-128zM512 512c-35.2 0-64-28.8-64-64s28.8-64 64-64c35.2 0 64 28.8 64 64s-28.8 64-64 64zM542.725 353.597h-64v-270.397h64v270.397zM615.378 460.463l-8.279-63.463 276.383-36.045 8.274 63.468-276.378 36.040zM403.48 460.146l-276.392-35.944 8.254-63.468 276.392 35.948-8.254 63.464z" />
<glyph unicode="&#xe931;" glyph-name="atv-icon" d="M606.72 374.613l-215.893 0.853-34.987 135.68-81.92 75.093-131.413 0.853-22.187-41.813-52.907 28.16 38.4 74.24 192-2.56 110.933-102.4 28.16-108.373h121.173l29.867 139.947 130.56 87.040 187.733-11.947 50.347-121.173-55.467-23.040-35.84 87.040-130.56 8.533-93.867-62.293zM478.72 557.227l-192 29.013 8.533 58.88 158.72-23.893 61.44 75.093 209.067-24.747-6.827-58.88-176.64 20.48zM696.32 619.52l-44.373 102.4h-50.347v59.733h52.053c11.947 0 23.040-3.413 32.427-10.24s17.067-15.36 21.333-26.453l44.373-102.4-55.467-23.040zM221.867 162.133c-9.387 0-17.92 0.853-27.307 2.56-28.16 5.973-52.907 18.773-72.533 38.4s-33.28 44.373-38.4 71.68c-5.973 27.307-2.56 55.467 7.68 81.92 10.24 25.6 28.16 46.933 52.053 63.147 23.040 15.36 50.347 23.893 78.507 23.893 37.547 0 73.387-14.507 99.84-40.96s40.96-62.293 40.96-99.84c0-27.307-7.68-54.613-23.040-77.653-16.213-23.893-37.547-41.813-63.147-52.053-17.92-7.68-35.84-11.093-54.613-11.093zM221.867 384c-16.213 0-31.573-4.267-45.227-13.653s-23.893-21.333-29.867-36.693c-5.973-14.507-7.68-30.72-4.267-46.080 3.413-16.213 11.093-30.72 22.187-41.813s25.6-18.773 41.813-22.187c16.213-3.413 31.573-1.707 46.080 4.267s27.307 16.213 36.693 29.867c8.533 12.8 13.653 29.013 13.653 45.227 0 21.333-8.533 41.813-23.893 57.173-14.507 15.36-34.987 23.893-57.173 23.893zM776.533 162.133c-9.387 0-17.92 0.853-27.307 2.56-28.16 5.973-52.907 18.773-72.533 38.4s-33.28 44.373-38.4 71.68c-5.973 27.307-2.56 55.467 7.68 81.92 10.24 25.6 28.16 46.933 52.053 63.147 23.040 15.36 50.347 23.893 78.507 23.893 37.547 0 73.387-14.507 99.84-40.96s40.96-62.293 40.96-99.84c0-27.307-7.68-54.613-23.040-77.653-16.213-23.893-37.547-41.813-63.147-52.053-17.92-7.68-35.84-11.093-54.613-11.093zM776.533 384c-16.213 0-31.573-4.267-45.227-13.653s-23.893-21.333-29.867-36.693c-5.973-14.507-7.68-30.72-4.267-46.080 3.413-16.213 11.093-30.72 22.187-41.813s25.6-18.773 41.813-22.187c16.213-3.413 31.573-1.707 46.080 4.267s27.307 16.213 36.693 29.867c8.533 12.8 13.653 29.013 13.653 45.227 0 22.187-8.533 41.813-23.893 57.173-14.507 15.36-34.987 23.893-57.173 23.893z" />
<glyph unicode="&#xe932;" glyph-name="talon-icon" d="M429.227 285.867l-8.533 13.653c-60.587 93.867-139.093 202.24-160.427 214.187-13.653 7.68-52.907 13.653-96.427 17.92l-98.133 5.973 3.413 59.733c14.507-0.853 56.32-2.56 101.547-6.827l134.827-9.387-6.827 56.32 1.707 139.947 287.573-44.373 157.867-185.173-10.24-8.533 91.307 11.093 110.080-32.427 29.867-73.387-55.467-23.040-19.627 46.933-70.827 21.333-71.68-8.533-40.96-78.507v-116.907h-279.040zM336.213 519.68c43.52-52.053 98.133-132.267 125.44-174.080h188.587v70.827l49.493 94.72-142.507 166.4-197.973 30.72-0.853-67.413 13.653-122.88-35.84 1.707zM710.786 504.171l7.598 59.249 110.035-14.111-7.598-59.249-110.035 14.111zM307.2 552.107h391.68v-59.733h-391.68v59.733zM736.246 489.833l55.098 23.063 47.773-114.132-55.098-23.063-47.773 114.132zM273.849 323.934l152.816 22.396 8.661-59.1-152.816-22.396-8.661 59.1zM246.197 323.898l34.602 171.47 58.551-11.815-34.602-171.47-58.551 11.815zM99.771 592.97l207.273 160.223 36.533-47.261-207.273-160.223-36.533 47.261zM98.766 547.579l59.387 6.445 17.955-165.435-59.387-6.445-17.955 165.435zM168.107 162.133c-7.68 0-16.213 0.853-23.893 2.56-24.747 5.12-46.933 17.067-64.853 34.133-17.067 17.067-29.013 39.253-34.133 64s-2.56 49.493 6.827 72.533c9.387 23.040 25.6 41.813 46.080 56.32 20.48 13.653 44.373 21.333 69.973 21.333 33.28 0 64.853-12.8 88.747-36.693s36.693-55.467 36.693-88.747c0-24.747-6.827-48.64-20.48-69.12-14.507-21.333-33.28-36.693-56.32-46.080-15.36-6.827-31.573-10.24-48.64-10.24zM168.107 352.427c-13.653 0-25.6-3.413-36.693-11.093s-19.627-17.92-24.747-29.867c-5.12-11.947-5.973-24.747-3.413-37.547s8.533-24.747 17.92-34.133c9.387-9.387 20.48-15.36 34.133-17.92 12.8-2.56 25.6-0.853 37.547 3.413 11.947 5.12 22.187 13.653 29.867 24.747 6.827 10.24 11.093 23.893 11.093 36.693 0 17.92-6.827 34.133-18.773 46.080-12.8 13.653-29.013 19.627-46.933 19.627zM855.893 162.133c-7.68 0-16.213 0.853-23.893 2.56-24.747 5.12-46.933 17.067-64.853 34.133-17.067 17.067-29.013 39.253-34.133 64s-2.56 49.493 6.827 72.533c9.387 23.040 25.6 41.813 46.080 56.32 20.48 13.653 44.373 21.333 69.973 21.333 33.28 0 64.853-12.8 88.747-36.693s36.693-55.467 36.693-88.747c0-24.747-6.827-48.64-20.48-69.12-14.507-21.333-33.28-36.693-56.32-46.080-16.213-6.827-32.427-10.24-48.64-10.24zM855.893 352.427c-13.653 0-25.6-3.413-36.693-11.093s-19.627-17.92-24.747-29.867c-5.12-11.947-5.973-24.747-3.413-37.547s8.533-24.747 17.92-34.133c9.387-9.387 20.48-15.36 34.133-17.92 12.8-2.56 25.6-0.853 37.547 3.413 11.947 5.12 22.187 13.653 29.867 24.747 6.827 10.24 11.093 23.893 11.093 36.693 0 17.92-6.827 34.133-18.773 46.080-12.8 13.653-29.867 19.627-46.933 19.627z" />
<glyph unicode="&#xe933;" glyph-name="top-view-trim-fourtrax" d="M961.28 423.649l-64 2.56c1.28 29.119 2.56 112.959-6.077 150.079-4.163 18.88-15.36 40.96-31.36 62.4-3.84 5.12-9.283 8.64-16 9.92-27.203 5.12-96.323 16.32-151.040 12.48-64-4.16-90.563-28.48-91.843-29.44l-4.797-4.48-6.723-2.56c-16.64-6.080-101.757-34.56-148.157-16-22.080 8.64-39.36 23.040-54.4 35.52-8.64 7.040-22.080 17.92-26.88 18.56-21.76 1.28-153.28 0.32-202.24 0-17.92 0-32-14.4-32-31.68v-199.039h-64v199.039c0 52.8 42.88 95.68 95.68 95.68 7.040 0 177.6 1.6 206.080 0 25.28-1.28 45.12-17.6 64-32.96 12.16-9.92 24.96-20.48 37.76-25.6 14.72-6.080 61.12 2.88 97.277 15.040 14.72 11.84 54.4 37.12 126.080 41.92 59.843 4.16 130.243-6.72 167.040-13.44 22.4-4.16 42.24-16.32 55.68-34.24 15.043-20.16 34.56-51.52 42.563-86.72 12.16-53.12 7.68-162.242 7.357-166.722v-0.317zM421.437 677.2h-64v-140.8h64v140.8zM295.363 169.042c-58.88 0-133.44 0.64-137.92 0.64-52.48 0-95.68 42.88-95.68 95.677v199.041h64v-199.041c0-17.597 14.4-31.677 31.68-31.677 48.96-0.323 180.48-1.28 202.56 0 4.8 0.64 18.24 11.52 26.88 18.56 15.36 12.477 32.64 26.557 54.4 35.517 46.4 18.56 131.517-10.24 148.157-16l6.723-2.56 5.12-5.12c0 0 27.52-24.637 91.52-29.117 54.717-3.523 123.837 7.68 151.040 12.477 6.717 1.28 12.16 4.48 16 9.923 16 21.437 27.197 43.52 31.36 62.397 8.32 37.12 7.040 120.96 6.077 150.081l64 2.56c0-4.48 4.48-113.601-7.68-166.721-7.997-35.2-27.52-66.56-42.557-86.717-13.44-17.92-33.28-30.403-55.68-34.243-36.803-6.717-107.203-17.597-167.040-13.44-71.363 4.803-111.043 30.080-126.080 41.923-36.48 12.16-82.56 21.12-97.28 15.037-12.8-5.12-25.6-15.36-37.76-25.6-18.88-15.677-38.72-31.677-64-32.957-9.92-0.64-36.8-0.64-68.16-0.64h0.32zM421.437 359.598h-64v-140.8h64v140.8zM716.8 416.282h-64v127.358l-43.837 43.52 45.44 45.44 62.397-62.4v-153.918zM654.403 263.281l-45.44 45.44 43.837 43.52v127.359h64v-153.922l-62.397-62.397zM106.563 475.229l-22.4 59.84c2.88 0.96 73.92 27.84 137.6 45.76 69.12 19.84 92.48 10.56 134.080-10.24l4.8-2.56c30.080-15.040 33.92-14.72 99.2-7.68h3.2c66.877 7.36 115.517 20.8 115.84 20.8l16.957-61.76c-2.237-0.64-53.76-14.72-126.077-22.4h-3.2c-69.12-7.68-87.68-9.6-134.72 13.76l-4.8 2.56c-32.64 16.32-39.36 19.84-87.68 6.080-61.12-17.28-131.84-43.84-132.8-44.16zM284.797 297.917c-16.64 0-36.48 3.2-63.36 10.88-63.68 18.243-134.72 44.8-137.6 45.763l22.4 59.843c0 0 71.68-26.885 132.8-44.165 48.32-13.757 55.040-10.24 87.68 5.76l4.8 2.56c46.72 23.363 65.28 21.443 134.4 14.080h3.2c71.043-7.997 125.443-15.037 125.443-15.037l-8.643-63.36c0 0-53.437 7.357-123.52 14.72h-3.2c-65.28 7.357-69.12 7.68-99.2-7.363l-4.8-2.237c-25.6-12.8-44.16-21.12-70.72-21.12l0.32-0.323zM595.84 650.6h-64v-130.56h64v130.56zM595.84 377.6h-64v-132.48h64v132.48z" />
<glyph unicode="&#xe934;" glyph-name="instagram-1" horiz-adv-x="983" d="M688.296 604.606c24.433 0 44.237 19.805 44.237 44.237s-19.804 44.237-44.237 44.237c-24.429 0-44.237-19.805-44.237-44.237s19.808-44.237 44.237-44.237zM491.524 641.4c-37.442 0-74.043-11.103-105.172-31.903-31.131-20.801-55.394-50.366-69.722-84.955-14.328-34.591-18.076-72.655-10.772-109.375s25.334-70.451 51.808-96.928c26.474-26.472 60.204-44.503 96.925-51.806s74.785-3.555 109.375 10.772c34.591 14.328 64.156 38.593 84.955 69.722 20.804 31.13 31.904 67.731 31.904 105.169 0 50.209-19.943 98.357-55.443 133.859-35.504 35.501-83.653 55.446-133.857 55.446zM491.524 329.216c-24.306 0-48.062 7.209-68.268 20.709-20.209 13.505-35.959 32.694-45.26 55.149s-11.734 47.161-6.993 70.996c4.742 23.835 16.445 45.732 33.63 62.919 17.185 17.183 39.082 28.886 62.917 33.628s48.542 2.308 70.996-6.993c22.454-9.3 41.644-25.050 55.149-45.26 13.5-20.206 20.709-43.962 20.709-68.268 0-32.588-12.947-63.844-35.992-86.888s-54.301-35.992-86.888-35.992zM491.52 754.297c98.431 0 110.092-0.375 148.963-2.15 23.376-0.278 46.531-4.572 68.452-12.694 15.897-6.134 30.335-15.528 42.385-27.577 12.046-12.049 21.443-26.487 27.574-42.385 8.122-21.922 12.415-45.077 12.694-68.454 1.774-38.87 2.15-50.531 2.15-148.963 0-98.427-0.373-110.088-2.15-148.959-0.279-23.376-4.571-46.531-12.694-68.452-6.132-15.901-15.528-30.335-27.574-42.385-12.050-12.050-26.489-21.443-42.385-27.578-21.922-8.122-45.076-12.415-68.452-12.694-38.867-1.774-50.524-2.15-148.963-2.15s-110.094 0.377-148.961 2.15c-23.377 0.279-46.531 4.571-68.454 12.694-15.897 6.136-30.335 15.528-42.384 27.578s-21.443 26.485-27.578 42.385c-8.122 21.922-12.415 45.076-12.693 68.452-1.773 38.871-2.151 50.532-2.151 148.959 0 98.431 0.375 110.093 2.151 148.963 0.278 23.377 4.572 46.531 12.693 68.454 6.134 15.898 15.528 30.337 27.577 42.386s26.487 21.444 42.385 27.578c21.922 8.122 45.077 12.415 68.454 12.694 38.87 1.773 50.532 2.148 148.961 2.148zM491.52 820.72c-100.116 0-112.672-0.424-151.99-2.218-30.577-0.614-60.829-6.408-89.469-17.136-24.492-9.472-46.735-23.955-65.303-42.524s-33.052-40.811-42.524-65.303c-10.729-28.645-16.524-58.902-17.136-89.484-1.794-39.303-2.218-51.858-2.218-151.975 0-100.114 0.424-112.673 2.218-151.99 0.612-30.581 6.407-60.838 17.136-89.485 9.472-24.49 23.955-46.735 42.524-65.303s40.811-33.051 65.303-42.525c28.645-10.727 58.902-16.523 89.484-17.134 39.303-1.778 51.858-2.204 151.975-2.204 100.119 0 112.673 0.426 151.99 2.22 30.581 0.61 60.838 6.406 89.485 17.134 24.49 9.47 46.735 23.958 65.303 42.525s33.051 40.813 42.525 65.303c10.727 28.643 16.523 58.9 17.134 89.485 1.782 39.301 2.204 51.859 2.204 151.974 0 100.117-0.426 112.672-2.216 151.991-0.614 30.577-6.41 60.829-17.138 89.469-9.474 24.489-23.958 46.729-42.525 65.295-18.571 18.566-40.813 33.047-65.303 42.517-28.643 10.729-58.9 16.523-89.485 17.136-39.301 1.81-51.855 2.234-151.974 2.234z" />
<glyph unicode="&#xe935;" glyph-name="twitter-1" horiz-adv-x="983" d="M354.739 152.482c278.22 0 430.395 230.506 430.395 430.394 0 6.546 0 13.065-0.442 19.553 29.602 21.412 55.157 47.926 75.465 78.299-27.607-12.233-56.893-20.257-86.88-23.799 31.576 18.905 55.21 48.639 66.503 83.666-29.696-17.621-62.177-30.038-96.055-36.717-57.287 60.915-153.108 63.855-214.020 6.568-39.285-36.944-55.955-91.997-43.762-144.528-121.624 6.098-234.944 63.544-311.754 158.042-40.148-69.117-19.642-157.538 46.833-201.925-24.072 0.713-47.619 7.205-68.656 18.932v-1.917c0.018-72.004 50.777-134.025 121.356-148.283-22.269-6.070-45.634-6.959-68.303-2.593 19.818-61.62 76.607-103.834 141.321-105.050-53.563-42.095-119.731-64.946-187.859-64.881-12.036 0.025-24.060 0.754-36.010 2.183 69.175-44.392 149.665-67.94 231.859-67.83z" />
<glyph unicode="&#xe936;" glyph-name="youtube-1" horiz-adv-x="983" d="M903.479 659.117c-4.895 18.185-14.479 34.765-27.8 48.082-13.316 13.317-29.897 22.902-48.079 27.797-66.97 18.125-336.077 18.125-336.077 18.125s-269.108 0-336.078-18.125c-18.185-4.895-34.766-14.48-48.082-27.797s-22.902-29.897-27.796-48.082c-12.505-68.299-18.573-137.618-18.125-207.054-0.448-69.431 5.62-138.752 18.125-207.053 4.895-18.186 14.48-34.763 27.796-48.083 13.317-13.316 29.897-22.901 48.082-27.795 66.97-18.125 336.078-18.125 336.078-18.125s269.107 0 336.077 18.125c18.182 4.895 34.763 14.479 48.079 27.795 13.32 13.32 22.905 29.897 27.8 48.083 12.505 68.301 18.571 137.622 18.125 207.053 0.446 69.435-5.62 138.755-18.125 207.054zM405.507 323.039v258.049l223.335-129.025-223.335-129.024z" />
<glyph unicode="&#xe937;" d="M512 896c-88.606 0-175.222-26.275-248.895-75.502s-131.095-119.195-165.002-201.056c-33.908-81.861-42.78-171.939-25.494-258.841 17.286-86.907 59.954-166.733 122.608-229.386s142.48-105.318 229.383-122.609c86.904-17.285 176.98-8.412 258.844 25.498 81.859 33.905 151.828 91.325 201.057 165.002 49.224 73.672 75.5 160.287 75.5 248.893 0 118.817-47.201 232.767-131.215 316.784-84.019 84.017-197.97 131.216-316.785 131.216zM512 64c-75.948 0-150.19 22.523-213.339 64.717s-112.367 102.164-141.431 172.334c-29.064 70.164-36.668 147.375-21.852 221.864s51.389 142.911 105.093 196.614c53.704 53.703 122.126 90.276 196.615 105.093s151.699 7.212 221.863-21.852c70.17-29.064 130.14-78.282 172.334-141.431s64.717-137.391 64.717-213.339c0-101.842-40.458-199.516-112.471-271.529s-169.687-112.471-271.529-112.471z" />
<glyph unicode="&#xe938;" d="M512 160c26.511 0 48 21.489 48 48s-21.489 48-48 48c-26.51 0-48-21.489-48-48s21.49-48 48-48z" />
<glyph unicode="&#xe939;" d="M365.12 109.117l-114.56 114.883h645.44v64h-645.44l114.56 114.883-45.12 45.117-192-192 192-192 45.12 45.117z" />
<glyph unicode="&#xe93a;" d="M896 640l-192 192-45.123-45.12 114.56-114.88h-645.437v-64h645.437l-114.56-114.88 45.123-45.12 192 192z" />
<glyph unicode="&#xe93b;" d="M544 703.999h-47.999c-18.922 0.042-37.666-3.654-55.156-10.875s-33.381-17.827-46.761-31.207c-13.38-13.38-23.985-29.272-31.207-46.761s-10.918-36.234-10.875-55.156v-16h64v16c0 21.217 8.429 41.566 23.431 56.569s35.352 23.431 56.569 23.431h47.999c21.217 0 41.564-8.429 56.571-23.431 15.002-15.003 23.429-35.352 23.429-56.569s-8.428-41.566-23.429-56.568c-15.007-15.003-35.354-23.432-56.571-23.432h-63.999v-143.999h63.999v80c38.19 0 74.819 15.171 101.821 42.177 27.008 27.005 42.179 63.632 42.179 101.823s-15.171 74.818-42.179 101.823c-27.003 27.005-63.631 42.177-101.821 42.177z" />
<glyph unicode="&#xe93c;" d="M960 45.123l-150.083 150.077c87.040 112 66.883 273.281-45.117 360.321s-273.281 66.88-360.321-45.12c-87.040-111.998-66.88-273.278 45.12-360.318 92.798-72.003 222.401-72.003 315.201 0l150.077-150.083 45.123 45.123zM608 160c-105.921 0-192.001 86.083-192.001 192 0 105.921 86.080 192.001 192.001 192.001 105.917 0 192-86.080 192-192.001 0-105.917-86.083-192-192-192z" />
<glyph unicode="&#xe93d;" glyph-name="rider-view-trim-fourtrax" d="M791.040 794c-22.083 0-42.88-9.6-57.6-25.92l-69.12-79.040c-2.56-2.88-5.76-4.16-9.283-4.16h-285.76c-3.52 0-7.040 1.6-9.28 4.16l-69.12 79.040c-14.4 16.64-35.52 25.92-57.6 25.92h-178.24v-64h177.92c3.52 0 7.040-1.6 9.28-4.16l69.12-79.040c14.4-16.64 35.52-25.92 57.6-25.92h285.763c22.077 0 42.88 9.6 57.6 25.92l69.12 79.040c2.237 2.56 5.76 4.16 9.277 4.16h177.92v64h-177.597zM448.312 678.4h-64v-146.56h64v146.56zM639.677 680.8h-64v-146.561h64v146.561zM512 371.2c-30.72 0-56 25.277-56 56.003 0 30.717 25.28 55.997 56 55.997s56.003-25.28 56.003-55.997c0-30.725-25.283-56.003-56.003-56.003zM512 435.2c-4.48 0-8-3.523-8-7.997 0-8.96 15.997-8.96 15.997 0 0 4.475-3.517 7.997-7.997 7.997zM336.955 72.96l-62.080 16 47.040 183.040c7.36 28.8 8.32 59.843 2.56 88.96l-20.48 106.56c-4.8 24.64 1.6 49.6 17.6 68.8s39.36 30.080 64.32 30.080h127.043v-64h-127.043c-8 0-12.8-4.48-14.72-7.040s-5.44-8-4.16-16l20.48-106.563c7.36-38.4 6.080-78.715-3.52-116.797l-47.040-183.040zM688.312 72.96l-47.037 183.040c-9.6 38.083-10.88 78.397-3.523 116.797l20.48 106.563c1.603 7.68-1.92 13.44-4.157 16-2.243 2.56-7.040 7.040-14.72 7.040h-127.043v64h127.043c24.96 0 48.317-10.88 64.317-30.080s22.4-44.16 17.603-68.8l-20.48-106.56c-5.76-29.117-4.803-60.16 2.56-88.96l47.037-183.040-62.080-16zM119.037 71.281h-64v419.519c0 105.92 86.080 192 192.32 192h136.64v-64h-136.64c-70.72 0-128.32-57.6-128.32-128v-419.519zM335.032 422.6h-237.12v-64h237.12v64zM968.32 71.281h-64v419.519c0 70.72-57.277 128-128 128h-136.96v64h136.96c105.923 0 192-86.080 192-192v-419.519zM925.44 422.6h-237.44v-64h237.44v64z" />
<glyph unicode="&#xe93e;" d="M320 576h-256v-64h256v64z" />
<glyph unicode="&#xe93f;" d="M576 896h-512v-64h512v64z" />
<glyph unicode="&#xe940;" d="M576 736h-512v-64h512v64z" />
<glyph unicode="&#xe941;" d="M832 192v-128h-640v128h-64v-128c0-16.973 6.743-33.254 18.745-45.256s28.281-18.744 45.255-18.744h640c16.973 0 33.254 6.743 45.256 18.744s18.744 28.283 18.744 45.256v128h-64z" />
<glyph unicode="&#xe942;" d="M832 512l-45.123 45.12-242.877-242.557v581.437h-64v-581.437l-242.88 242.557-45.12-45.12 320-320 320 320z" />
<glyph unicode="&#xe943;" d="M320 512c-25.316 0-50.063 7.507-71.113 21.572s-37.456 34.056-47.144 57.445c-9.688 23.389-12.223 49.125-7.284 73.955s17.129 47.637 35.031 65.539c17.902 17.901 40.709 30.092 65.539 35.031s50.566 2.404 73.955-7.284c23.389-9.688 43.38-26.094 57.445-47.144s21.572-45.797 21.572-71.113c-0.038-33.936-13.536-66.471-37.532-90.468s-56.532-37.494-90.468-37.532zM320 704c-12.655 0.013-25.029-3.727-35.559-10.745s-18.743-17.001-23.601-28.686c-4.858-11.685-6.143-24.548-3.692-36.963s8.527-23.825 17.461-32.787c8.934-8.963 20.324-15.075 32.732-17.566s25.274-1.247 36.975 3.573c11.701 4.82 21.71 13.002 28.762 23.51s10.831 22.87 10.858 35.525c0.020 16.982-6.703 33.277-18.692 45.304s-28.262 18.803-45.244 18.836z" />
<glyph unicode="&#xe944;" d="M532.598 18.734l-449.852 449.89c-12.001 12.001-18.744 28.279-18.745 45.252v318.125c0 16.974 6.743 33.252 18.745 45.255s28.281 18.745 45.255 18.745h318.121c16.974 0 33.252-6.743 45.255-18.745l449.885-449.852c12.001-12.001 18.739-28.278 18.739-45.256 0-16.973-6.738-33.249-18.739-45.256l-318.157-318.157c-12.006-11.996-28.283-18.739-45.256-18.739s-33.249 6.743-45.251 18.739zM128 832v-318.134l449.848-449.866 318.152 318.147-449.869 449.853h-318.131z" />
<glyph unicode="&#xe945;" glyph-name="arrow-right-animation" d="M576 768l-45.763-44.576 242.565-243.424h-644.803v-64h644.803l-242.565-242.335 45.763-45.665 320 320-320 320z" />
<glyph unicode="&#xe946;" glyph-name="setting-animation" d="M387.196 895.998c-61.369 0.209-121.45-17.593-172.8-51.2l204.8-204.8c6.821-5.819 12.408-12.945 16.433-20.957s6.405-16.748 7.002-25.694c0.596-8.946-0.604-17.921-3.529-26.396s-7.517-16.28-13.505-22.953c-6.673-5.987-14.477-10.579-22.952-13.505s-17.45-4.125-26.396-3.529c-8.946 0.596-17.682 2.977-25.694 7.002s-15.138 9.612-20.957 16.432l-211.2 204.8c-36.515-53.732-55.517-117.444-54.4-182.4 0.337-85.614 34.497-167.627 95.035-228.166s142.551-94.7 228.165-95.032c28.018-0.154 55.953 3.067 83.2 9.6l214.398-214.4c30.131-30.131 70.994-47.058 113.603-47.058s83.471 16.927 113.597 47.058c30.131 30.126 47.058 70.989 47.058 113.597s-16.927 83.471-47.058 113.603l-214.4 214.398c6.533 27.247 9.754 55.182 9.6 83.2 0.855 42.558-6.794 84.859-22.497 124.425-15.698 39.566-39.132 75.602-68.936 105.998-29.798 30.396-65.362 54.541-104.61 71.021-39.247 16.48-81.388 24.965-123.955 24.956zM643.195 572.798c-0.046-22.738-3.277-45.358-9.6-67.2l-9.6-35.2 240-239.998c9.134-8.648 16.399-19.067 21.35-30.623s7.491-24.008 7.45-36.577c0.364-12.621-2.028-25.17-6.999-36.772-4.977-11.602-12.411-21.985-21.801-30.428-8.668-9.103-19.092-16.348-30.643-21.299s-23.987-7.501-36.557-7.501c-12.564 0-25.001 2.55-36.552 7.501-11.556 4.951-21.98 12.196-30.648 21.299l-239.998 240-35.2-9.6c-21.842-6.323-44.462-9.554-67.2-9.6-67.998 0.189-133.314 26.542-182.4 73.6-24.824 23.357-44.482 51.656-57.71 83.068-13.227 31.415-19.73 65.251-19.090 99.33 0.045 23.79 3.273 47.467 9.6 70.4l140.8-140.8c11.898-12.946 26.253-23.395 42.23-30.737s33.256-11.43 50.829-12.025c17.573-0.595 35.089 2.313 51.526 8.556s31.468 15.695 44.215 27.807c12.111 12.747 21.564 27.778 27.807 44.215s9.151 33.953 8.556 51.527c-0.596 17.573-4.684 34.852-12.025 50.829s-17.791 30.332-30.738 42.23l-140.8 140.8c20.696 6.545 42.295 9.785 64 9.6 67.998-0.188 133.313-26.544 182.398-73.6 49.132-50.582 76.672-118.284 76.8-188.8z" />
<glyph unicode="&#xe947;" glyph-name="enviroment" d="M608 512c53.12 0 96 42.88 96 96s-42.88 96-96 96c-53.12 0-96-42.88-96-96s42.88-96 96-96zM608 640c17.603 0 32-14.4 32-32s-14.397-32-32-32c-17.603 0-32 14.4-32 32s14.397 32 32 32zM832 832h-640c-35.2 0-64-28.8-64-64v-640c0-35.2 28.8-64 64-64h640c35.2 0 64 28.8 64 64v640c0 35.2-28.8 64-64 64zM832 128h-640v192l160 160 178.883-178.877c24.955-24.96 65.28-24.96 90.24 0l50.877 50.877 160-160v-64zM832 282.563l-114.877 114.877c-24.96 24.96-65.285 24.96-90.245 0l-50.877-50.877-178.88 178.877c-24.96 24.96-65.28 24.96-90.24 0l-114.88-114.877v357.437h640v-485.437z" />
<glyph unicode="&#xe948;" glyph-name="save" d="M886.717 662.719l-160 160c-2.99 2.966-6.533 5.312-10.435 6.905-3.896 1.592-8.069 2.4-12.283 2.375h-512c-16.974 0-33.252-6.743-45.255-18.745s-18.745-28.281-18.745-45.255v-639.999c0-16.973 6.743-33.254 18.745-45.256s28.281-18.744 45.255-18.744h640c16.973 0 33.254 6.743 45.256 18.744s18.744 28.283 18.744 45.256v511.999c0.026 4.211-0.783 8.386-2.376 12.285s-3.937 7.445-6.907 10.435zM384 767.999h256v-128h-256v128zM640 128h-256v256h256v-256zM704 128v256c0 16.973-6.743 33.254-18.744 45.256s-28.283 18.744-45.256 18.744h-256c-16.974 0-33.252-6.743-45.255-18.744s-18.745-28.283-18.745-45.256v-256h-128v639.999h128v-128c0-16.974 6.743-33.252 18.745-45.255s28.281-18.745 45.255-18.745h256c16.973 0 33.254 6.743 45.256 18.745s18.744 28.281 18.744 45.255v114.88l128-128v-498.879h-128z" />
<glyph unicode="&#xe949;" glyph-name="change-model" d="M576 64c75.95 0 150.19 22.523 213.34 64.717 63.145 42.194 112.364 102.164 141.43 172.334 29.066 70.164 36.669 147.375 21.852 221.863s-51.389 142.911-105.093 196.615c-53.704 53.703-122.127 90.276-196.613 105.093-74.491 14.817-151.699 7.212-221.866-21.852s-130.139-78.282-172.334-141.431c-42.194-63.149-64.716-137.391-64.716-213.339v-198.4l-115.2 115.2-44.8-44.8 192-192 192 192-44.8 44.8-115.2-115.2v198.4c0 63.29 18.768 125.158 53.929 177.782s85.139 93.639 143.612 117.859c58.474 24.22 122.812 30.557 184.887 18.21s119.091-42.824 163.845-87.577c44.754-44.752 75.233-101.771 87.578-163.845 12.349-62.074 6.011-126.413-18.212-184.889-24.218-58.47-65.234-108.447-117.857-143.611-52.623-35.159-114.493-53.929-177.782-53.929v-64z" />
<glyph unicode="&#xe94a;" glyph-name="print-summary" d="M896 672h-96v192h-576v-192h-96c-16.974 0-33.252-6.743-45.255-18.745s-18.745-28.281-18.745-45.255v-320c0-16.973 6.743-33.254 18.745-45.256s28.281-18.744 45.255-18.744h96v-192h576v192h96c16.973 0 33.254 6.743 45.256 18.744s18.744 28.283 18.744 45.256v320c0 16.974-6.743 33.252-18.744 45.255s-28.283 18.745-45.256 18.745zM288 800h448v-128h-448v128zM736 96h-448v320h448v-320zM896 288h-96v192h-576v-192h-96v320h768v-320z" />
<glyph unicode="&#xe94b;" glyph-name="screenshot" d="M928 128h-832c-8.487 0-16.626 3.369-22.627 9.375-6.001 6.001-9.373 14.136-9.373 22.625v544c0 8.487 3.372 16.626 9.373 22.627s14.14 9.373 22.627 9.373h206.72l54.72 81.6c2.899 4.402 6.84 8.019 11.473 10.532s9.816 3.841 15.087 3.868h256c5.268-0.027 10.455-1.356 15.089-3.868s8.571-6.13 11.474-10.532l54.717-81.6h206.72c8.489 0 16.625-3.372 22.625-9.373 6.006-6.001 9.375-14.14 9.375-22.627v-544c0-8.489-3.369-16.625-9.375-22.625-6.001-6.006-14.136-9.375-22.625-9.375zM128 192h768v480h-192c-5.268 0.027-10.455 1.356-15.089 3.868s-8.571 6.13-11.474 10.532l-54.717 81.6h-221.44l-54.72-81.6c-2.899-4.402-6.84-8.020-11.473-10.532s-9.816-3.841-15.087-3.868h-192v-480zM512 256c-37.974 0-75.095 11.259-106.67 32.358-31.574 21.094-56.183 51.082-70.715 86.164-14.532 35.087-18.334 73.69-10.926 110.935s25.694 71.455 52.546 98.307c26.852 26.852 61.063 45.138 98.307 52.546s75.847 3.607 110.935-10.926c35.082-14.532 65.070-39.141 86.164-70.715 21.1-31.575 32.358-68.696 32.358-106.67 0-50.924-20.229-99.758-56.233-135.767-36.009-36.004-84.844-56.233-135.767-56.233zM512 576c-25.316 0-50.063-7.507-71.113-21.572s-37.456-34.056-47.144-57.444c-9.688-23.389-12.222-49.127-7.284-73.954 4.939-24.832 17.129-47.636 35.031-65.541 17.902-17.9 40.709-30.090 65.539-35.031 24.829-4.936 50.566-2.401 73.954 7.286s43.382 26.097 57.446 47.145c14.065 21.048 21.571 45.793 21.571 71.112 0 33.948-13.486 66.505-37.489 90.51-24.008 24.005-56.566 37.49-90.511 37.49z" />
<glyph unicode="&#xe94c;" glyph-name="share" d="M736.005 319.995c-23.956-0.123-47.575-5.617-69.12-16.087-21.545-10.465-40.463-25.641-55.363-44.396l-233.92 146.243c8.525 27.515 8.525 56.964 0 84.478l233.92 146.24c23.741-29.399 57.124-49.445 94.234-56.589 37.105-7.143 75.546-0.923 108.503 17.561 32.963 18.483 58.317 48.036 71.572 83.423s13.558 74.324 0.855 109.914c-12.698 35.59-37.591 65.535-70.257 84.531s-71.004 25.817-108.216 19.254c-37.217-6.563-70.907-26.085-95.104-55.11-24.202-29.024-37.345-65.677-37.105-103.465 0.148-14.309 2.304-28.528 6.4-42.24l-233.923-146.24c-20.651 25.997-48.879 44.926-80.77 54.163s-65.865 8.324-97.214-2.612c-31.349-10.936-58.519-31.353-77.745-58.422s-29.554-59.448-29.554-92.648c-0.001-33.203 10.329-65.582 29.554-92.652s46.396-47.488 77.745-58.419c31.349-10.936 65.324-11.853 97.214-2.616 31.891 9.242 60.119 28.17 80.77 54.164l233.923-146.237c-4.096-13.711-6.252-27.93-6.4-42.24 0-31.647 9.38-62.582 26.962-88.893s42.568-46.817 71.808-58.931c29.235-12.109 61.404-15.278 92.442-9.103s59.546 21.412 81.925 43.791c22.374 22.374 37.612 50.883 43.786 81.92s3.005 63.206-9.103 92.447c-12.109 29.235-32.62 54.221-58.931 71.803s-57.247 26.967-88.888 26.967zM736.005 831.993c18.985 0 37.545-5.63 53.33-16.179 15.79-10.549 28.093-25.542 35.359-43.084s9.17-36.844 5.463-55.466c-3.702-18.622-12.846-35.728-26.271-49.154s-30.531-22.569-49.157-26.273c-18.621-3.704-37.924-1.803-55.465 5.463s-32.532 19.571-43.085 35.358c-10.547 15.787-16.174 34.348-16.174 53.335 0 25.461 10.112 49.879 28.114 67.882 18.007 18.003 42.424 28.118 67.886 28.118zM224.003 351.995c-18.987 0-37.548 5.627-53.335 16.179-15.787 10.547-28.092 25.539-35.358 43.080-7.266 17.546-9.167 36.846-5.463 55.469s12.848 35.727 26.273 49.154c13.426 13.426 30.532 22.569 49.154 26.273s37.924 1.803 55.466-5.463c17.542-7.266 32.535-19.571 43.083-35.358s16.179-34.348 16.179-53.334c0-25.462-10.114-49.879-28.118-67.886-18.003-18.002-42.422-28.114-67.882-28.114zM736.005 63.995c-18.99 0-37.55 5.627-53.335 16.179-15.79 10.547-28.093 25.539-35.359 43.080-7.265 17.546-9.17 36.849-5.463 55.47 3.702 18.621 12.846 35.727 26.271 49.152 13.43 13.425 30.531 22.569 49.157 26.271 18.621 3.707 37.924 1.807 55.465-5.463 17.541-7.265 32.532-19.569 43.085-35.354 10.547-15.79 16.179-34.35 16.179-53.335 0-25.462-10.117-49.879-28.119-67.886-18.007-18.002-42.424-28.114-67.881-28.114z" />
<glyph unicode="&#xe94d;" glyph-name="menu1" d="M512 640c35.347 0 64 28.654 64 64s-28.653 64-64 64c-35.347 0-64-28.654-64-64s28.653-64 64-64zM512 384c35.347 0 64 28.653 64 64s-28.653 64-64 64c-35.347 0-64-28.653-64-64s28.653-64 64-64zM512 128c35.347 0 64 28.653 64 64s-28.653 64-64 64c-35.347 0-64-28.653-64-64s28.653-64 64-64z" />
<glyph unicode="&#xe94e;" glyph-name="refresh" d="M384 630.857h-167.040c41.387 63.605 102.221 112.133 173.434 138.35s148.993 28.717 221.743 7.129c72.75-21.587 136.576-66.107 181.96-126.923 45.389-60.816 69.908-134.671 69.903-210.556h64c0.087 85.584-26.225 169.113-75.346 239.196s-118.666 123.311-199.142 152.424c-80.481 29.113-167.984 32.695-250.575 10.257s-156.251-69.803-210.937-135.637v117.76h-64v-256h256v64zM640 246.857h167.040c-41.385-63.606-102.221-112.133-173.435-138.348-71.214-26.22-148.99-28.718-221.741-7.132s-136.575 66.109-181.963 126.925c-45.388 60.815-69.906 134.671-69.902 210.555h-64c-0.088-85.586 26.223-169.114 75.345-239.196s118.665-123.31 199.145-152.422c80.481-29.112 167.98-32.696 250.571-10.26 82.591 22.441 156.252 69.806 210.939 135.639v-117.76h64v256h-256v-64z" />
<glyph unicode="&#xe94f;" glyph-name="threads-app" d="M754.864 476.253c-4.409 2.114-8.892 4.149-13.431 6.097-7.902 145.637-87.484 229.014-221.103 229.868-0.605 0.003-1.208 0.003-1.813 0.003-79.923 0-146.394-34.115-187.307-96.194l73.488-50.412c30.564 46.371 78.529 56.256 113.854 56.256 0.408 0 0.817 0 1.221-0.004 43.997-0.28 77.195-13.072 98.682-38.018 15.639-18.162 26.101-43.259 31.278-74.932-39.009 6.63-81.195 8.668-126.294 6.083-127.041-7.318-208.714-81.411-203.229-184.368 2.784-52.224 28.801-97.149 73.256-126.498 37.586-24.815 85.994-36.944 136.305-34.202 66.441 3.647 118.562 28.996 154.926 75.344 27.62 35.203 45.084 80.816 52.793 138.296 31.664-19.108 55.131-44.259 68.096-74.484 22.033-51.388 23.319-135.828-45.579-204.675-60.37-60.308-132.938-86.397-242.602-87.205-121.65 0.905-213.652 39.913-273.469 115.957-56.014 71.208-84.962 174.057-86.042 305.692 1.080 131.639 30.028 234.487 86.042 305.692 59.817 76.042 151.818 115.054 273.467 115.958 122.534-0.911 216.139-40.112 278.244-116.52 30.453-37.47 53.413-84.592 68.551-139.533l86.118 22.976c-18.347 67.627-47.218 125.901-86.505 174.231-79.622 97.959-196.068 148.154-346.108 149.195h-0.601c-149.735-1.037-264.879-51.423-342.233-149.756-68.834-87.505-104.34-209.261-105.533-361.884l-0.004-0.36 0.004-0.36c1.193-152.62 36.7-274.379 105.533-361.886 77.354-98.332 192.498-148.719 342.233-149.754h0.601c133.122 0.922 226.954 35.777 304.261 113.010 101.131 101.040 98.088 227.686 64.757 305.436-23.916 55.756-69.513 101.041-131.857 130.95zM525.016 260.152c-55.68-3.135-113.526 21.857-116.378 75.389-2.114 39.691 28.246 83.977 119.795 89.253 10.485 0.605 20.772 0.901 30.879 0.901 33.254 0 64.361-3.231 92.646-9.413-10.553-131.747-72.425-153.137-126.942-156.129z" />
<glyph unicode="&#xe950;" glyph-name="email" d="M896 768h-768c-16.974 0-33.252-6.743-45.255-18.745s-18.745-28.281-18.745-45.255v-512c0-16.973 6.743-33.251 18.745-45.254s28.281-18.746 45.255-18.746h768c16.973 0 33.251 6.742 45.254 18.746s18.746 28.282 18.746 45.254v512c0 16.974-6.742 33.252-18.746 45.255s-28.282 18.745-45.254 18.745zM825.6 704l-313.6-216.96-313.6 216.96h627.2zM128 192v482.88l365.76-253.12c5.357-3.715 11.722-5.709 18.24-5.709s12.883 1.994 18.24 5.709l365.76 253.12v-482.88h-768z" />
<glyph unicode="&#xe951;" glyph-name="calendar-dropdown" d="M832 288h-96v96h-64v-96h-96v-64h96v-96h64v96h96v64zM704 0c-140.8 0-256 115.2-256 256s115.2 256 256 256c140.8 0 256-115.2 256-256s-115.2-256-256-256zM704 448c-105.6 0-192-86.4-192-192s86.4-192 192-192c105.6 0 192 86.4 192 192s-86.4 192-192 192zM896 768c0 35.2-28.8 64-64 64h-128v64h-64v-64h-256v64h-64v-64h-128c-35.2 0-64-28.8-64-64v-640c0-35.2 28.8-64 64-64h192v64h-192v640h128v-64h64v64h256v-64h64v64h128v-192h64v192z" />
<glyph unicode="&#xe952;" glyph-name="info" d="M544 256v256h-128v-64h64v-192h-96v-64h256v64h-96zM512 704c-9.494 0-18.774-2.815-26.668-8.090s-14.046-12.771-17.679-21.541c-3.633-8.771-4.583-18.422-2.732-27.734s6.424-17.864 13.137-24.577c6.713-6.713 15.266-11.284 24.577-13.137s18.964-0.901 27.735 2.732c8.771 3.633 16.266 9.785 21.54 17.679s8.090 17.174 8.090 26.668c0 12.73-5.059 24.94-14.060 33.941s-21.212 14.059-33.94 14.059zM512 0c-88.606 0-175.222 26.276-248.895 75.5-73.673 49.229-131.095 119.199-165.002 201.057-33.908 81.864-42.78 171.94-25.494 258.844s59.954 166.729 122.608 229.383c62.654 62.654 142.48 105.322 229.383 122.608s176.98 8.414 258.844-25.494c81.859-33.908 151.828-91.329 201.057-165.002 49.224-73.673 75.5-160.29 75.5-248.895 0-118.815-47.201-232.765-131.215-316.785-84.019-84.014-197.97-131.215-316.785-131.215zM512 832c-75.948 0-150.19-22.521-213.339-64.716s-112.367-102.167-141.431-172.334c-29.064-70.167-36.668-147.375-21.852-221.866 14.817-74.486 51.389-142.909 105.093-196.613s122.126-90.276 196.615-105.093c74.488-14.817 151.699-7.214 221.863 21.852 70.17 29.066 130.14 78.285 172.334 141.43 42.194 63.15 64.717 137.39 64.717 213.34 0 101.843-40.458 199.515-112.471 271.529s-169.687 112.471-271.529 112.471z" />
<glyph unicode="&#xe953;" glyph-name="icon-minus" d="M160 470.857v-64h704v64h-704z" />
<glyph unicode="&#xe954;" glyph-name="icon-atv" horiz-adv-x="1075" d="M167.104 423.185c-23.68-15.677-41.92-38.077-52.8-64.317s-13.76-54.723-8-82.883c5.44-27.837 19.2-53.12 39.040-73.277 20.16-20.163 45.44-33.603 73.28-39.363 9.28-1.92 18.56-2.877 27.84-2.877 18.56 0 37.12 3.84 54.72 10.88 26.24 10.88 48.32 29.117 64.32 52.797 15.68 23.68 24 51.2 24 79.36 0 38.083-15.040 74.24-41.92 101.12-47.040 47.042-125.44 54.722-180.8 17.92l0.32 0.64zM312.384 260.307c-8.64-13.123-21.12-23.040-35.52-29.123-14.4-6.077-30.4-7.68-45.76-4.48s-29.44 10.563-40.64 21.76c-11.2 11.203-18.56 24.96-21.76 40.32-2.88 15.36-1.6 31.36 4.48 45.763 6.080 14.397 16 26.88 29.12 35.517 13.12 8.643 28.16 13.44 43.84 13.44 21.12 0 40.96-8.32 56-23.040 15.040-15.037 23.040-34.877 23.040-55.997 0-15.683-4.48-31.043-13.44-43.843l0.64-0.317zM723.502 423.226c-23.68-15.677-41.917-38.077-52.797-64.317s-13.763-54.723-8.003-82.56c5.443-27.843 19.2-53.12 39.040-73.283 19.84-20.157 45.44-33.597 73.283-39.040 9.277-1.92 18.56-2.877 27.837-2.877 18.56 0 37.12 3.84 54.723 10.88 26.24 10.88 48.317 29.117 64.317 52.797s24.003 51.2 24.003 79.683c0 38.077-15.043 74.24-41.923 101.12-47.037 47.038-125.44 54.718-180.797 17.92l0.317-0.323zM868.782 260.348c-8.637-13.123-21.12-23.040-35.517-29.123-14.403-6.077-30.403-7.357-45.763-4.48-15.36 3.2-29.44 10.563-40.637 21.76-11.203 11.203-18.56 24.96-21.76 40.32s-1.603 31.36 4.48 45.763c6.077 14.397 16 26.88 29.117 35.517 13.123 8.643 28.16 13.44 43.843 13.44 21.12 0 40.96-8.32 55.997-23.040 15.043-15.037 23.040-34.877 23.040-55.997 0-15.683-4.48-31.043-13.44-43.843l0.64-0.317zM933.202 584.417l-161.603 9.92-36.797 84.16c-4.48 11.2-11.843 20.8-22.083 27.52-9.917 6.72-21.437 10.24-33.28 10.24h-52.157v-64h48.957l17.28-39.36-153.277 17.92-61.122-74.56-154.24 23.040-0.96 0.64-193.28 1.92-39.040-75.2 56.96-29.44 21.12 40.32 129.6-1.28 80.96-74.24 35.2-136.638 219.522-0.64 34.237 165.118 92.16 60.8 128.64-8 35.523-85.761 59.197 24.321-50.877 122.88-0.64 0.32zM611.599 508.897l-28.8-139.841h-118.079l-27.84 107.521-27.84 25.6 96.64-14.4 62.082 75.52 107.52-12.48-63.683-42.24v0.32z" />
<glyph unicode="&#xe955;" glyph-name="icon-motocycle" d="M958.73 439.457c-39.040 39.040-97.597 54.080-151.040 43.52-9.6 17.92-24.637 46.72-41.277 80.64h31.36v119.68h-64v-50.24l-40.643 93.44c-4.48 11.2-11.837 20.8-21.76 27.52-9.917 6.72-21.437 10.24-33.597 10.24h-51.84v-64h48.957l14.403-32.96c-62.72 1.92-132.48-35.2-165.121-88.32-36.16-58.88-69.76-51.2-94.4-45.76-0.96 0-1.92 0.32-2.56 0.64l-28.8 14.080c-2.88 1.28-73.92 34.24-173.76 26.88-57.92-4.16-107.2-27.52-109.12-28.48l-28.8-13.76 27.52-57.6 28.8 13.76c0 0 40.96 19.2 86.080 22.4 81.92 6.080 141.12-20.8 141.76-21.12l3.2-1.6c1.6-7.040 4.48-13.12 6.080-16.64 16-44.158 33.28-91.201 45.44-124.158h-21.76c-5.12 34.237-20.8 66.237-45.76 91.518-53.76 53.76-144.96 62.72-208 20.48-27.2-18.24-48.32-43.841-60.8-73.921s-15.68-63.037-9.28-95.36c6.4-32 22.080-61.44 45.12-84.48s52.16-38.717 84.48-45.117c10.56-2.243 21.44-3.2 32.32-3.2 21.44 0 42.88 4.157 63.040 12.477 30.080 12.483 55.68 33.603 73.92 60.8 10.88 16.323 18.24 33.92 22.72 52.803h48l213.758 2.237 94.72 231.681c11.843-24 22.723-44.48 30.72-59.52-25.917-17.92-46.397-42.881-58.557-72.321-12.483-30.397-15.683-63.037-9.283-95.36 6.4-32 22.083-61.44 45.123-84.48s52.48-38.717 84.48-45.117c10.557-2.243 21.437-3.2 32.317-3.2 21.443 0 42.88 4.157 63.043 12.477 30.080 12.483 55.68 33.603 73.917 60.8 18.243 27.203 27.843 58.88 27.843 91.52 0 44.16-17.28 85.443-48.323 116.48l-0.64 0.641zM285.452 266.979c-11.2-16.64-26.88-29.44-45.44-37.12s-38.72-9.6-58.24-5.76c-19.52 3.84-37.44 13.44-51.52 27.52s-23.68 32-27.52 51.517c-3.84 19.523-1.92 39.68 5.76 58.24s20.48 34.243 37.12 45.123c16.64 11.197 36.16 16.957 56 16.957 26.56 0 52.48-10.88 71.36-29.44 13.12-13.117 21.76-29.117 26.24-46.397l-121.92-0.64v-64l117.44 0.317c-2.56-5.76-5.12-11.52-8.96-16.957l-0.32 0.64zM580.173 349.856l-126.401-1.28c-9.28 25.6-25.92 70.723-43.2 117.761 35.84-1.28 85.76 10.24 128.318 80 20.803 33.92 71.68 60.48 111.043 57.92 15.037-0.96 23.997-5.76 29.44-10.88l-99.523-243.521h0.323zM926.413 266.979c-11.203-16.64-26.88-29.44-45.44-37.12s-38.723-9.6-58.24-5.76c-19.523 3.84-37.443 13.44-51.84 27.52-14.403 14.080-23.68 32-27.52 51.517-3.84 19.523-1.92 39.68 5.76 58.24s20.48 34.243 37.12 45.44c16.64 11.203 36.157 16.963 55.997 16.963 26.563 0 52.48-10.88 71.363-29.44 19.2-18.883 29.44-44.483 29.44-71.363 0-19.84-5.76-39.357-16.963-55.997h0.323z" />
<glyph unicode="&#xe956;" glyph-name="icon-sxs" d="M945.92 346.395c-28.8 28.8-70.723 40.643-110.403 34.883l-30.397 72.639 16.64 1.92 69.12-20.799 18.877-46.080 59.203 24.32-30.72 74.239-111.043 33.28h-1.597l-90.563 11.52-146.237 171.52-291.201 45.12v-31.040l-195.2-150.72c-15.36 0.96-27.84 1.28-34.24 1.6l-3.2-64 32.32-2.24 14.4-132.482c-5.12-2.56-9.92-4.797-14.72-7.997-21.12-14.080-37.12-33.92-47.040-57.283-9.6-23.357-12.16-48.957-7.36-73.6 4.8-24.96 16.96-47.36 34.88-65.28s40.32-30.080 65.28-34.877c8.32-1.603 16.64-2.56 24.96-2.56 16.64 0 33.28 3.2 48.64 9.6 23.36 9.6 43.2 25.917 57.28 47.037 9.6 14.403 16 30.72 19.2 47.683l134.080 19.517h284.478l-0.64 117.443 32.64 62.72 32.323-77.123c-16.963-13.44-30.403-30.72-38.723-50.877-9.6-23.363-12.16-48.963-7.357-73.6 4.797-24.96 16.957-47.36 34.877-65.28s40.32-30.080 65.28-34.883c8.32-1.597 16.64-2.56 24.96-2.56 16.64 0 33.28 3.2 48.64 9.6 23.363 9.6 43.203 25.923 57.283 47.043s21.437 45.44 21.437 70.717c0 33.92-13.117 65.92-37.437 90.24l1.28 0.64zM361.279 674.397l194.558-30.080 103.363-121.28h-289.281l-9.28 86.4 0.64 64.64v0.32zM388.799 311.517l-78.4-11.52 19.2 95.677c18.88-25.6 39.36-54.717 59.2-84.157zM302.399 552.797l-104 7.040 98.56 76.16v-29.76l5.44-53.76v0.32zM166.079 497.757c43.52-4.48 80.32-10.56 92.48-17.28 4.48-2.56 11.2-8.96 19.52-18.56l-22.72-112.962c-22.080 20.48-50.56 31.683-80 33.28l-12.48 115.842h3.52l-0.32-0.32zM221.119 220.637c-7.040-10.563-16.64-18.56-28.48-23.363-11.52-4.797-24.32-6.077-36.48-3.517-12.48 2.56-23.68 8.32-32.64 17.28s-15.040 20.157-17.28 32.64c-2.56 12.477-1.28 24.96 3.52 36.797 4.8 11.52 12.8 21.443 23.36 28.483s22.72 10.557 35.2 10.557c16.96 0 32.96-6.717 44.8-18.56 12.16-12.16 18.56-27.837 18.56-44.8 0-12.477-3.84-24.637-10.56-35.2v-0.317zM462.399 316.315c-22.72 34.56-62.4 93.763-100.16 142.722h323.518l-38.077-73.279v-68.803h-185.281v-0.64zM908.477 220.637c-7.040-10.563-16.64-18.56-28.477-23.363-11.52-4.797-24.003-6.077-36.48-3.517-12.483 2.56-23.68 8.32-32.64 17.28s-15.043 20.157-17.28 32.64c-2.56 12.477-1.28 24.96 3.517 36.797 4.803 11.843 12.8 21.443 23.363 28.483 10.557 7.040 22.717 10.557 35.2 10.557 16.957 0 32.957-6.717 44.8-18.56 11.837-11.837 18.56-27.837 18.56-44.8 0-12.477-3.84-24.637-10.563-35.2v-0.317z" />
<glyph unicode="&#xe957;" d="M1024 438.857c0-282.77-229.23-512-512-512s-512 229.23-512 512c0 282.77 229.23 512 512 512s512-229.23 512-512z" />
<glyph unicode="&#xe958;" d="M373.779 97.536c-33.254 22.972-65.688 45.376-99.153 68.494 52.242 81.682 104.089 162.738 157.308 245.949-87.645 18.456-173.881 36.616-261.268 55.017 9.956 40.388 19.658 79.744 29.514 119.731 88.142-27.375 175.282-54.437 264.685-82.2-4.403 92.744-8.72 183.68-13.083 275.663h120.382c-4.342-91.165-8.676-182.134-13.127-275.622 88.182 27.534 175.072 54.662 263.012 82.121 10.425-39.878 20.697-79.192 31.283-119.706-86.922-18.285-173.42-36.478-261.32-54.967 52.194-82.505 103.64-163.832 155.604-245.97-32.81-23.076-64.755-45.547-97.428-68.523-46.192 84.034-92.008 167.387-139.063 252.992-46.442-85.542-91.64-168.795-137.347-252.98z" />
<glyph unicode="&#xe959;" glyph-name="currency-dollar" horiz-adv-x="1056" d="M752 294.374c0 147.686-120.96 164.515-218.147 178.016-105.92 14.749-165.853 27.52-165.853 118.72 0 76.576 80.227 103.747 148.922 103.747 34.24 1.108 68.25-5.94 99.229-20.561s58.042-36.397 78.95-63.532l49.798 40.186c-22.394 28.793-50.256 52.877-81.987 70.867s-66.707 29.532-102.912 33.962v99.078h-64v-96.704c-115.686-7.014-192-72.32-192-167.040 0-151.36 122.56-168.406 221.040-182.080 104.080-14.49 162.96-26.957 162.96-114.659 0-97.034-100.243-111.517-160-111.517-109.741 0-156.102 30.845-199.101 84.093l-49.798-40.186c25.369-33.43 58.182-60.486 95.83-79.021 37.651-18.534 79.104-28.042 121.069-27.76v-97.126h64v97.437c119.219 9.734 192 74.47 192 174.080z" />
<glyph unicode="&#xe95a;" glyph-name="space-x" d="M572.579 487.862l238.061 270.995h-56.39l-206.81-235.245-165.046 235.245h-190.394l249.632-355.786-249.632-284.147h56.39l218.346 248.432 174.355-248.499h190.394zM268.755 717.2h86.644l398.816-558.679h-86.643z" />
<glyph unicode="&#xe95b;" glyph-name="search-zip" horiz-adv-x="1489" d="M1093.818 950.857v-116.364c128.354 0 232.727-104.401 232.727-232.727s-104.374-232.727-232.727-232.727h-698.182v290.909l-349.091-349.091 349.091-349.091v290.909h698.182c192.503 0 349.091 156.591 349.091 349.091s-156.588 349.091-349.091 349.091z" />
<glyph unicode="&#xe95c;" glyph-name="zoom-reset" d="M718.326 278.857c52.797 62.694 81.725 142.034 81.669 224 0.061 70.518-21.079 139.425-60.677 197.777-39.593 58.351-95.816 103.452-161.367 129.445-65.556 25.994-137.407 31.681-206.232 16.322s-131.443-51.053-179.725-102.449v142.905h-64v-256h256.001v64h-149.377c43.167 47.707 101.101 79.542 164.515 90.402s128.642 0.117 185.223-30.508c56.581-30.625 101.243-79.357 126.833-138.389 25.585-59.032 30.612-124.944 14.28-187.172-16.338-62.228-53.089-117.176-104.371-156.027-51.282-38.856-114.122-59.372-178.45-58.255s-126.42 23.793-176.326 64.399c-49.905 40.607-84.733 96.794-98.903 159.549h-65.306c15.016-80.809 57.807-153.825 120.969-206.418s142.722-81.449 224.913-81.582c81.961-0.056 161.306 28.872 224.001 81.669l242.749-241.669 45.251 45.251-241.669 242.749z" />
<glyph unicode="&#xe95d;" glyph-name="icon-file-1" horiz-adv-x="1067" d="M788.083 772.448c-41.655 41.656-109.193 41.656-150.848 0l-384.666-384.668c-70.815-70.814-70.815-185.626 0-256.444 70.815-70.814 185.63-70.814 256.444 0l384.666 384.666c16.661 16.664 43.678 16.664 60.339 0 16.666-16.661 16.666-43.674 0-60.339l-384.666-384.666c-104.141-104.141-272.983-104.141-377.123 0s-104.14 272.986 0 377.126l384.666 384.664c74.982 74.981 196.548 74.981 271.531 0 74.978-74.981 74.978-196.548 0-271.529l-369.583-369.583c-45.82-45.82-120.113-45.82-165.935 0-45.821 45.824-45.821 120.115 0 165.935l324.326 324.328c16.661 16.662 43.678 16.662 60.339 0 16.666-16.663 16.666-43.677 0-60.34l-324.325-324.327c-12.497-12.497-12.497-32.759 0-45.252 12.497-12.497 32.758-12.497 45.255 0l369.579 369.579c41.66 41.656 41.66 109.194 0 150.85z" />
<glyph unicode="&#xe95e;" glyph-name="icons-plus" d="M512 822.857c211.2 0 384-172.8 384-384s-172.8-384-384-384c-211.2 0-384 172.8-384 384s172.8 384 384 384zM512 886.857c-246.4 0-448-201.6-448-448s201.6-448 448-448c246.4 0 448 201.6 448 448s-201.6 448-448 448zM768 470.857h-224v224h-64v-224h-224v-64h224v-224h64v224h224v64z" />
<glyph unicode="&#xe95f;" glyph-name="icons-share" d="M736.005 310.852c-23.956-0.123-47.575-5.617-69.12-16.087-21.545-10.465-40.463-25.641-55.363-44.396l-233.92 146.243c8.525 27.515 8.525 56.964 0 84.478l233.92 146.24c23.741-29.399 57.124-49.445 94.234-56.589 37.105-7.143 75.546-0.923 108.503 17.561 32.963 18.483 58.317 48.036 71.572 83.423s13.558 74.324 0.855 109.914c-12.698 35.59-37.591 65.535-70.257 84.531s-71.004 25.817-108.216 19.254c-37.217-6.563-70.907-26.085-95.104-55.11-24.202-29.024-37.345-65.677-37.105-103.465 0.148-14.309 2.304-28.528 6.4-42.24l-233.923-146.24c-20.651 25.997-48.879 44.926-80.77 54.163s-65.865 8.324-97.214-2.612c-31.349-10.936-58.519-31.353-77.745-58.422s-29.554-59.448-29.554-92.648c-0.001-33.203 10.329-65.582 29.554-92.652s46.396-47.488 77.745-58.419c31.349-10.936 65.324-11.853 97.214-2.616 31.891 9.242 60.119 28.17 80.77 54.164l233.923-146.237c-4.096-13.711-6.252-27.93-6.4-42.24 0-31.647 9.38-62.582 26.962-88.893s42.568-46.817 71.808-58.931c29.235-12.109 61.404-15.278 92.442-9.103s59.546 21.412 81.925 43.791c22.374 22.374 37.612 50.883 43.786 81.92s3.005 63.206-9.103 92.447c-12.109 29.235-32.62 54.221-58.931 71.803s-57.247 26.967-88.888 26.967zM736.005 822.85c18.985 0 37.545-5.63 53.33-16.179 15.79-10.549 28.093-25.542 35.359-43.084s9.17-36.844 5.463-55.466c-3.702-18.622-12.846-35.728-26.271-49.154s-30.531-22.569-49.157-26.273c-18.621-3.704-37.924-1.803-55.465 5.463s-32.532 19.571-43.085 35.358c-10.547 15.787-16.174 34.348-16.174 53.335 0 25.461 10.112 49.879 28.114 67.882 18.007 18.003 42.424 28.118 67.886 28.118zM224.003 342.852c-18.987 0-37.548 5.627-53.335 16.179-15.787 10.547-28.092 25.539-35.358 43.080-7.266 17.546-9.167 36.846-5.463 55.469s12.848 35.727 26.273 49.154c13.426 13.426 30.532 22.569 49.154 26.273s37.924 1.803 55.466-5.463c17.542-7.266 32.535-19.571 43.083-35.358s16.179-34.348 16.179-53.334c0-25.462-10.114-49.879-28.118-67.886-18.003-18.002-42.422-28.114-67.882-28.114zM736.005 54.852c-18.99 0-37.55 5.627-53.335 16.179-15.79 10.547-28.093 25.539-35.359 43.080-7.265 17.546-9.17 36.849-5.463 55.47 3.702 18.621 12.846 35.727 26.271 49.152 13.43 13.425 30.531 22.569 49.157 26.271 18.621 3.707 37.924 1.807 55.465-5.463 17.541-7.265 32.532-19.569 43.085-35.354 10.547-15.79 16.179-34.35 16.179-53.335 0-25.462-10.117-49.879-28.119-67.886-18.007-18.002-42.424-28.114-67.881-28.114z" />
<glyph unicode="&#xe960;" glyph-name="pricing" d="M512 886.857v-64c212.16 0 384-171.84 384-384s-171.84-384-384-384v-64c247.36 0 448 200.64 448 448s-200.64 448-448 448zM263.678 146.39l-41.28-48.96c39.36-33.28 84.48-59.84 133.762-78.080l21.76 60.16c-42.24 15.68-80.962 38.4-114.562 66.88h0.32zM134.079 374.857l-63.040-13.12c8.96-52.16 26.88-101.12 52.48-145.28l55.36 30.4c-21.76 37.76-37.12 83.52-44.8 128zM178.879 630.857l-55.36 32c-25.28-44.16-43.2-94.72-52.48-146.88l63.040-11.2c7.68 44.48 23.040 88 44.8 125.76v0.32zM378.24 798.541l-21.76 60.16c-49.281-18.24-94.401-44.8-133.761-78.080l41.28-48.96c33.6 28.48 72.321 51.2 114.561 66.88h-0.32zM672 566.857v64h-128v96h-64v-96h-64c-35.296 0-64-28.704-64-64v-96c0-35.296 28.704-64 64-64h192v-96h-256v-64h128v-96h64v96h64c35.296 0 64 28.72 64 64v96c0 35.296-28.704 64-64 64h-192v96h256z" />
<glyph unicode="&#xe961;" glyph-name="key-hand" d="M430.429 685.404c-11.76-0.264-24.938-3.068-36.522-0.717-4.278 0.868-105.128 48.668-110.141 52.252-9.165 6.527-12.709 22.674-17.101 32.395-9.152 20.247-32.608 49.397-4.684 65.872 14.747 8.702 75.673 37.098 87.785 38.62 14.925-0.302 31.040-10.425 44.32-16.336l66.797-30.094c56.864-25.315 114.333-49.85 170.307-77.039 46.989 29.088 90.976 39.324 146.080 24.196 141.19-38.771 168.090-237.645 29.923-313.197-78.419-41.651-177.533-11.936-221.763 64.048-6.368 10.941-11.088 22.787-16.176 34.342-28.205 10.816-25.939 26.285-28.976 53.648-21.078 7.382-60.634 26.447-80.368 36.847-14.736 7.772-20.192 22.272-29.507 35.162h0.026zM349.766 822.165c-15.366-4.741-30.025-12.789-44.329-20.058 3.468-9.356 8.823-20.498 14.456-28.786l0.913-0.503c10.189-5.546 73.91-35.74 82.458-37.551 15.795-3.357 33.328 5.571 48.797-1.635 17.683-8.237 21.811-35.778 36.822-43.927 5.571-3.031 11.978-4.905 17.76-7.558l47.040-21.731c42.483-19.354 33.405-19.92 40.102-60.855 24.278-9.216 16.848-14.963 25.936-35.75 33.229-75.997 130.333-97.552 192.358-40.582 49.584 48.995 52.038 125.404 2.253 174.802-41.923 41.6-110.848 45.574-157.52 9.972-6.064-4.615-11.661-11.155-18.749-14.097-8 2.716-15.683 6.816-23.354 10.388l-229.523 104.907c-9.066 4.087-25.293 14.223-35.408 12.965h-0.013zM704.090 618.46c-30.013 27.376-22.304 69.844 17.76 75.428 36.342 9.922 72.56-38.469 32.963-75.428v-58.742h-50.723c-0.035 19.328 1.533 39.514 0 58.742zM204.029 114.793c-0.367-46.819 0.19-46.643-50.722-46.608l-105.863-0.048c-54.115-0.128-45.684 11.13-45.684 55.722v242.899c-0.025 27.379-1.203 55.222 0.203 82.534 0.722 13.91 7.165 22.752 21.633 25.066 34.925 0.387 69.888-0.064 104.812 0 47.279 0.099 72.28 13.482 75.621-40.746h118.256c84.458 0.048 81.344-1.85 160.989-38.106 33.040-15.027 34.368-12.675 70.736-12.675h74.282c34.544 0.026 58.912 1.962 85.773-23.619 16.762-15.958 27.203-37.261 27.798-60.387l5.67 3.635c32.835 20.874 69.306 41.712 102.976 61.382 18.672 10.902 38.762 25.453 59.206 32.294 82.582 27.642 150.621-75.117 89.456-136.963-18.406-18.611-101.318-66.752-127.066-82.509-71.443-48.128-149.763-97.574-223.942-141.024-43.773-25.642-69.139-48.454-124.205-39.363-25.254 4.176-57.494 22.058-81.936 32.848l-102.954 45.146c-20.595 9.194-73.608 36.986-89.444 39.664-13.507 2.291-31.646 0.88-45.583 0.845l-0.013 0.013zM61.001 427.715c-4.329-0.253-8.57-0.189-12.899 0v-312.922h93.23c5.215 0.15 10.38 0.224 15.595 0v277.984c0.013 11.597 0.481 23.354 0 34.938-31.95 0-63.988 0.515-95.926 0zM204.029 386.819v-226.038l36.001 0.051c22.924 0.026 26.038-0.077 46.646-9.773l28.709-13.418c12.102-5.571 24.102-11.405 36.317-16.736l117.318-51.085c16.886-7.267 33.28-17.642 51.254-21.994 45.43-10.992 73.571 13.267 110.192 35.149 29.722 17.757 58.938 36.106 88.307 54.416l196.371 124.912c12.986 8.288 37.747 20.928 47.328 30.586 13.165 13.267 12.090 35.616-1.229 48.429-24.24 23.315-50.48 0.995-72.746-11.594-49.395-29.706-99.194-58.515-149.104-87.328-55.798-32.205-45.85-35.69-110.294-35.613l-202.384 0.038c-0.038 16.058-0.381 32.192 0 48.253l206.243-0.051c17.661-0.026 35.901-2.426 49.408 11.331 15.277 15.568 14 42.957-2.154 57.472-14.518 13.066-34.531 10.16-52.544 10.147l-75.888-0.064c-42.848-0.022-42.774-2.902-81.165 15.408-79.142 37.75-76.218 37.523-159.865 37.501h-106.724z" />
<glyph unicode="&#xe962;" glyph-name="key" d="M657.453 860.668c-77.126-0.109-151.021-30.8-205.565-85.346-54.541-54.546-85.235-128.437-85.344-205.563-0.035-28.509 4.182-56.838 12.509-84.074l-294.111-272.867c-5.891-5.491-9.273-13.165-9.309-21.235v-145.456c0.036-16.035 13.054-29.053 29.091-29.091h145.454c7.346 0.038 14.4 2.838 19.782 7.856l291.198 270.541c30.909-11.018 63.491-16.618 96.291-16.582 103.93 0 199.962 55.456 251.923 145.456 51.965 90 51.965 200.909 0 290.908-51.962 90-147.994 145.453-251.92 145.453zM712.797 344.163c-48.979-12.547-100.762-8.365-147.091 11.818-10.438 4.365-22.438 2.182-30.656-5.6l-296.212-275.162h-105.016v103.565l298.508 277.274c8.653 7.891 11.67 20.253 7.562 31.2-22.074 57.456-19.674 121.456 6.656 177.086 34.8 76.182 107.238 128.363 190.547 137.272 69.818 6.036 138.659-19.673 187.421-70s72.291-119.93 64.070-189.524c-6.144-46.8-26.144-90.656-57.491-125.962-31.344-35.274-72.55-60.368-118.298-71.968zM802.909 627.942c0-23.526-14.182-44.765-35.93-53.747-21.744-9.018-46.762-4.035-63.382 12.621-16.653 16.618-21.635 41.635-12.618 63.381 8.982 21.745 30.218 35.927 53.744 35.927 15.418 0 30.221-6.146 41.13-17.054s17.056-25.71 17.056-41.127z" />
<glyph unicode="&#xe963;" glyph-name="return" d="M704 704v-64c70.595 0 128-57.421 128-128s-57.405-128-128-128h-384v160l-192-192 192-192v160h384c105.876 0 192 86.124 192 192s-86.124 192-192 192z" />
<glyph unicode="&#xea8b;" glyph-name="google-plus" d="M325.8 502.6v-111.8h184.8c-7.4-48-55.8-140.6-184.8-140.6-111.2 0-202 92.2-202 205.8s90.8 205.8 202 205.8c63.4 0 105.6-27 129.8-50.2l88.4 85.2c-56.8 53-130.4 85.2-218.2 85.2-180.2-0.2-325.8-145.8-325.8-326s145.6-325.8 325.8-325.8c188 0 312.8 132.2 312.8 318.4 0 21.4-2.4 37.8-5.2 54h-307.6zM1024 512h-96v96h-96v-96h-96v-96h96v-96h96v96h96z" />
<glyph unicode="&#xea90;" glyph-name="facebook" d="M608 768h160v192h-160c-123.514 0-224-100.486-224-224v-96h-128v-192h128v-512h192v512h160l32 192h-192v96c0 17.346 14.654 32 32 32z" />
<glyph unicode="&#xea93;" glyph-name="instagram" d="M512 867.8c136.8 0 153-0.6 206.8-3 50-2.2 77-10.6 95-17.6 23.8-9.2 41-20.4 58.8-38.2 18-18 29-35 38.4-58.8 7-18 15.4-45.2 17.6-95 2.4-54 3-70.2 3-206.8s-0.6-153-3-206.8c-2.2-50-10.6-77-17.6-95-9.2-23.8-20.4-41-38.2-58.8-18-18-35-29-58.8-38.4-18-7-45.2-15.4-95-17.6-54-2.4-70.2-3-206.8-3s-153 0.6-206.8 3c-50 2.2-77 10.6-95 17.6-23.8 9.2-41 20.4-58.8 38.2-18 18-29 35-38.4 58.8-7 18-15.4 45.2-17.6 95-2.4 54-3 70.2-3 206.8s0.6 153 3 206.8c2.2 50 10.6 77 17.6 95 9.2 23.8 20.4 41 38.2 58.8 18 18 35 29 58.8 38.4 18 7 45.2 15.4 95 17.6 53.8 2.4 70 3 206.8 3zM512 960c-139 0-156.4-0.6-211-3-54.4-2.4-91.8-11.2-124.2-23.8-33.8-13.2-62.4-30.6-90.8-59.2-28.6-28.4-46-57-59.2-90.6-12.6-32.6-21.4-69.8-23.8-124.2-2.4-54.8-3-72.2-3-211.2s0.6-156.4 3-211c2.4-54.4 11.2-91.8 23.8-124.2 13.2-33.8 30.6-62.4 59.2-90.8 28.4-28.4 57-46 90.6-59 32.6-12.6 69.8-21.4 124.2-23.8 54.6-2.4 72-3 211-3s156.4 0.6 211 3c54.4 2.4 91.8 11.2 124.2 23.8 33.6 13 62.2 30.6 90.6 59s46 57 59 90.6c12.6 32.6 21.4 69.8 23.8 124.2 2.4 54.6 3 72 3 211s-0.6 156.4-3 211c-2.4 54.4-11.2 91.8-23.8 124.2-12.6 34-30 62.6-58.6 91-28.4 28.4-57 46-90.6 59-32.6 12.6-69.8 21.4-124.2 23.8-54.8 2.6-72.2 3.2-211.2 3.2v0zM512 711c-145.2 0-263-117.8-263-263s117.8-263 263-263 263 117.8 263 263c0 145.2-117.8 263-263 263zM512 277.4c-94.2 0-170.6 76.4-170.6 170.6s76.4 170.6 170.6 170.6c94.2 0 170.6-76.4 170.6-170.6s-76.4-170.6-170.6-170.6zM846.8 721.4c0-33.91-27.49-61.4-61.4-61.4s-61.4 27.49-61.4 61.4c0 33.91 27.49 61.4 61.4 61.4s61.4-27.49 61.4-61.4z" />
<glyph unicode="&#xea96;" glyph-name="twitter" d="M1024 733.6c-37.6-16.8-78.2-28-120.6-33 43.4 26 76.6 67.2 92.4 116.2-40.6-24-85.6-41.6-133.4-51-38.4 40.8-93 66.2-153.4 66.2-116 0-210-94-210-210 0-16.4 1.8-32.4 5.4-47.8-174.6 8.8-329.4 92.4-433 219.6-18-31-28.4-67.2-28.4-105.6 0-72.8 37-137.2 93.4-174.8-34.4 1-66.8 10.6-95.2 26.2 0-0.8 0-1.8 0-2.6 0-101.8 72.4-186.8 168.6-206-17.6-4.8-36.2-7.4-55.4-7.4-13.6 0-26.6 1.4-39.6 3.8 26.8-83.4 104.4-144.2 196.2-146-72-56.4-162.4-90-261-90-17 0-33.6 1-50.2 3 93.2-59.8 203.6-94.4 322.2-94.4 386.4 0 597.8 320.2 597.8 597.8 0 9.2-0.2 18.2-0.6 27.2 41 29.4 76.6 66.4 104.8 108.6z" />
<glyph unicode="&#xea9e;" glyph-name="youtube" d="M1013.8 652.8c0 0-10 70.6-40.8 101.6-39 40.8-82.6 41-102.6 43.4-143.2 10.4-358.2 10.4-358.2 10.4h-0.4c0 0-215 0-358.2-10.4-20-2.4-63.6-2.6-102.6-43.4-30.8-31-40.6-101.6-40.6-101.6s-10.2-82.8-10.2-165.8v-77.6c0-82.8 10.2-165.8 10.2-165.8s10-70.6 40.6-101.6c39-40.8 90.2-39.4 113-43.8 82-7.8 348.2-10.2 348.2-10.2s215.2 0.4 358.4 10.6c20 2.4 63.6 2.6 102.6 43.4 30.8 31 40.8 101.6 40.8 101.6s10.2 82.8 10.2 165.8v77.6c-0.2 82.8-10.4 165.8-10.4 165.8zM406.2 315.2v287.8l276.6-144.4-276.6-143.4z" />
<glyph unicode="&#xea9f;" glyph-name="youtube2" horiz-adv-x="2569" d="M344.012 790.601c0.209 0.865 0.344 1.479 0.388 1.8l1.042 7.559-47.349 0.267c-42.779 0.242-55.87-0.007-57.047-1.084-0.565-0.516-15.333-56.633-41.655-158.273-12.556-48.484-23.124-87.206-23.487-86.051s-15.391 56.498-33.397 122.98c-18.006 66.482-33.104 121.243-33.55 121.692-0.623 0.623-57.98 0.9-104.417 0.502-6.735-0.056-10.477 13.11 60.021-211.133 9.759-31.041 24.371-74.997 32.469-97.679 9.333-26.141 15.989-46.323 20.534-63.173 8.038-32.067 8.319-52.163 6.565-75.625-2.026-27.101-2.321-218.438-0.342-221.638 1.512-2.449 91.223-3.589 99.712-1.268 1.358 0.372 2.265 1.691 2.87 8.928 2.119 6.219 2.286 30.969 2.286 133.744v131.281l5.742 18.112c3.756 11.849 13.201 42.995 20.989 69.22 7.789 26.222 17.21 57.619 20.938 69.771 33.834 110.319 66.14 218.831 66.994 225.011l0.693 5.056zM846.122 631.349l-0.021-6.838-1.065-0.014-0.595-188.993-0.577-183.227-14.666-14.929c-16.424-16.719-29.585-23.101-41.488-20.113-12.963 3.254-12.64-1.8-13.722 214.768l-0.998 199.347h-94.316v-6.851h-1.086v-216.289c0-231.737-0.007-231.599 11.752-254.875 9.366-18.536 23.010-27.559 46.391-30.671h0.002c30.79-4.1 64.001 9.849 94.77 39.809l13.373 13.022v-22.445c0-19.396 0.554-22.601 4.070-23.58 5.756-1.605 77.173-1.707 84.89-0.126l6.396 1.314v6.628l1.086 0.223v495.098l-94.195-1.258zM606.892 533.67c-8.935 38.341-25.68 64.115-53.233 81.939-43.281 27.999-92.718 30.957-138.586 8.291-33.425-16.515-54.951-43.914-66.071-84.083-1.326-4.786-2.298-8.812-3.033-14.815-2.83-14.184-3.163-35.351-3.889-133.951-1.121-151.928 0.616-170.003 19.643-204.51 18.664-33.848 57.403-58.661 99.572-63.782 12.696-1.54 38.43 0.858 53.23 4.961 33.632 9.326 65.864 35.906 80.118 66.078 6.158 13.033 9.875 22.096 12.115 38.651 4.175 22.617 4.47 59.175 4.47 152.375-0.002 118.875-0.379 131.862-4.337 148.847zM499.34 223.997c-7.907-6.028-21.734-8.649-32.983-6.249-8.656 1.847-20.338 15.419-23.934 27.801-4.479 15.436-4.823 229.985-0.954 272.059 6.379 21.054 24.19 32.050 43.635 26.813 15.157-4.082 22.915-13.575 27.336-33.457 3.282-14.754 3.67-33.129 2.972-141.26-0.46-71.701-0.716-106.742-3.058-125.553-2.382-11.87-6.319-15.047-13.015-20.154zM2300.389 425.863h45.57l-0.726 41.281c-0.705 37.869-1.263 42.2-6.324 52.472-7.982 16.21-19.759 23.401-38.446 23.401-22.448 0-36.678-10.849-43.388-33.141-2.858-9.486-5.863-74.685-3.707-80.308 1.205-3.144 7.724-3.705 47.021-3.705zM1995.795 519.763c-6.077 12.247-17.385 18.278-30.525 17.806-10.221-0.365-21.561-4.677-32.488-13.010l-8.14-6.177v-296.598l8.14-6.177c18.429-14.052 38.674-17.031 52.619-7.703 5.519 3.691 9.117 8.779 11.919 16.861 3.647 10.524 3.965 24.003 3.489 148.772-0.495 130.043-0.781 137.702-5.014 146.226zM2560.878 653.367c-9.080 108.842-16.303 144.165-38.751 189.544-29.729 60.101-72.692 91.788-133.876 98.747-47.309 5.379-225.315 12.97-390.044 16.631-285.188 6.338-754.057-5.858-813.939-21.173-27.673-7.077-48.426-19.11-70.022-40.604-37.844-37.662-60.391-91.679-69.452-166.396-20.692-170.606-21.134-376.727-1.188-553.515 8.577-76.041 26.243-125.443 59.41-166.159 20.694-25.406 56.352-46.998 88.26-53.442 22.385-4.523 134.42-10.798 297.605-16.668 24.306-0.874 88.667-2.379 143.030-3.344 113.301-2.012 321.627-0.821 440.719 2.519 80.127 2.249 226.201 8.172 253.5 10.282 7.677 0.593 25.469 1.728 39.537 2.523 47.277 2.67 77.353 12.568 105.596 34.76 36.553 28.718 64.857 81.795 76.815 144.037 11.314 58.894 18.887 163.773 20.422 282.851 1.284 99.491-0.426 153.175-7.621 239.409zM1425.273 692.808l-52.982-0.654-2.326-565.143-45.932-0.581c-35.525-0.488-46.307 0.044-47.167 2.326-0.616 1.626-1.356 129.020-1.672 283.153l-0.581 280.246-103.493 1.307v88.304l305.829-1.235 1.307-87.069-52.982-0.654zM1750.216 368.883v-243.035h-83.725v25.583c0 19.247-0.735 25.583-2.979 25.583-1.64 0-9.226-6.344-16.861-14.098-16.557-16.817-36.171-30.367-52.91-36.63-34.662-12.968-67.589-5.4-81.618 18.75-12.838 22.11-13.082 27.052-13.082 256.335v210.547h83.653l0.654-198.265c0.623-194.821 0.714-198.393 5.377-206.333 6.182-10.521 15.608-13.347 30.597-9.231 8.817 2.423 14.836 6.707 29.143 20.931l18.024 17.952v374.946h83.725v-243.035zM2076.757 160.59c-7.372-16.424-23.806-32.509-37.283-36.485-35.167-10.382-63.375-1.923-95.935 28.708-10.103 9.505-19.51 17.224-20.931 17.224-1.712 0-2.616-7.449-2.616-22.094v-22.094h-83.725v655.845h83.725v-106.982c0-58.84 0.786-106.982 1.744-106.982s9.789 7.807 19.624 17.298c22.629 21.841 41.548 31.399 65.557 33.213 42.811 3.24 68.327-18.794 80.018-69.117 3.647-15.696 3.998-33.625 3.998-179.078-0.002-177.178-0.021-177.918-14.175-209.457zM2430.99 257.832c-0.744-18.226-2.954-39.137-4.942-46.514-11.642-43.167-42.635-73.731-87.432-86.269-60.315-16.878-126.704 10.777-153.205 63.812-14.875 29.769-15.408 35.706-15.408 181.185 0 118.617 0.419 133.171 4.214 149.354 10.747 45.788 37.392 75.422 82.49 91.865 13.068 4.765 26.708 7.207 40.337 7.486 48.672 0.998 96.984-25.18 117.229-67.808 13.659-28.76 15.35-41.060 16.717-122.099l1.235-72.678-178.497-1.235-0.654-48.84c-0.93-68.901 3.716-90.088 22.313-102.621 15.645-10.54 39.679-9.745 52.765 1.744 12.263 10.768 15.726 22.336 16.933 56.107l1.091 29.653h86.195l-1.381-33.143z" />
<glyph unicode="&#xeaca;" glyph-name="linkedin2" d="M384 576h177.106v-90.782h2.532c24.64 44.194 84.958 90.782 174.842 90.782 186.946 0 221.52-116.376 221.52-267.734v-308.266h-184.61v273.278c0 65.184-1.334 149.026-96.028 149.026-96.148 0-110.82-70.986-110.82-144.292v-278.012h-184.542v576zM64 576h192v-576h-192v576zM256 736c0-53.019-42.981-96-96-96s-96 42.981-96 96c0 53.019 42.981 96 96 96s96-42.981 96-96z" />
</font>
</defs>
</svg>
