<?xml version="1.0" encoding="UTF-8"?><svg id="icon" xmlns="http://www.w3.org/2000/svg" viewBox="0 0 32 32"><path d="M16.93,19.3c1.82,0,3.3-1.48,3.3-3.3s-1.48-3.3-3.3-3.3-3.3,1.48-3.3,3.3,1.48,3.3,3.3,3.3ZM16.93,14.7c.72,0,1.3.58,1.3,1.3s-.58,1.3-1.3,1.3-1.3-.59-1.3-1.3.58-1.3,1.3-1.3Z" fill="#222" stroke-width="0"/><path d="M18.88,20.33l.82,1.82c1.29-.58,2.39-1.57,3.09-2.8l-1.74-.99c-.49.86-1.26,1.56-2.17,1.97Z" fill="#222" stroke-width="0"/><path d="M17.92,11.36l.42-1.96c-1.4-.3-2.84-.15-4.14.43l.81,1.83c.91-.41,1.92-.51,2.91-.3Z" fill="#222" stroke-width="0"/><path d="M10.34,14.56c-.1.48-.16.97-.16,1.44,0,.23.01.46.03.68l1.99-.2c-.02-.15-.02-.31-.02-.47,0-.34.04-.68.11-1.02.11-.49.29-.95.53-1.37l-1.73-1.01c-.35.6-.61,1.26-.76,1.95Z" fill="#222" stroke-width="0"/><path d="M23.64,15.29c-.15-1.4-.75-2.75-1.7-3.8l-1.49,1.34c.67.74,1.09,1.69,1.2,2.68l1.99-.21Z" fill="#222" stroke-width="0"/><path d="M11.89,20.5c.95,1.07,2.2,1.79,3.64,2.11h.05s.34-1.96.34-1.96c-.99-.22-1.86-.73-2.53-1.48l-1.49,1.33Z" fill="#222" stroke-width="0"/><path d="M16.93,3.29c-2.36,0-4.56.66-6.45,1.78l1.82,1.29c1.4-.68,2.97-1.07,4.63-1.07,5.91,0,10.71,4.81,10.71,10.71s-4.81,10.71-10.71,10.71c-5.39,0-9.86-4.01-10.6-9.2l-2.07-.6c.47,6.58,5.97,11.8,12.67,11.8s12.71-5.7,12.71-12.71S23.94,3.29,16.93,3.29Z" fill="#222" stroke-width="0"/><path d="M8.48,16.06c.19-1.66.29-2.07.68-3.28.59-1.84,1.46-2.96,2.98-3.84l.08-1.68-3.32-2.35h-1.16c-2.01,1.45-3.47,3.4-4.35,5.82-.48,1.32-.74,2.71-.76,4.1l.72.98,3.87,1.11,1.27-.85ZM4.66,14.1c.08-.92.28-1.82.6-2.69.65-1.8,1.69-3.29,3.08-4.44l1.56,1.1c-1.24,1.03-2.08,2.34-2.64,4.11-.32.98-.47,1.53-.61,2.5l-1.98-.57Z" fill="#222" stroke-width="0"/></svg>