<?xml version="1.0" encoding="UTF-8"?><svg id="icon" xmlns="http://www.w3.org/2000/svg" viewBox="0 0 32 32"><polygon points="10.99 14.55 12.24 14.55 12.24 21.65 11.72 21.65 11.72 23.65 14.76 23.65 14.76 21.65 14.24 21.65 14.24 14.55 15.49 14.55 15.49 12.55 10.99 12.55 10.99 14.55" fill="#231f20" stroke-width="0"/><rect x="10.99" y="9.78" width="4.5" height="2" fill="#231f20" stroke-width="0"/><polygon points="5.38 12.81 6.63 12.81 6.63 19.91 6.11 19.91 6.11 21.91 9.15 21.91 9.15 19.91 8.63 19.91 8.63 12.81 9.88 12.81 9.88 10.81 5.38 10.81 5.38 12.81" fill="#231f20" stroke-width="0"/><rect x="5.38" y="8.04" width="4.5" height="2" fill="#231f20" stroke-width="0"/><polygon points="25.37 12.8 26.62 12.8 26.62 10.8 22.12 10.8 22.12 12.8 23.37 12.8 23.37 19.91 22.85 19.91 22.85 21.91 25.89 21.91 25.89 19.91 25.37 19.91 25.37 12.8" fill="#231f20" stroke-width="0"/><rect x="22.12" y="8.04" width="4.5" height="2" fill="#231f20" stroke-width="0"/><polygon points="16.55 16.98 17.8 16.98 17.8 24.08 17.28 24.08 17.28 26.08 20.32 26.08 20.32 24.08 19.8 24.08 19.8 16.98 21.05 16.98 21.05 14.98 16.55 14.98 16.55 16.98" fill="#231f20" stroke-width="0"/><rect x="16.55" y="12.21" width="4.5" height="2" fill="#231f20" stroke-width="0"/><polygon points="3.87 17.66 1.87 17.66 1.87 24.21 3.87 24.21 3.87 21.91 5.31 21.91 5.31 19.91 3.87 19.91 3.87 17.66" fill="#231f20" stroke-width="0"/><rect x="26.62" y="19.96" width="2.44" height="2" fill="#231f20" stroke-width="0"/></svg>