<?xml version="1.0" encoding="UTF-8"?><svg id="icon" xmlns="http://www.w3.org/2000/svg" viewBox="0 0 32 32"><path d="M11.57,17.08h-2.02c.06.94.31,1.83.7,2.64l1.75-1.01c-.23-.51-.37-1.06-.43-1.63Z" fill="#231f20" stroke-width="0"/><path d="M12.02,14.47l-1.74-1c-.4.8-.64,1.69-.72,2.62h2c.06-.57.22-1.12.46-1.62Z" fill="#231f20" stroke-width="0"/><path d="M13.71,12.43l-1.01-1.75c-.76.51-1.4,1.17-1.92,1.92l1.75,1.01c.33-.45.73-.85,1.19-1.18Z" fill="#231f20" stroke-width="0"/><path d="M16.19,11.48v-2.03c-.94.07-1.82.32-2.63.72l1.02,1.77c.5-.23,1.04-.39,1.61-.46Z" fill="#231f20" stroke-width="0"/><path d="M17.19,9.44v2.02c2.35.21,4.28,1.94,4.67,4.3l1.97-.33c-.55-3.33-3.31-5.78-6.64-5.99Z" fill="#231f20" stroke-width="0"/><path d="M17.84,17.13c-.19-.29-.4-.59-.62-.91-.22-.32-.44-.62-.67-.91-.22-.29-.44-.57-.66-.83-.22-.26-.41-.48-.59-.65h-1.03v5.6h1.24v-3.67c.47.55.92,1.14,1.34,1.77.42.62.81,1.26,1.17,1.9h1.06v-5.6h-1.25v3.3Z" fill="#231f20" stroke-width="0"/><path d="M12.49,19.58l-1.76,1.02c.51.77,1.17,1.43,1.93,1.96l1.02-1.77c-.46-.34-.87-.74-1.19-1.2Z" fill="#231f20" stroke-width="0"/><path d="M13.52,23.07c.65.32,1.35.55,2.1.67l.31-1.98c-.49-.08-.95-.25-1.38-.45l-1.02,1.77Z" fill="#231f20" stroke-width="0"/><path d="M26.79,4.96h-12.09l-2.08,1.96-9.6.02-1.83,1.59v16.89l1.88,1.63h25.82l1.91-1.66V8.84l-4.02-3.89ZM28.81,24.47l-.66.57H3.82l-.63-.55v-15.07l.58-.5,9.65-.02,2.07-1.96h10.49l2.82,2.73v14.78Z" fill="#231f20" stroke-width="0"/><rect x="4.2" y="11.33" width="2.22" height="2" fill="#231f20" stroke-width="0"/><rect x="4.2" y="16.6" width="2.22" height="2" fill="#231f20" stroke-width="0"/><rect x="25.41" y="11.33" width="2.22" height="2" fill="#231f20" stroke-width="0"/><rect x="25.41" y="16.6" width="2.22" height="2" fill="#231f20" stroke-width="0"/></svg>