<?xml version="1.0" encoding="UTF-8"?><svg id="icon" xmlns="http://www.w3.org/2000/svg" viewBox="0 0 32 32"><path d="m17.32,17.48l-2.87.83v1.98s-3.81,1.06-3.81,1.06v2.08s3.81-1.07,3.81-1.07v.57c-1.5.58-2.57,2.02-2.57,3.72,0,2.21,1.79,4,4,4,2.21,0,4-1.79,4-4,0-1.7-1.07-3.15-2.57-3.72v-1.37s3.81-1.07,3.81-1.07v-2.06s-3.81,1.06-3.81,1.06v-2.01Zm-1.44,11.17c-1.1,0-2-.9-2-2s.9-2,2-2c1.1,0,2,.9,2,2,0,1.1-.9,2-2,2Z"/><polygon points="17.32 12.08 14.44 12.9 14.45 14.89 10.64 15.95 10.63 18.03 21.12 15.09 21.13 13.03 17.31 14.09 17.32 12.08"/><polygon points="17.32 6.74 14.44 7.56 14.45 9.55 10.64 10.61 10.63 12.69 21.12 9.75 21.13 7.69 17.31 8.75 17.32 6.74"/><polygon points="21.13 2.36 17.31 3.42 17.32 1.42 14.44 1.42 14.45 4.22 10.64 5.28 10.63 7.36 21.12 4.42 21.13 2.36"/></svg>