<!-- Generated by IcoMoon.io -->
<svg version="1.1" xmlns="http://www.w3.org/2000/svg" width="1024" height="1024" viewBox="0 0 1024 1024">
<title></title>
<g id="icomoon-ignore">
</g>
<path fill="#000" d="M168.64 544.957h-109.12c-18.24 0-32.96-14.72-32.96-32.957 0-18.24 14.72-32.96 32.96-32.96h109.12c18.24 0 32.96 14.72 32.96 32.96 0 18.237-14.72 32.957-32.96 32.957z"></path>
<path fill="#000" d="M966.083 544.957h-99.2c-18.243 0-32.963-14.72-32.963-32.957 0-18.24 14.72-32.96 32.963-32.96h99.2c18.237 0 32.957 14.72 32.957 32.96 0 18.237-14.72 32.957-32.957 32.957z"></path>
<path fill="#000" d="M605.763 621.757c-75.843 0-158.403-25.917-183.043-34.56h-236.16c-26.56 0-48-21.437-48-48v-54.397c0-26.56 21.44-48 48-48h234.56c37.44-13.76 206.080-70.4 285.763-15.68 19.517 13.44 42.557 39.36 42.557 87.040 0 47.677-23.040 74.24-42.557 87.997-26.563 18.883-63.043 25.283-101.443 25.283l0.323 0.317zM202.88 523.197h231.040l5.12 1.92c66.24 23.68 187.843 49.603 231.040 18.883 7.363-5.12 15.683-13.763 15.683-35.52 0-21.76-8.003-29.76-14.725-34.56-43.197-29.76-165.437-0.64-232.317 24.64l-5.44 1.92h-230.080v22.4l-0.32 0.317z"></path>
<path fill="#000" d="M839.040 587.197h-152.96l1.92-150.718h151.040c26.557 0 48 21.76 48 48.32v54.398c0 26.563-21.443 48-48 48zM750.72 523.197h72.32v-22.398h-72.003v22.398h-0.317z"></path>
<path fill="#000" d="M750.080 508.48h-64v-127.36l-43.52-43.84 45.123-45.12 62.397 62.4v153.92z"></path>
<path fill="#000" d="M687.683 724.797l-45.123-45.44 43.52-43.52v-127.358h64v153.921l-62.397 62.397z"></path>
</svg>
