<!-- Generated by IcoMoon.io -->
<svg version="1.1" xmlns="http://www.w3.org/2000/svg" width="1024" height="1024" viewBox="0 0 1024 1024">
<title></title>
<g id="icomoon-ignore">
</g>
<path fill="#000" d="M522.24 832c-245.76 0-432.96-94.72-455.040-230.083-8.64-52.48 0-183.997 260.48-271.037l20.16 60.8c-148.48 49.6-229.76 124.477-217.28 199.997 13.76 85.443 155.84 176.323 391.68 176.323 235.837 0 362.557-88.003 371.84-169.923 8.643-77.117-80.957-177.597-300.8-227.837l14.397-62.4c275.84 63.040 361.6 194.88 350.080 297.277-12.8 112.963-152.32 226.56-435.517 226.56v0.323z"></path>
<path fill="#000" d="M653.44 549.76l-127.36-226.24 226.56-127.36 31.36 55.68-170.557 96 96 170.56-56.003 31.36z"></path>
</svg>
