<?xml version="1.0" encoding="UTF-8"?><svg id="Layer_2" xmlns="http://www.w3.org/2000/svg" viewBox="0 0 32 32"><path d="m29.69,21.36h-5.71l.04-4.08h5.53v-2h-1.6v-2.5l-.35-.3c-.58-.5-3.63-2.97-5.77-2.84l-.56.04c-.89.06-1.95.13-2.99-.06.21-.07.42-.14.64-.22,1.19-.42,2.41-.84,3.33-.9.96-.06,3.01,1.06,4.19,1.88l.25.17,1.25.02.03-2h-.65c-.92-.62-3.44-2.16-5.18-2.06-1.2.07-2.56.54-3.88,1.01-1.09.38-2.22.78-2.86.78-.6-.05-3.13-1.31-5.48-2.62-.16-.81-.87-1.42-1.72-1.42-.96,0-1.75.79-1.75,1.75s.79,1.75,1.75,1.75c.33,0,.63-.1.89-.25.66.36,1.41.78,2.18,1.17h0c.16.09,3.85,1.96,5.29,2.53,1.76.69,3.54.57,4.84.48l.53-.03c.93-.05,2.78,1.11,4.01,2.08v1.56h-1.91l.02-1.94-6.25-.04-1.6,1.97H2.93v8.05h13.49l1.64,1.64h5.89l.02-1.61h5.73v-2ZM8.2,5.75c.1,0,.17.07.21.16l-.16.28c-.14.02-.3-.03-.3-.19,0-.14.11-.25.25-.25Zm13.77,17.22h-3.08l-1.64-1.64H4.93v-4.05h12.24l1.59-1.97,3.28.02-.07,7.64Z"/></svg>