<?xml version="1.0" encoding="UTF-8"?><svg id="icon" xmlns="http://www.w3.org/2000/svg" viewBox="0 0 32 32"><path d="m29.96,15.98c-1.22-1.22-3.05-1.69-4.72-1.36-.3-.56-.77-1.46-1.29-2.52h.98v-3.74h-2v1.57l-1.27-2.92c-.14-.35-.37-.65-.68-.86-.31-.21-.67-.32-1.05-.32h-1.62v2h1.53l.45,1.03c-1.96-.06-4.14,1.1-5.16,2.76-1.13,1.84-2.18,1.6-2.95,1.43-.03,0-.06-.01-.08-.02h0s-.9-.44-.9-.44c-.09-.04-2.31-1.07-5.43-.84-1.81.13-3.35.86-3.41.89l-.9.43.86,1.8.9-.43s1.28-.6,2.69-.7c2.56-.19,4.41.65,4.43.66l.1.05c.05.22.14.41.19.52.5,1.38,1.04,2.85,1.42,3.88h-.68c-.16-1.07-.65-2.07-1.43-2.86-1.68-1.68-4.53-1.96-6.5-.64-.85.57-1.51,1.37-1.9,2.31-.39.94-.49,1.97-.29,2.98.2,1,.69,1.92,1.41,2.64.72.72,1.63,1.21,2.64,1.41.33.07.67.1,1.01.1.67,0,1.34-.13,1.97-.39.94-.39,1.74-1.05,2.31-1.9.34-.51.57-1.06.71-1.65h1.5s0,0,0,0l6.68-.07,2.96-7.24c.37.75.71,1.39.96,1.86-.81.56-1.45,1.34-1.83,2.26-.39.95-.49,1.97-.29,2.98.2,1,.69,1.92,1.41,2.64.72.72,1.64,1.21,2.64,1.41.33.07.67.1,1.01.1.67,0,1.34-.13,1.97-.39.94-.39,1.74-1.05,2.31-1.9.57-.85.87-1.84.87-2.86,0-1.38-.54-2.67-1.51-3.64Zm-21.04,5.39c-.35.52-.84.92-1.42,1.16s-1.21.3-1.82.18c-.61-.12-1.17-.42-1.61-.86-.44-.44-.74-1-.86-1.61-.12-.61-.06-1.24.18-1.82.24-.58.64-1.07,1.16-1.41.52-.35,1.13-.53,1.75-.53.83,0,1.64.34,2.23.92.41.41.68.91.82,1.45l-3.81.02v2s3.67-.01,3.67-.01c-.08.18-.16.36-.28.53Zm9.21-2.59l-3.95.04c-.29-.8-.81-2.21-1.35-3.68,1.12.04,2.68-.32,4.01-2.5.65-1.06,2.24-1.89,3.47-1.81.47.03.75.18.92.34l-3.11,7.61Zm10.82,2.59c-.35.52-.84.92-1.42,1.16-.58.24-1.21.3-1.82.18-.61-.12-1.17-.42-1.62-.86s-.74-1-.86-1.61c-.12-.61-.06-1.24.18-1.82s.64-1.07,1.16-1.42c.52-.35,1.13-.53,1.75-.53.83,0,1.64.34,2.23.92.6.59.92,1.39.92,2.23,0,.62-.18,1.23-.53,1.75Z" fill="#231f20"/></svg>