<?xml version="1.0" encoding="UTF-8"?><svg id="icon" xmlns="http://www.w3.org/2000/svg" viewBox="0 0 32 32"><path d="m16.57,25.99c-2.21,0-4-1.79-4-4s1.79-4,4-4,4,1.79,4,4c0,2.21-1.79,4-4,4Zm0-6c-1.1,0-2,.9-2,2s.9,2,2,2,2-.9,2-2c0-1.1-.9-2-2-2Z"/><rect x="16.78" y="8.87" width="1.77" height="6.99" transform="translate(3.68 28.78) rotate(-84.54)"/><rect x="16.95" y="5.41" width="1.77" height="6.99" transform="translate(7.28 25.81) rotate(-84.54)"/><rect x="17.17" y="2.07" width="1.77" height="6.99" transform="translate(10.8 23.01) rotate(-84.54)"/><rect x="5.83" y="13.8" width="6.99" height="1.77" transform="translate(-6.9 8.39) rotate(-36.38)"/><rect x="3.64" y="11.11" width="6.99" height="1.77" transform="translate(-5.73 6.57) rotate(-36.38)"/><rect x="1.58" y="8.48" width="6.99" height="1.77" transform="translate(-4.57 4.84) rotate(-36.38)"/><path d="m22.6,28.96h-6.96c-3.86,0-7-3.14-7-7v-.2c0-3.86,3.14-7,7-7h6.96c3.86,0,7,3.14,7,7v.2c0,3.86-3.14,7-7,7Zm-6.96-12.2c-2.76,0-5,2.24-5,5v.2c0,2.76,2.24,5,5,5h6.96c2.76,0,5-2.24,5-5v-.2c0-2.76-2.24-5-5-5h-6.96Z"/></svg>