<?xml version="1.0" encoding="UTF-8"?><svg id="icon" xmlns="http://www.w3.org/2000/svg" viewBox="0 0 32 32"><rect x="24.04" y="18.95" width="5.96" height="2"/><path d="m18.71,18.95h-2.8c.11-.5.19-1.01.19-1.54,0-1.85-.72-3.58-2.03-4.89-1.31-1.31-3.04-2.03-4.89-2.03-1.37,0-2.7.4-3.84,1.17s-2.02,1.84-2.55,3.1c-.53,1.27-.66,2.65-.39,4,.27,1.35.92,2.57,1.89,3.54.97.97,2.2,1.63,3.54,1.89.45.09.9.13,1.35.13.9,0,1.8-.18,2.64-.53,1.27-.53,2.34-1.41,3.1-2.55.07-.1.11-.21.17-.31h3.6v-2Zm-7.64,3.01c-.9.37-1.88.47-2.84.28-.96-.19-1.83-.66-2.52-1.35-.69-.69-1.15-1.56-1.35-2.52-.19-.96-.09-1.94.28-2.84.37-.9,1-1.66,1.81-2.21.81-.54,1.76-.83,2.73-.83,1.31,0,2.55.51,3.48,1.44s1.44,2.16,1.44,3.48c0,.53-.09,1.04-.25,1.54h-5.36v2h4.1c-.44.42-.95.77-1.52,1.01Z"/><polygon points="25.42 16.38 24.02 17.78 22.35 16.1 22.35 24.35 20.35 24.35 20.35 16.1 18.68 17.78 17.28 16.38 21.35 12.3 25.42 16.38"/><rect x="1.98" y="25.95" width="28.02" height="2"/><path d="m25.58,6.19c-1.42,2.36-3.88,3.03-5.21,3.22-2.22.31-4.17-.23-4.89-.9h0c-2.64-1.95-5.1-1.89-6.49-1.85-2.67.08-5.48,1.61-5.59,1.67l-.88.48.97,1.75.88-.48s2.49-1.36,4.68-1.42c1.71-.05,4.88-.14,7.98,4.42l.56.83,1.43-1.39-.34-.56c-.12-.18-.24-.33-.36-.49.75.05,1.54.04,2.33-.07,2.91-.41,5.27-1.89,6.65-4.16.64-1.07,1.61-1.86,2.68-2.28v-2.1c-1.78.47-3.38,1.66-4.4,3.34Z"/><polygon points="30 14.16 25.49 14.16 23.33 12.16 30 12.16 30 14.16"/></svg>