<?xml version="1.0" encoding="UTF-8"?><svg id="icon" xmlns="http://www.w3.org/2000/svg" viewBox="0 0 32 32"><path d="M26.9,14.22l-3.02,10.22c-.42,1.43-1.73,2.41-3.22,2.41h-9.25l-5.27-5.27" fill="none" stroke="#000" stroke-miterlimit="10" stroke-width="2"/><path d="M10.84,9.63c-4.12,0-7.48,3.35-7.48,7.48,0,2.04.83,3.89,2.16,5.24l1.64-1.21c-1.1-1-1.8-2.43-1.8-4.03,0-3.02,2.46-5.48,5.48-5.48.47,0,.92.06,1.35.18l.58-1.91c-.62-.17-1.26-.26-1.93-.26Z"/><path d="M11.25,21.16c-2.21,0-4-1.79-4-4s1.79-4,4-4,4,1.79,4,4c0,2.21-1.79,4-4,4ZM11.25,15.16c-1.1,0-2,.9-2,2s.9,2,2,2,2-.9,2-2c0-1.1-.9-2-2-2Z"/><path d="M20.09,24.65h-3.98v-2h3.45l.95-3.12,1.91.58-1.1,3.62c-.16.54-.66.91-1.23.91Z"/><rect x="20.78" y="11.33" width="2.09" height="4.8" transform="translate(2.27 30.54) rotate(-72.84)"/><rect x="21.81" y="8.02" width="2.09" height="4.8" transform="translate(6.16 29.18) rotate(-72.85)"/><rect x="22.8" y="4.82" width="2.09" height="4.8" transform="translate(9.91 27.87) rotate(-72.84)"/><rect x="15.31" y="9.59" width="2.09" height="4.8" transform="translate(.08 24.08) rotate(-72.84)"/><rect x="16.34" y="6.27" width="2.09" height="4.8" transform="translate(3.97 22.72) rotate(-72.85)"/><rect x="17.32" y="3.08" width="2.09" height="4.8" transform="translate(7.72 21.41) rotate(-72.84)"/></svg>