<?xml version="1.0" encoding="UTF-8"?><svg id="icon" xmlns="http://www.w3.org/2000/svg" viewBox="0 0 32 32"><circle cx="18.18" cy="19.82" r="9.44" fill="#fff" stroke="#000" stroke-linejoin="bevel" stroke-width="2"/><path d="M28.29,19.82c0,5.58-4.52,10.1-10.1,10.1s-10.1-4.52-10.1-10.1,4.52-10.1,10.1-10.1,10.1,4.52,10.1,10.1Z" fill="none" stroke="#000" stroke-dasharray="1.98 1.98" stroke-linejoin="bevel" stroke-width="2"/><circle cx="18.18" cy="19.82" r="3.9" fill="#fff"/><circle cx="18.18" cy="19.82" r="3.9" fill="none" stroke="#fff" stroke-linejoin="bevel" stroke-width="4"/><circle cx="18.18" cy="19.82" r="3.9" fill="none" stroke="#000" stroke-linejoin="bevel" stroke-width="2"/><polygon points="19.02 19.78 15.21 14.21 16.11 13.59 8.27 2.12 5.12 4.28 12.96 15.75 14.16 14.93 17.97 20.49 19.02 19.78" fill="#fff" stroke="#fff" stroke-linejoin="round" stroke-width="4"/><rect x="14.07" y="7.89" width="1.27" height="13.42" transform="translate(-5.67 10.85) rotate(-34.36)" fill="#fff" stroke="#000" stroke-linejoin="round" stroke-width="2"/><rect x="8.71" y="1.99" width="3.82" height="13.89" transform="translate(-3.19 7.55) rotate(-34.36)" fill="#fff" stroke="#000" stroke-linejoin="round" stroke-width="2"/></svg>